M48
INCH,TZ
T1C0.0118
T2C0.0394
T3C0.0787
%
G90
G05
T1
X66000Y-37000
X66000Y-39000
X66500Y-37000
X66500Y-39000
X67000Y-37000
X67000Y-39000
X67500Y-37000
X67500Y-39000
T2
X53000Y-21000
X53000Y-22000
X53000Y-23000
X53000Y-24000
X53000Y-25000
X53000Y-26000
X53000Y-27000
X53000Y-28000
X53000Y-29000
X53000Y-30000
X53000Y-31000
X53000Y-32000
X53000Y-33000
X53000Y-34000
X53000Y-35000
X53000Y-36000
X53000Y-37000
X53000Y-38000
X53000Y-39000
X53000Y-40000
X54000Y-21000
X54000Y-22000
X54000Y-23000
X54000Y-24000
X54000Y-25000
X54000Y-26000
X54000Y-27000
X54000Y-28000
X54000Y-29000
X54000Y-30000
X54000Y-31000
X54000Y-32000
X54000Y-33000
X54000Y-34000
X54000Y-35000
X54000Y-36000
X54000Y-37000
X54000Y-38000
X54000Y-39000
X54000Y-40000
X55000Y-21000
X55000Y-22000
X55000Y-23000
X55000Y-24000
X55000Y-25000
X55000Y-26000
X55000Y-27000
X55000Y-28000
X55000Y-29000
X55000Y-30000
X55000Y-31000
X55000Y-33000
X55000Y-34000
X55000Y-35000
X55000Y-36000
X55000Y-37000
X55000Y-38000
X55000Y-39000
X55000Y-40000
X56000Y-21000
X56000Y-22000
X56000Y-23000
X56000Y-24000
X56000Y-25000
X56000Y-26000
X56000Y-27028
X56000Y-28000
X56000Y-30000
X56000Y-31000
X56000Y-33000
X56000Y-34000
X56000Y-35000
X56000Y-36000
X56000Y-37000
X56000Y-38000
X56000Y-39000
X56000Y-40000
X57000Y-21000
X57000Y-22000
X57000Y-23000
X57000Y-24000
X57000Y-25000
X57000Y-26000
X57000Y-27000
X57000Y-28000
X57000Y-30000
X57000Y-31000
X57000Y-33000
X57000Y-34000
X57000Y-35000
X57000Y-36000
X57000Y-37000
X57000Y-38000
X57000Y-39000
X57000Y-40000
X58000Y-21000
X58000Y-22000
X58000Y-23000
X58000Y-24000
X58000Y-25000
X58000Y-26000
X58000Y-27000
X58000Y-28000
X58000Y-33000
X58000Y-34000
X58000Y-35000
X58000Y-36000
X58000Y-37000
X58000Y-38000
X58000Y-39000
X58000Y-40000
X59000Y-21000
X59000Y-22000
X59000Y-23000
X59000Y-24000
X59000Y-25000
X59000Y-28000
X59000Y-33000
X59000Y-34000
X59000Y-35000
X59000Y-36000
X59000Y-37000
X59000Y-38000
X59000Y-39000
X59000Y-40000
X60000Y-21000
X60000Y-22000
X60000Y-23000
X60000Y-24000
X60000Y-25000
X60000Y-28000
X60000Y-33000
X60000Y-34000
X60000Y-35000
X60000Y-36000
X60000Y-37000
X60000Y-38000
X60000Y-39000
X60000Y-40000
X61000Y-21000
X61000Y-22000
X61000Y-23000
X61000Y-24000
X61000Y-25000
X61000Y-28000
X61000Y-33000
X62000Y-21000
X63000Y-21000
X63250Y-35500
X63250Y-40500
X64000Y-21000
X64250Y-35500
X64250Y-40500
X65000Y-21000
X65250Y-35500
X65250Y-40500
X66000Y-21000
X66250Y-35500
X66250Y-40500
X67000Y-21000
X67000Y-22000
X67250Y-35500
X67250Y-40500
X68000Y-21000
X68250Y-35500
X68250Y-40500
X69000Y-21000
X69250Y-35500
X69250Y-40500
X70000Y-21000
X70250Y-35500
X70250Y-40500
X71000Y-21000
X72000Y-21000
X73000Y-21000
X73000Y-22000
X73000Y-23000
X73000Y-24000
X73000Y-25000
X73000Y-28000
X73000Y-34000
X73000Y-35000
X73000Y-36000
X73000Y-37000
X73000Y-38000
X73000Y-39000
X73000Y-40000
X74000Y-21000
X74000Y-22000
X74000Y-23000
X74000Y-24000
X74000Y-25000
X74000Y-28000
X74000Y-33000
X74000Y-34000
X74000Y-35000
X74000Y-36000
X74000Y-37000
X74000Y-38000
X74000Y-39000
X74000Y-40000
X75000Y-21000
X75000Y-22000
X75000Y-23000
X75000Y-24000
X75000Y-25000
X75000Y-28000
X75000Y-33000
X75000Y-34000
X75000Y-35000
X75000Y-36000
X75000Y-37000
X75000Y-38000
X75000Y-39000
X75000Y-40000
X76000Y-21000
X76000Y-22000
X76000Y-23000
X76000Y-24000
X76000Y-25000
X76000Y-26000
X76000Y-27000
X76000Y-28000
X76000Y-33000
X76000Y-34000
X76000Y-35000
X76000Y-36000
X76000Y-37000
X76000Y-38000
X76000Y-39000
X76000Y-40000
X77000Y-21000
X77000Y-22000
X77000Y-23000
X77000Y-24000
X77000Y-25000
X77000Y-26000
X77000Y-27000
X77000Y-28000
X77000Y-30000
X77000Y-31000
X77000Y-33000
X77000Y-34000
X77000Y-35000
X77000Y-36000
X77000Y-37000
X77000Y-38000
X77000Y-39000
X77000Y-40000
X78000Y-21000
X78000Y-22000
X78000Y-23000
X78000Y-24000
X78000Y-25000
X78000Y-26000
X78000Y-27000
X78000Y-28000
X78000Y-30000
X78000Y-31000
X78000Y-33000
X78000Y-34000
X78000Y-35000
X78000Y-36000
X78000Y-37000
X78000Y-38000
X78000Y-39000
X78000Y-40000
X79000Y-21000
X79000Y-22000
X79000Y-23000
X79000Y-24000
X79000Y-25000
X79000Y-26000
X79000Y-27000
X79000Y-28000
X79000Y-29000
X79000Y-30000
X79000Y-31000
X79000Y-33000
X79000Y-34000
X79000Y-35000
X79000Y-36000
X79000Y-37000
X79000Y-38000
X79000Y-39000
X79000Y-40000
X80000Y-21000
X80000Y-22000
X80000Y-23000
X80000Y-24000
X80000Y-25000
X80000Y-26000
X80000Y-27000
X80000Y-28000
X80000Y-29000
X80000Y-30000
X80000Y-31000
X80000Y-32000
X80000Y-33000
X80000Y-34000
X80000Y-35000
X80000Y-36000
X80000Y-37000
X80000Y-38000
X80000Y-39000
X80000Y-40000
X81000Y-21000
X81000Y-22000
X81000Y-23000
X81000Y-24000
X81000Y-25000
X81000Y-26000
X81000Y-27000
X81000Y-28000
X81000Y-29000
X81000Y-30000
X81000Y-31000
X81000Y-32000
X81000Y-33000
X81000Y-34000
X81000Y-35000
X81000Y-36000
X81000Y-37000
X81000Y-38000
X81000Y-39000
X81000Y-40000
T3
X51000Y-21500
X51000Y-23500
X51000Y-25500
X51000Y-27500
X51000Y-29500
X51000Y-31500
X51000Y-33500
X51000Y-35500
X51000Y-37500
X51000Y-39500
X82750Y-21500
X82750Y-23500
X82750Y-25500
X82750Y-27500
X82750Y-29500
X82750Y-31500
X82750Y-33500
X82750Y-35500
X82750Y-37500
X82750Y-39500
M30
