%TF.GenerationSoftware,KiCad,Pcbnew,8.0.9-8.0.9-0~ubuntu24.04.1*%
%TF.CreationDate,2025-10-22T00:16:44-07:00*%
%TF.ProjectId,business_card,62757369-6e65-4737-935f-636172642e6b,rev?*%
%TF.SameCoordinates,Original*%
%TF.FileFunction,Soldermask,Top*%
%TF.FilePolarity,Negative*%
%FSLAX46Y46*%
G04 Gerber Fmt 4.6, Leading zero omitted, Abs format (unit mm)*
G04 Created by KiCad (PCBNEW 8.0.9-8.0.9-0~ubuntu24.04.1) date 2025-10-22 00:16:44*
%MOMM*%
%LPD*%
G01*
G04 APERTURE LIST*
%ADD10C,0.000000*%
%ADD11C,2.000000*%
%ADD12R,1.000000X1.000000*%
%ADD13R,1.600000X0.550000*%
%ADD14R,0.550000X1.600000*%
%ADD15C,3.000000*%
G04 APERTURE END LIST*
D10*
%TO.C,TP141*%
G36*
X189693168Y-68743539D02*
G01*
X189752723Y-68818694D01*
X189764011Y-68839677D01*
X189797165Y-68974463D01*
X189769080Y-69115408D01*
X189691322Y-69235394D01*
X189614684Y-69294431D01*
X189517753Y-69316715D01*
X189381665Y-69305600D01*
X189339254Y-69297984D01*
X189269623Y-69256543D01*
X189240351Y-69177366D01*
X189246902Y-69075390D01*
X189284742Y-68965553D01*
X189349335Y-68862793D01*
X189436146Y-68782047D01*
X189506528Y-68747011D01*
X189618074Y-68722154D01*
X189693168Y-68743539D01*
G37*
G36*
X165666014Y-75524354D02*
G01*
X165773549Y-75598269D01*
X165845252Y-75702931D01*
X165872812Y-75823180D01*
X165847917Y-75943858D01*
X165809400Y-76004270D01*
X165731491Y-76058373D01*
X165612918Y-76100999D01*
X165482060Y-76125490D01*
X165367295Y-76125192D01*
X165331502Y-76116365D01*
X165261736Y-76067264D01*
X165230052Y-75979408D01*
X165233190Y-75842208D01*
X165237347Y-75810435D01*
X165283226Y-75648590D01*
X165366451Y-75544870D01*
X165487354Y-75498920D01*
X165530956Y-75496347D01*
X165666014Y-75524354D01*
G37*
G36*
X179546739Y-82847009D02*
G01*
X179591934Y-82907566D01*
X179606450Y-83014827D01*
X179606706Y-83038320D01*
X179599073Y-83138110D01*
X179565836Y-83209156D01*
X179491489Y-83282147D01*
X179477704Y-83293619D01*
X179361102Y-83372153D01*
X179258413Y-83394290D01*
X179148137Y-83363096D01*
X179113586Y-83345555D01*
X179049479Y-83298017D01*
X179022646Y-83231379D01*
X179018422Y-83155396D01*
X179035233Y-83009527D01*
X179091914Y-82913136D01*
X179197835Y-82856122D01*
X179317647Y-82832837D01*
X179459199Y-82824864D01*
X179546739Y-82847009D01*
G37*
G36*
X156622241Y-75498807D02*
G01*
X156697838Y-75509976D01*
X156741731Y-75535538D01*
X156772065Y-75580098D01*
X156797590Y-75687737D01*
X156786817Y-75828237D01*
X156741987Y-75976971D01*
X156734408Y-75994241D01*
X156668489Y-76080377D01*
X156564370Y-76155376D01*
X156440052Y-76212888D01*
X156313534Y-76246561D01*
X156202818Y-76250043D01*
X156125904Y-76216985D01*
X156120332Y-76210908D01*
X156076195Y-76115366D01*
X156057463Y-75984109D01*
X156065444Y-75846298D01*
X156099016Y-75735762D01*
X156166874Y-75614242D01*
X156231870Y-75542515D01*
X156315395Y-75507683D01*
X156438843Y-75496854D01*
X156496219Y-75496347D01*
X156622241Y-75498807D01*
G37*
G36*
X164299191Y-67046244D02*
G01*
X164299638Y-67046687D01*
X164313313Y-67073461D01*
X164324668Y-67128097D01*
X164334027Y-67216891D01*
X164341711Y-67346136D01*
X164348043Y-67522128D01*
X164353345Y-67751163D01*
X164357940Y-68039536D01*
X164360359Y-68232206D01*
X164364378Y-68547308D01*
X164368572Y-68800192D01*
X164373347Y-68997848D01*
X164379112Y-69147267D01*
X164386271Y-69255440D01*
X164395233Y-69329357D01*
X164406404Y-69376010D01*
X164420190Y-69402389D01*
X164428931Y-69410714D01*
X164477081Y-69483110D01*
X164479389Y-69579834D01*
X164444270Y-69682249D01*
X164380142Y-69771718D01*
X164295421Y-69829605D01*
X164234396Y-69841472D01*
X164146594Y-69820207D01*
X164113664Y-69780913D01*
X164081637Y-69713877D01*
X164029293Y-69621275D01*
X164012282Y-69593407D01*
X163983772Y-69543410D01*
X163962874Y-69490928D01*
X163948252Y-69424375D01*
X163938570Y-69332164D01*
X163932491Y-69202710D01*
X163928679Y-69024426D01*
X163926478Y-68849401D01*
X163922939Y-68425997D01*
X163922403Y-68068547D01*
X163924960Y-67773859D01*
X163930697Y-67538740D01*
X163939704Y-67359996D01*
X163952069Y-67234434D01*
X163967881Y-67158861D01*
X163973812Y-67144463D01*
X164037868Y-67074506D01*
X164130776Y-67029618D01*
X164226548Y-67017597D01*
X164299191Y-67046244D01*
G37*
G36*
X157369290Y-67207494D02*
G01*
X157375439Y-67215581D01*
X157409902Y-67303577D01*
X157443217Y-67446655D01*
X157473631Y-67630688D01*
X157499393Y-67841552D01*
X157518749Y-68065119D01*
X157529949Y-68287264D01*
X157531602Y-68474578D01*
X157529595Y-68631402D01*
X157528419Y-68783874D01*
X157528309Y-68900735D01*
X157528349Y-68907139D01*
X157529894Y-69141236D01*
X157530119Y-69316020D01*
X157528146Y-69441386D01*
X157523099Y-69527231D01*
X157514099Y-69583448D01*
X157500269Y-69619935D01*
X157480732Y-69646586D01*
X157460959Y-69666917D01*
X157364617Y-69728874D01*
X157270401Y-69722094D01*
X157199086Y-69667556D01*
X157170388Y-69618493D01*
X157145787Y-69534991D01*
X157124104Y-69409355D01*
X157104159Y-69233891D01*
X157084772Y-69000903D01*
X157074571Y-68855232D01*
X157078161Y-68805131D01*
X157089808Y-68708398D01*
X157105464Y-68596527D01*
X157118802Y-68463278D01*
X157119867Y-68343795D01*
X157110946Y-68275765D01*
X157099771Y-68205092D01*
X157089272Y-68081909D01*
X157080560Y-67922915D01*
X157074747Y-67744809D01*
X157074349Y-67725652D01*
X157071562Y-67538719D01*
X157072705Y-67408774D01*
X157079144Y-67323642D01*
X157092247Y-67271149D01*
X157113384Y-67239121D01*
X157130646Y-67224549D01*
X157216471Y-67186036D01*
X157305739Y-67179996D01*
X157369290Y-67207494D01*
G37*
G36*
X165708448Y-76677572D02*
G01*
X165730233Y-76695808D01*
X165745829Y-76731124D01*
X165756167Y-76793584D01*
X165762175Y-76893258D01*
X165764784Y-77040212D01*
X165764922Y-77244513D01*
X165764760Y-77287399D01*
X165764189Y-77489293D01*
X165764177Y-77674476D01*
X165764686Y-77828577D01*
X165765680Y-77937225D01*
X165766571Y-77976777D01*
X165795722Y-78099656D01*
X165868963Y-78170816D01*
X165982058Y-78186537D01*
X166002362Y-78183858D01*
X166120063Y-78194314D01*
X166206966Y-78260550D01*
X166251698Y-78371920D01*
X166255287Y-78420615D01*
X166243967Y-78497360D01*
X166198721Y-78554272D01*
X166120807Y-78604417D01*
X165984407Y-78656790D01*
X165829669Y-78679650D01*
X165681030Y-78672399D01*
X165562927Y-78634438D01*
X165539221Y-78618670D01*
X165483248Y-78545748D01*
X165434972Y-78432870D01*
X165421761Y-78385857D01*
X165392385Y-78279044D01*
X165363672Y-78198879D01*
X165351109Y-78175337D01*
X165337669Y-78124128D01*
X165327302Y-78018925D01*
X165320379Y-77874890D01*
X165317274Y-77707185D01*
X165318360Y-77530974D01*
X165324009Y-77361419D01*
X165329050Y-77278500D01*
X165338644Y-77141463D01*
X165346998Y-77012516D01*
X165350656Y-76949753D01*
X165382779Y-76817522D01*
X165454505Y-76718092D01*
X165552030Y-76661964D01*
X165661547Y-76659641D01*
X165708448Y-76677572D01*
G37*
G36*
X167127587Y-85371690D02*
G01*
X167198658Y-85422124D01*
X167235593Y-85478871D01*
X167236067Y-85482154D01*
X167254295Y-85644970D01*
X167270882Y-85762391D01*
X167289623Y-85858016D01*
X167309047Y-85935920D01*
X167324881Y-86032179D01*
X167337745Y-86181572D01*
X167347177Y-86368068D01*
X167352712Y-86575635D01*
X167353890Y-86788244D01*
X167350246Y-86989863D01*
X167343575Y-87132066D01*
X167344457Y-87248876D01*
X167356746Y-87404374D01*
X167377949Y-87569449D01*
X167384431Y-87609269D01*
X167406053Y-87763913D01*
X167417942Y-87908388D01*
X167418295Y-88017793D01*
X167415734Y-88040974D01*
X167373307Y-88160179D01*
X167299477Y-88244641D01*
X167209202Y-88286509D01*
X167117438Y-88277931D01*
X167054108Y-88230772D01*
X167023566Y-88168008D01*
X166991238Y-88058887D01*
X166963616Y-87925766D01*
X166961153Y-87910677D01*
X166936276Y-87755188D01*
X166911182Y-87600572D01*
X166891997Y-87484472D01*
X166883721Y-87377426D01*
X166883958Y-87217007D01*
X166892363Y-87018486D01*
X166907035Y-86815091D01*
X166923871Y-86581515D01*
X166930779Y-86394253D01*
X166927604Y-86261404D01*
X166918812Y-86203377D01*
X166904661Y-86119007D01*
X166894133Y-85988966D01*
X166888913Y-85836763D01*
X166888652Y-85782703D01*
X166895283Y-85594841D01*
X166915833Y-85466646D01*
X166953620Y-85389393D01*
X167011964Y-85354354D01*
X167053267Y-85349914D01*
X167127587Y-85371690D01*
G37*
G36*
X172954654Y-86405605D02*
G01*
X172978014Y-86412495D01*
X173097195Y-86441076D01*
X173227386Y-86455439D01*
X173240839Y-86455752D01*
X173369163Y-86479199D01*
X173458975Y-86539995D01*
X173496700Y-86628423D01*
X173497088Y-86639199D01*
X173520124Y-86707337D01*
X173551695Y-86749168D01*
X173586671Y-86827661D01*
X173578765Y-86928727D01*
X173532360Y-87024380D01*
X173503778Y-87055053D01*
X173476228Y-87076548D01*
X173441651Y-87094278D01*
X173389156Y-87110747D01*
X173307853Y-87128456D01*
X173186852Y-87149907D01*
X173015264Y-87177602D01*
X172874199Y-87199709D01*
X172715603Y-87224581D01*
X172611262Y-87240061D01*
X172546923Y-87246577D01*
X172508333Y-87244556D01*
X172481237Y-87234428D01*
X172451382Y-87216620D01*
X172444588Y-87212616D01*
X172365985Y-87193458D01*
X172220771Y-87188137D01*
X172026090Y-87195706D01*
X171866510Y-87204726D01*
X171760476Y-87206776D01*
X171692480Y-87199492D01*
X171647011Y-87180509D01*
X171608560Y-87147464D01*
X171591365Y-87129455D01*
X171525202Y-87011033D01*
X171510897Y-86862003D01*
X171549591Y-86698851D01*
X171559874Y-86674542D01*
X171601164Y-86605764D01*
X171661910Y-86560088D01*
X171759420Y-86528611D01*
X171887960Y-86505801D01*
X171958578Y-86493630D01*
X172069563Y-86472819D01*
X172164799Y-86454217D01*
X172408733Y-86413501D01*
X172630788Y-86391361D01*
X172817313Y-86388495D01*
X172954654Y-86405605D01*
G37*
G36*
X156280124Y-76600455D02*
G01*
X156339799Y-76626225D01*
X156375359Y-76676447D01*
X156399695Y-76771496D01*
X156404133Y-76796413D01*
X156415452Y-76946430D01*
X156408120Y-77137699D01*
X156395047Y-77261197D01*
X156375149Y-77448188D01*
X156359747Y-77657133D01*
X156352137Y-77843197D01*
X156352103Y-77845301D01*
X156351455Y-77989320D01*
X156357513Y-78081330D01*
X156374088Y-78138470D01*
X156404992Y-78177883D01*
X156430801Y-78199232D01*
X156552224Y-78256644D01*
X156686014Y-78248413D01*
X156774807Y-78212178D01*
X156850254Y-78180578D01*
X156915927Y-78181403D01*
X157002431Y-78212255D01*
X157080604Y-78249089D01*
X157113091Y-78288781D01*
X157113284Y-78357337D01*
X157105248Y-78411888D01*
X157058607Y-78561582D01*
X156968923Y-78664110D01*
X156828568Y-78726250D01*
X156730109Y-78745251D01*
X156545774Y-78753493D01*
X156372479Y-78720072D01*
X156362741Y-78717079D01*
X156210428Y-78644191D01*
X156086265Y-78524509D01*
X155979306Y-78347276D01*
X155972899Y-78333949D01*
X155949275Y-78247632D01*
X155931169Y-78112042D01*
X155919207Y-77946945D01*
X155914012Y-77772105D01*
X155916210Y-77607286D01*
X155926424Y-77472252D01*
X155943136Y-77392123D01*
X155966163Y-77303676D01*
X155989135Y-77171501D01*
X156007806Y-77020951D01*
X156010981Y-76987120D01*
X156036406Y-76800304D01*
X156076877Y-76675846D01*
X156136567Y-76607753D01*
X156219645Y-76590032D01*
X156280124Y-76600455D01*
G37*
G36*
X174832732Y-85511765D02*
G01*
X174943075Y-85513153D01*
X175130455Y-85516630D01*
X175332899Y-85521574D01*
X175537281Y-85527530D01*
X175730476Y-85534042D01*
X175899358Y-85540655D01*
X176030799Y-85546911D01*
X176111675Y-85552355D01*
X176127388Y-85554287D01*
X176157405Y-85582649D01*
X176186598Y-85624124D01*
X176201954Y-85665732D01*
X176203304Y-85728812D01*
X176189096Y-85825677D01*
X176157780Y-85968636D01*
X176127728Y-86091259D01*
X176070590Y-86349108D01*
X176014832Y-86655672D01*
X175963403Y-86990472D01*
X175919253Y-87333032D01*
X175885333Y-87662873D01*
X175868194Y-87892721D01*
X175851540Y-88097629D01*
X175826609Y-88241165D01*
X175788554Y-88331083D01*
X175732529Y-88375136D01*
X175653687Y-88381078D01*
X175573382Y-88364284D01*
X175496332Y-88310549D01*
X175441760Y-88212049D01*
X175417753Y-88091715D01*
X175432397Y-87972479D01*
X175433783Y-87968395D01*
X175452897Y-87878631D01*
X175465881Y-87750813D01*
X175469567Y-87641314D01*
X175475522Y-87477465D01*
X175490784Y-87300796D01*
X175503462Y-87205266D01*
X175522521Y-87081179D01*
X175547187Y-86913434D01*
X175573834Y-86726964D01*
X175592129Y-86595690D01*
X175615899Y-86425234D01*
X175638191Y-86269352D01*
X175656244Y-86147118D01*
X175666043Y-86084822D01*
X175673703Y-86009807D01*
X175656828Y-85986925D01*
X175628842Y-85993530D01*
X175557575Y-85994138D01*
X175529685Y-85979649D01*
X175479949Y-85965849D01*
X175374713Y-85954048D01*
X175227678Y-85945317D01*
X175052548Y-85940727D01*
X175028823Y-85940494D01*
X174850401Y-85936774D01*
X174690866Y-85929226D01*
X174566242Y-85918897D01*
X174492550Y-85906835D01*
X174487188Y-85905060D01*
X174409690Y-85841592D01*
X174361745Y-85746459D01*
X174338297Y-85656804D01*
X174346285Y-85601427D01*
X174376887Y-85562637D01*
X174408759Y-85540102D01*
X174459001Y-85524732D01*
X174538892Y-85515544D01*
X174659710Y-85511550D01*
X174832732Y-85511765D01*
G37*
G36*
X179871126Y-75127597D02*
G01*
X179888417Y-75132614D01*
X179946798Y-75183369D01*
X179979366Y-75291798D01*
X179986411Y-75460121D01*
X179968220Y-75690555D01*
X179964749Y-75719318D01*
X179945593Y-75896571D01*
X179926899Y-76108536D01*
X179911575Y-76320757D01*
X179906228Y-76413377D01*
X179888884Y-76683026D01*
X179866474Y-76927955D01*
X179840322Y-77138378D01*
X179811750Y-77304509D01*
X179782081Y-77416562D01*
X179765908Y-77451391D01*
X179741158Y-77527631D01*
X179726333Y-77650144D01*
X179721763Y-77796661D01*
X179727777Y-77944912D01*
X179744705Y-78072628D01*
X179756034Y-78117669D01*
X179791172Y-78230135D01*
X180073978Y-78230645D01*
X180264922Y-78237446D01*
X180397379Y-78260025D01*
X180481142Y-78302851D01*
X180526006Y-78370395D01*
X180540330Y-78443524D01*
X180537423Y-78538126D01*
X180497292Y-78602662D01*
X180447813Y-78642178D01*
X180384825Y-78679454D01*
X180313040Y-78700673D01*
X180212671Y-78709170D01*
X180063931Y-78708278D01*
X180056639Y-78708092D01*
X179909251Y-78703066D01*
X179777694Y-78696448D01*
X179685929Y-78689494D01*
X179673104Y-78687997D01*
X179592184Y-78652308D01*
X179503994Y-78577516D01*
X179425658Y-78483583D01*
X179374303Y-78390468D01*
X179364419Y-78328212D01*
X179353641Y-78246078D01*
X179333251Y-78209592D01*
X179305092Y-78136768D01*
X179288856Y-78010158D01*
X179284482Y-77844142D01*
X179291908Y-77653096D01*
X179311073Y-77451401D01*
X179337239Y-77278500D01*
X179377062Y-77058131D01*
X179406225Y-76893095D01*
X179426701Y-76770678D01*
X179440462Y-76678166D01*
X179449480Y-76602846D01*
X179455728Y-76532002D01*
X179458045Y-76499890D01*
X179468546Y-76381389D01*
X179485708Y-76223161D01*
X179507261Y-76042840D01*
X179530933Y-75858059D01*
X179554455Y-75686454D01*
X179575555Y-75545660D01*
X179591963Y-75453310D01*
X179593946Y-75444440D01*
X179644151Y-75276238D01*
X179703383Y-75171281D01*
X179777191Y-75123693D01*
X179871126Y-75127597D01*
G37*
G36*
X167346096Y-75387083D02*
G01*
X167377191Y-75404848D01*
X167443568Y-75476586D01*
X167484102Y-75573122D01*
X167490625Y-75666953D01*
X167469937Y-75717087D01*
X167453098Y-75771426D01*
X167440432Y-75877377D01*
X167432186Y-76017453D01*
X167428609Y-76174168D01*
X167429949Y-76330036D01*
X167436454Y-76467571D01*
X167448373Y-76569285D01*
X167457356Y-76603704D01*
X167469545Y-76673338D01*
X167476437Y-76796436D01*
X167477555Y-76957421D01*
X167473193Y-77122778D01*
X167464585Y-77340710D01*
X167459567Y-77504052D01*
X167458407Y-77627342D01*
X167461376Y-77725120D01*
X167468741Y-77811926D01*
X167480771Y-77902297D01*
X167488536Y-77952834D01*
X167520599Y-78082917D01*
X167571114Y-78149364D01*
X167648644Y-78157041D01*
X167761753Y-78110812D01*
X167764256Y-78109469D01*
X167874443Y-78050129D01*
X167981895Y-78162567D01*
X168054722Y-78256970D01*
X168088520Y-78340276D01*
X168078360Y-78397348D01*
X168062143Y-78408927D01*
X168026406Y-78442434D01*
X167971507Y-78511300D01*
X167955972Y-78532928D01*
X167879492Y-78615480D01*
X167794845Y-78644694D01*
X167775546Y-78645394D01*
X167678701Y-78666525D01*
X167611219Y-78708262D01*
X167557785Y-78747998D01*
X167496112Y-78750246D01*
X167430302Y-78731384D01*
X167324566Y-78663827D01*
X167225538Y-78542856D01*
X167143192Y-78384192D01*
X167087504Y-78203553D01*
X167083906Y-78185519D01*
X167058015Y-78076533D01*
X167028918Y-77993211D01*
X167014925Y-77968586D01*
X167001770Y-77916965D01*
X166992014Y-77800820D01*
X166985848Y-77624762D01*
X166983463Y-77393401D01*
X166983988Y-77221148D01*
X166985233Y-77000524D01*
X166985686Y-76797638D01*
X166985376Y-76624880D01*
X166984328Y-76494640D01*
X166982570Y-76419309D01*
X166982238Y-76413377D01*
X166982566Y-76284891D01*
X166994737Y-76112831D01*
X167015855Y-75921245D01*
X167043023Y-75734181D01*
X167073346Y-75575689D01*
X167091645Y-75504983D01*
X167149884Y-75406478D01*
X167239225Y-75365591D01*
X167346096Y-75387083D01*
G37*
G36*
X186505584Y-81418037D02*
G01*
X186578303Y-81489704D01*
X186608463Y-81610911D01*
X186608855Y-81644592D01*
X186600823Y-81907186D01*
X186589676Y-82113637D01*
X186573281Y-82277007D01*
X186549508Y-82410355D01*
X186516225Y-82526744D01*
X186471301Y-82639233D01*
X186433479Y-82719222D01*
X186354345Y-82861739D01*
X186255481Y-83013758D01*
X186147368Y-83161820D01*
X186040489Y-83292465D01*
X185945326Y-83392234D01*
X185872360Y-83447667D01*
X185863090Y-83451651D01*
X185739551Y-83485306D01*
X185612078Y-83503235D01*
X185502567Y-83504007D01*
X185432919Y-83486192D01*
X185425668Y-83480238D01*
X185358134Y-83443080D01*
X185304871Y-83434558D01*
X185229877Y-83407816D01*
X185139662Y-83340561D01*
X185053555Y-83252247D01*
X184990884Y-83162332D01*
X184970466Y-83097954D01*
X184958032Y-83009050D01*
X184934887Y-82930226D01*
X184920315Y-82855756D01*
X184909194Y-82728710D01*
X184901763Y-82565649D01*
X184898256Y-82383130D01*
X184898911Y-82197713D01*
X184903963Y-82025958D01*
X184913650Y-81884424D01*
X184919287Y-81837063D01*
X184958004Y-81692838D01*
X185019338Y-81597560D01*
X185092943Y-81554405D01*
X185168476Y-81566551D01*
X185235595Y-81637177D01*
X185273550Y-81728226D01*
X185290866Y-81833450D01*
X185297644Y-81973113D01*
X185293834Y-82115489D01*
X185279391Y-82228850D01*
X185274319Y-82248272D01*
X185275459Y-82292070D01*
X185285227Y-82388202D01*
X185301839Y-82520582D01*
X185315114Y-82616037D01*
X185339266Y-82773534D01*
X185360375Y-82876038D01*
X185383370Y-82937304D01*
X185413182Y-82971086D01*
X185448740Y-82988918D01*
X185560582Y-82996556D01*
X185687525Y-82948507D01*
X185816647Y-82852366D01*
X185935024Y-82715727D01*
X185949470Y-82694604D01*
X186060840Y-82497480D01*
X186123403Y-82303985D01*
X186146241Y-82083794D01*
X186146840Y-82035517D01*
X186160434Y-81840101D01*
X186197697Y-81666954D01*
X186253918Y-81528086D01*
X186324387Y-81435502D01*
X186395429Y-81401744D01*
X186505584Y-81418037D01*
G37*
G36*
X174283624Y-76601997D02*
G01*
X174360014Y-76643808D01*
X174408799Y-76738038D01*
X174422574Y-76843901D01*
X174432963Y-76964776D01*
X174466773Y-77025732D01*
X174529945Y-77033817D01*
X174571986Y-77021161D01*
X174638714Y-76985777D01*
X174664278Y-76953863D01*
X174694724Y-76923728D01*
X174772059Y-76887290D01*
X174875278Y-76851683D01*
X174983376Y-76824037D01*
X175075349Y-76811487D01*
X175084013Y-76811334D01*
X175170799Y-76802578D01*
X175292145Y-76780048D01*
X175379261Y-76759426D01*
X175566652Y-76718747D01*
X175705730Y-76709915D01*
X175810116Y-76733891D01*
X175893433Y-76791633D01*
X175897817Y-76795950D01*
X175956736Y-76869024D01*
X175971546Y-76943930D01*
X175962761Y-77012230D01*
X175936977Y-77114569D01*
X175895242Y-77174201D01*
X175820645Y-77202909D01*
X175696273Y-77212479D01*
X175674726Y-77212948D01*
X175535530Y-77221746D01*
X175370663Y-77241419D01*
X175199740Y-77268550D01*
X175042378Y-77299721D01*
X174918193Y-77331516D01*
X174854605Y-77355803D01*
X174766113Y-77416310D01*
X174699158Y-77495633D01*
X174651240Y-77602997D01*
X174619856Y-77747626D01*
X174602506Y-77938747D01*
X174596687Y-78185586D01*
X174597060Y-78305709D01*
X174596185Y-78456838D01*
X174588306Y-78555952D01*
X174570258Y-78620137D01*
X174538875Y-78666481D01*
X174528146Y-78677711D01*
X174434192Y-78739741D01*
X174344434Y-78732890D01*
X174257756Y-78657015D01*
X174246286Y-78641555D01*
X174199866Y-78557672D01*
X174176487Y-78457195D01*
X174170220Y-78314440D01*
X174170225Y-78312072D01*
X174166156Y-78194767D01*
X174154949Y-78107582D01*
X174140583Y-78071556D01*
X174124602Y-78027741D01*
X174130458Y-77972735D01*
X174133161Y-77897756D01*
X174120035Y-77782963D01*
X174098103Y-77672062D01*
X174069664Y-77526401D01*
X174043550Y-77347771D01*
X174024974Y-77172356D01*
X174023649Y-77155277D01*
X174014945Y-76995501D01*
X174018393Y-76883214D01*
X174035916Y-76797451D01*
X174062541Y-76731366D01*
X174119993Y-76638961D01*
X174189647Y-76600962D01*
X174283624Y-76601997D01*
G37*
G36*
X155334367Y-76387018D02*
G01*
X155410161Y-76411423D01*
X155465098Y-76457682D01*
X155502200Y-76535384D01*
X155524483Y-76654117D01*
X155534967Y-76823469D01*
X155536797Y-77030001D01*
X155524381Y-77334969D01*
X155490963Y-77593984D01*
X155437879Y-77801069D01*
X155366468Y-77950243D01*
X155318345Y-78006825D01*
X155266755Y-78074644D01*
X155250927Y-78126854D01*
X155232339Y-78190690D01*
X155185727Y-78280125D01*
X155164415Y-78313355D01*
X155111760Y-78397293D01*
X155081094Y-78458460D01*
X155077902Y-78471366D01*
X155050155Y-78503237D01*
X154977943Y-78555605D01*
X154892014Y-78608249D01*
X154689504Y-78691993D01*
X154490231Y-78713084D01*
X154304219Y-78670954D01*
X154250404Y-78644737D01*
X154107363Y-78548659D01*
X153993442Y-78440792D01*
X153921038Y-78334800D01*
X153901336Y-78259994D01*
X153891533Y-78183786D01*
X153871410Y-78146514D01*
X153859552Y-78107267D01*
X153846552Y-78011209D01*
X153833637Y-77870701D01*
X153822034Y-77698102D01*
X153816753Y-77596050D01*
X153808151Y-77307119D01*
X153813314Y-77080433D01*
X153833788Y-76910119D01*
X153871116Y-76790299D01*
X153926844Y-76715097D01*
X154002516Y-76678639D01*
X154059435Y-76672914D01*
X154136826Y-76691603D01*
X154171478Y-76716752D01*
X154185723Y-76764469D01*
X154202207Y-76868935D01*
X154219451Y-77017790D01*
X154235975Y-77198673D01*
X154247032Y-77348291D01*
X154260870Y-77547433D01*
X154274341Y-77726129D01*
X154286381Y-77871340D01*
X154295925Y-77970030D01*
X154300703Y-78005203D01*
X154342349Y-78072855D01*
X154423502Y-78140412D01*
X154517311Y-78190127D01*
X154596923Y-78204254D01*
X154600822Y-78203548D01*
X154657649Y-78165787D01*
X154734327Y-78080714D01*
X154819992Y-77963038D01*
X154903784Y-77827468D01*
X154964518Y-77711061D01*
X155042654Y-77490637D01*
X155092788Y-77232471D01*
X155111423Y-76963549D01*
X155095061Y-76710857D01*
X155094561Y-76707519D01*
X155084878Y-76602265D01*
X155101461Y-76531827D01*
X155152217Y-76464294D01*
X155155775Y-76460442D01*
X155235257Y-76395928D01*
X155316360Y-76384193D01*
X155334367Y-76387018D01*
G37*
G36*
X154665743Y-85023966D02*
G01*
X154715276Y-85052036D01*
X154765043Y-85129135D01*
X154766106Y-85235352D01*
X154722346Y-85354812D01*
X154637648Y-85471640D01*
X154604738Y-85503891D01*
X154507549Y-85627862D01*
X154419736Y-85809802D01*
X154344128Y-86038782D01*
X154283556Y-86303871D01*
X154240850Y-86594140D01*
X154218841Y-86898658D01*
X154216580Y-87002845D01*
X154214874Y-87265557D01*
X154215249Y-87468053D01*
X154218443Y-87619316D01*
X154225198Y-87728327D01*
X154236254Y-87804067D01*
X154252349Y-87855518D01*
X154274224Y-87891663D01*
X154291366Y-87910677D01*
X154341773Y-87967866D01*
X154360576Y-88001313D01*
X154377413Y-88039311D01*
X154421750Y-88119306D01*
X154484326Y-88224656D01*
X154490344Y-88234499D01*
X154602659Y-88427532D01*
X154673223Y-88575005D01*
X154704121Y-88684915D01*
X154697441Y-88765259D01*
X154655268Y-88824035D01*
X154646066Y-88831442D01*
X154569333Y-88862662D01*
X154463987Y-88877019D01*
X154363430Y-88872368D01*
X154308337Y-88853130D01*
X154271461Y-88808352D01*
X154221463Y-88727081D01*
X154204522Y-88695766D01*
X154146431Y-88598642D01*
X154087882Y-88521640D01*
X154075085Y-88508727D01*
X154027515Y-88451979D01*
X154014526Y-88418460D01*
X153993959Y-88365520D01*
X153967519Y-88328660D01*
X153912569Y-88236101D01*
X153861528Y-88100943D01*
X153823871Y-87949573D01*
X153817421Y-87910677D01*
X153796787Y-87817732D01*
X153770265Y-87753652D01*
X153767759Y-87750279D01*
X153750967Y-87691641D01*
X153740400Y-87565816D01*
X153736079Y-87374549D01*
X153738029Y-87119586D01*
X153746271Y-86802671D01*
X153752990Y-86615537D01*
X153762847Y-86407331D01*
X153775088Y-86254579D01*
X153791683Y-86143530D01*
X153814605Y-86060430D01*
X153841191Y-86000235D01*
X153885337Y-85896134D01*
X153909288Y-85801897D01*
X153910712Y-85782110D01*
X153922415Y-85699941D01*
X153951692Y-85600299D01*
X153989795Y-85505598D01*
X154027975Y-85438250D01*
X154052398Y-85419123D01*
X154087706Y-85392660D01*
X154143124Y-85325424D01*
X154174378Y-85280670D01*
X154289734Y-85143207D01*
X154418029Y-85051242D01*
X154547340Y-85009815D01*
X154665743Y-85023966D01*
G37*
G36*
X161937818Y-84910795D02*
G01*
X162022246Y-84947040D01*
X162083640Y-85019429D01*
X162089250Y-85028847D01*
X162144983Y-85119901D01*
X162212029Y-85223029D01*
X162277863Y-85319756D01*
X162329963Y-85391606D01*
X162353813Y-85419123D01*
X162380129Y-85460852D01*
X162412884Y-85539833D01*
X162416616Y-85550516D01*
X162466544Y-85660481D01*
X162526099Y-85754161D01*
X162576067Y-85839926D01*
X162596543Y-85918640D01*
X162610540Y-85994063D01*
X162629258Y-86026439D01*
X162649791Y-86083453D01*
X162661642Y-86194829D01*
X162665054Y-86346299D01*
X162660270Y-86523595D01*
X162647533Y-86712446D01*
X162627085Y-86898584D01*
X162612806Y-86993647D01*
X162588061Y-87147570D01*
X162568416Y-87281506D01*
X162556471Y-87377054D01*
X162554075Y-87408905D01*
X162533081Y-87562281D01*
X162471986Y-87757844D01*
X162369135Y-88000610D01*
X162334684Y-88073464D01*
X162269857Y-88213966D01*
X162218587Y-88336317D01*
X162187511Y-88424026D01*
X162181284Y-88454580D01*
X162163564Y-88511760D01*
X162118466Y-88599509D01*
X162058084Y-88698978D01*
X161994512Y-88791316D01*
X161939844Y-88857675D01*
X161908578Y-88879614D01*
X161866388Y-88858117D01*
X161800002Y-88805318D01*
X161788381Y-88794754D01*
X161715406Y-88685748D01*
X161692288Y-88538257D01*
X161719159Y-88349494D01*
X161796150Y-88116670D01*
X161823559Y-88050520D01*
X161888356Y-87906877D01*
X161952563Y-87777074D01*
X162005591Y-87682099D01*
X162021196Y-87658706D01*
X162077680Y-87532332D01*
X162085687Y-87416471D01*
X162090080Y-87310854D01*
X162107587Y-87166908D01*
X162134588Y-87013463D01*
X162138752Y-86993647D01*
X162185457Y-86685506D01*
X162192099Y-86393685D01*
X162159284Y-86132241D01*
X162092960Y-85926659D01*
X162037881Y-85819080D01*
X161986159Y-85739263D01*
X161953047Y-85707208D01*
X161914961Y-85664731D01*
X161877251Y-85580501D01*
X161866758Y-85546097D01*
X161822534Y-85435756D01*
X161761676Y-85343112D01*
X161747538Y-85328483D01*
X161685064Y-85239135D01*
X161642866Y-85121195D01*
X161629988Y-85006311D01*
X161640020Y-84952218D01*
X161688801Y-84913859D01*
X161798378Y-84900600D01*
X161808195Y-84900580D01*
X161937818Y-84910795D01*
G37*
G36*
X178514218Y-81314724D02*
G01*
X178600629Y-81358378D01*
X178661801Y-81454005D01*
X178699015Y-81605640D01*
X178713550Y-81817318D01*
X178712848Y-81941333D01*
X178707485Y-82109849D01*
X178697446Y-82231557D01*
X178677638Y-82328861D01*
X178642967Y-82424162D01*
X178588340Y-82539861D01*
X178567128Y-82582237D01*
X178505270Y-82710782D01*
X178457941Y-82819738D01*
X178432521Y-82891667D01*
X178430139Y-82905934D01*
X178405304Y-82959643D01*
X178340789Y-83039750D01*
X178251577Y-83132209D01*
X178152652Y-83222977D01*
X178058998Y-83298007D01*
X177985598Y-83343254D01*
X177956276Y-83350113D01*
X177879099Y-83361186D01*
X177825505Y-83387493D01*
X177756175Y-83423138D01*
X177681325Y-83427569D01*
X177579209Y-83399730D01*
X177507908Y-83372066D01*
X177343755Y-83285423D01*
X177235528Y-83184606D01*
X177199132Y-83115134D01*
X177157870Y-83037781D01*
X177111736Y-82981278D01*
X177061039Y-82900495D01*
X177045943Y-82832928D01*
X177029789Y-82742143D01*
X176994249Y-82651252D01*
X176955148Y-82521253D01*
X176945322Y-82353247D01*
X176965342Y-82172206D01*
X176981687Y-82102270D01*
X177005770Y-81990940D01*
X177028622Y-81847034D01*
X177041420Y-81738918D01*
X177063245Y-81513986D01*
X177208392Y-81503439D01*
X177300564Y-81500430D01*
X177346284Y-81518654D01*
X177367944Y-81572208D01*
X177375222Y-81608468D01*
X177383767Y-81685938D01*
X177391720Y-81815637D01*
X177398275Y-81980587D01*
X177402628Y-82163806D01*
X177403099Y-82196161D01*
X177406689Y-82390240D01*
X177412740Y-82528385D01*
X177423089Y-82623868D01*
X177439574Y-82689962D01*
X177464031Y-82739939D01*
X177481964Y-82765928D01*
X177553876Y-82836352D01*
X177649514Y-82868675D01*
X177701556Y-82874380D01*
X177791777Y-82875446D01*
X177858770Y-82854440D01*
X177928222Y-82799403D01*
X177983673Y-82743064D01*
X178077343Y-82631658D01*
X178162186Y-82509610D01*
X178193176Y-82455422D01*
X178246252Y-82304380D01*
X178278557Y-82115346D01*
X178287254Y-81917172D01*
X178269508Y-81738711D01*
X178265479Y-81720043D01*
X178255087Y-81576257D01*
X178287377Y-81451658D01*
X178354073Y-81359730D01*
X178446900Y-81313958D01*
X178514218Y-81314724D01*
G37*
G36*
X165764962Y-85497337D02*
G01*
X165817385Y-85520746D01*
X165862053Y-85565434D01*
X165874988Y-85581334D01*
X165918794Y-85659416D01*
X165946247Y-85751810D01*
X165954351Y-85836857D01*
X165940110Y-85892899D01*
X165919577Y-85903592D01*
X165885748Y-85933136D01*
X165836857Y-86009919D01*
X165781571Y-86116163D01*
X165728559Y-86234094D01*
X165686491Y-86345936D01*
X165665522Y-86424546D01*
X165652550Y-86517429D01*
X165637840Y-86652205D01*
X165624322Y-86801714D01*
X165622820Y-86820622D01*
X165588695Y-87221010D01*
X165553711Y-87559422D01*
X165518080Y-87834417D01*
X165482018Y-88044554D01*
X165445737Y-88188394D01*
X165409450Y-88264496D01*
X165408672Y-88265377D01*
X165321181Y-88316548D01*
X165212794Y-88321149D01*
X165112363Y-88280726D01*
X165076926Y-88247616D01*
X165044078Y-88195819D01*
X165028578Y-88131110D01*
X165028004Y-88033684D01*
X165036692Y-87918587D01*
X165054335Y-87778992D01*
X165078648Y-87654722D01*
X165104374Y-87572640D01*
X165104422Y-87572538D01*
X165123889Y-87499167D01*
X165142277Y-87370059D01*
X165158065Y-87198686D01*
X165169725Y-86998518D01*
X165169934Y-86993647D01*
X165182126Y-86789858D01*
X165200000Y-86597131D01*
X165221425Y-86434633D01*
X165244266Y-86321535D01*
X165245023Y-86318851D01*
X165283867Y-86189402D01*
X165308363Y-86098343D01*
X165310022Y-86038850D01*
X165280357Y-86004101D01*
X165210879Y-85987273D01*
X165093098Y-85981544D01*
X164918526Y-85980089D01*
X164822261Y-85979056D01*
X164586790Y-85978112D01*
X164403386Y-85983723D01*
X164255110Y-85997121D01*
X164125023Y-86019536D01*
X164062527Y-86034250D01*
X163816334Y-86096771D01*
X163725512Y-86005949D01*
X163664826Y-85927502D01*
X163635251Y-85854404D01*
X163634690Y-85846182D01*
X163665610Y-85763726D01*
X163747522Y-85680424D01*
X163864157Y-85611734D01*
X163894227Y-85599612D01*
X163978951Y-85579200D01*
X164116664Y-85557968D01*
X164291182Y-85537380D01*
X164486323Y-85518899D01*
X164685902Y-85503991D01*
X164873738Y-85494119D01*
X165033645Y-85490746D01*
X165088096Y-85491605D01*
X165250224Y-85494273D01*
X165433747Y-85493758D01*
X165555065Y-85491349D01*
X165684337Y-85489455D01*
X165764962Y-85497337D01*
G37*
G36*
X177594935Y-85493622D02*
G01*
X177684605Y-85512601D01*
X177711044Y-85528938D01*
X177763320Y-85550061D01*
X177864674Y-85568999D01*
X177994989Y-85582190D01*
X178020758Y-85583722D01*
X178165783Y-85591403D01*
X178296890Y-85598414D01*
X178387799Y-85603350D01*
X178393682Y-85603676D01*
X178508314Y-85643028D01*
X178580205Y-85706718D01*
X178633267Y-85780591D01*
X178644846Y-85847515D01*
X178626454Y-85931650D01*
X178602706Y-86030795D01*
X178575251Y-86168892D01*
X178549964Y-86316349D01*
X178549574Y-86318851D01*
X178525727Y-86453211D01*
X178500434Y-86566161D01*
X178478767Y-86635363D01*
X178476792Y-86639403D01*
X178456537Y-86705393D01*
X178437012Y-86814310D01*
X178425069Y-86916242D01*
X178399440Y-87113604D01*
X178359045Y-87325203D01*
X178309809Y-87524274D01*
X178257661Y-87684057D01*
X178251779Y-87698622D01*
X178220820Y-87809119D01*
X178203459Y-87940312D01*
X178202204Y-87975461D01*
X178179130Y-88122812D01*
X178118925Y-88228616D01*
X178031541Y-88285586D01*
X177926930Y-88286435D01*
X177837966Y-88242135D01*
X177803716Y-88207730D01*
X177784474Y-88155960D01*
X177777133Y-88069975D01*
X177778582Y-87932925D01*
X177778901Y-87922040D01*
X177790816Y-87750851D01*
X177813995Y-87569206D01*
X177841304Y-87426208D01*
X177876584Y-87275305D01*
X177910923Y-87120800D01*
X177930339Y-87028251D01*
X177981253Y-86776831D01*
X178021229Y-86584859D01*
X178052184Y-86443777D01*
X178076032Y-86345025D01*
X178094688Y-86280047D01*
X178103014Y-86256664D01*
X178134711Y-86146058D01*
X178118982Y-86078162D01*
X178049667Y-86040124D01*
X177993626Y-86028387D01*
X177897159Y-86018950D01*
X177829358Y-86023033D01*
X177819085Y-86026944D01*
X177766955Y-86026007D01*
X177738337Y-86009189D01*
X177669607Y-85979328D01*
X177559984Y-85956468D01*
X177437683Y-85943900D01*
X177330921Y-85944913D01*
X177279900Y-85955735D01*
X177201036Y-85972531D01*
X177104649Y-85974942D01*
X177028322Y-85979845D01*
X176992555Y-86001749D01*
X176992183Y-86004755D01*
X176962153Y-86031028D01*
X176889913Y-86042011D01*
X176889586Y-86042012D01*
X176789785Y-86013528D01*
X176730780Y-85931320D01*
X176715610Y-85828006D01*
X176746370Y-85758091D01*
X176824765Y-85687261D01*
X176930619Y-85628446D01*
X177043756Y-85594578D01*
X177085551Y-85590922D01*
X177191542Y-85572029D01*
X177269022Y-85540241D01*
X177360767Y-85508117D01*
X177478197Y-85492353D01*
X177594935Y-85493622D01*
G37*
G36*
X168984833Y-76531959D02*
G01*
X169075551Y-76618282D01*
X169146456Y-76744033D01*
X169180870Y-76863241D01*
X169206738Y-76965265D01*
X169239671Y-77042843D01*
X169247024Y-77053568D01*
X169283095Y-77119345D01*
X169320611Y-77217611D01*
X169328675Y-77243895D01*
X169348726Y-77308510D01*
X169371992Y-77366422D01*
X169406036Y-77430836D01*
X169458422Y-77514955D01*
X169536711Y-77631984D01*
X169624021Y-77759550D01*
X169709099Y-77879771D01*
X169767759Y-77949547D01*
X169810443Y-77977008D01*
X169847596Y-77970287D01*
X169872178Y-77952732D01*
X169911306Y-77901839D01*
X169964503Y-77811160D01*
X170020316Y-77703290D01*
X170067295Y-77600824D01*
X170093988Y-77526359D01*
X170096431Y-77510241D01*
X170115964Y-77462310D01*
X170160942Y-77395633D01*
X170207053Y-77313229D01*
X170256826Y-77189585D01*
X170301343Y-77051516D01*
X170331686Y-76925841D01*
X170339753Y-76857915D01*
X170370677Y-76786513D01*
X170443839Y-76721794D01*
X170533326Y-76682484D01*
X170586973Y-76679276D01*
X170658527Y-76713727D01*
X170728312Y-76781439D01*
X170729041Y-76782414D01*
X170766893Y-76838507D01*
X170780190Y-76887587D01*
X170769602Y-76953961D01*
X170736688Y-77059253D01*
X170660401Y-77282036D01*
X170572472Y-77521250D01*
X170526390Y-77641851D01*
X170485880Y-77759542D01*
X170448020Y-77888690D01*
X170443852Y-77904813D01*
X170397436Y-78030594D01*
X170331077Y-78151427D01*
X170321993Y-78164349D01*
X170218363Y-78309905D01*
X170151312Y-78415608D01*
X170113654Y-78495221D01*
X170098204Y-78562506D01*
X170096560Y-78596105D01*
X170069109Y-78702597D01*
X169998890Y-78786843D01*
X169903682Y-78840505D01*
X169801267Y-78855243D01*
X169709426Y-78822718D01*
X169677884Y-78792464D01*
X169582181Y-78644242D01*
X169543354Y-78512121D01*
X169542753Y-78495717D01*
X169520805Y-78422124D01*
X169465167Y-78328466D01*
X169430287Y-78284029D01*
X169345023Y-78175413D01*
X169267383Y-78060834D01*
X169247797Y-78027567D01*
X169190996Y-77930216D01*
X169114424Y-77805224D01*
X169048818Y-77701738D01*
X168983247Y-77591225D01*
X168936817Y-77495803D01*
X168919864Y-77437787D01*
X168894758Y-77361947D01*
X168867957Y-77330407D01*
X168829560Y-77265798D01*
X168816050Y-77187768D01*
X168799194Y-77100635D01*
X168756123Y-76987459D01*
X168722891Y-76921354D01*
X168629732Y-76754499D01*
X168708411Y-76627194D01*
X168774667Y-76540233D01*
X168842750Y-76503929D01*
X168886321Y-76499890D01*
X168984833Y-76531959D01*
G37*
G36*
X159037639Y-76509998D02*
G01*
X159185404Y-76546566D01*
X159302064Y-76595053D01*
X159413527Y-76650162D01*
X159475218Y-76693635D01*
X159501559Y-76739707D01*
X159506970Y-76797319D01*
X159478744Y-76910665D01*
X159404699Y-76987253D01*
X159302083Y-77018829D01*
X159188148Y-76997134D01*
X159143027Y-76971523D01*
X159042625Y-76932566D01*
X158910142Y-76919084D01*
X158774444Y-76930328D01*
X158664397Y-76965548D01*
X158635742Y-76984693D01*
X158545192Y-77059186D01*
X158469183Y-77118952D01*
X158400618Y-77191061D01*
X158330757Y-77294058D01*
X158308415Y-77335570D01*
X158250337Y-77453602D01*
X158180893Y-77595110D01*
X158138061Y-77682571D01*
X158041965Y-77879013D01*
X158127857Y-78045923D01*
X158200704Y-78159136D01*
X158288277Y-78257347D01*
X158329753Y-78291011D01*
X158408668Y-78338965D01*
X158461222Y-78348427D01*
X158515856Y-78323169D01*
X158525462Y-78316965D01*
X158612819Y-78282516D01*
X158724800Y-78265217D01*
X158744308Y-78264740D01*
X158966686Y-78241292D01*
X159215114Y-78174740D01*
X159395810Y-78103935D01*
X159565088Y-78040596D01*
X159687345Y-78024900D01*
X159767181Y-78058389D01*
X159809197Y-78142606D01*
X159818674Y-78245707D01*
X159813721Y-78329848D01*
X159788779Y-78385773D01*
X159728498Y-78435309D01*
X159654301Y-78479441D01*
X159431702Y-78599751D01*
X159243781Y-78684888D01*
X159070812Y-78742462D01*
X158893072Y-78780083D01*
X158863124Y-78784722D01*
X158651600Y-78815595D01*
X158497521Y-78835855D01*
X158389944Y-78845547D01*
X158317928Y-78844717D01*
X158270533Y-78833408D01*
X158236818Y-78811667D01*
X158212883Y-78787390D01*
X158151201Y-78733893D01*
X158106023Y-78714603D01*
X158062978Y-78686422D01*
X158025616Y-78628091D01*
X157980563Y-78564199D01*
X157937529Y-78541579D01*
X157886509Y-78514944D01*
X157829584Y-78450440D01*
X157826921Y-78446415D01*
X157768195Y-78367845D01*
X157715687Y-78314596D01*
X157676497Y-78255260D01*
X157640125Y-78150239D01*
X157612665Y-78022982D01*
X157600211Y-77896937D01*
X157600122Y-77869929D01*
X157617844Y-77788455D01*
X157662713Y-77667107D01*
X157725596Y-77524951D01*
X157797363Y-77381052D01*
X157868881Y-77254478D01*
X157931020Y-77164293D01*
X157946102Y-77147549D01*
X157979057Y-77082486D01*
X157985813Y-77037996D01*
X158017763Y-76956108D01*
X158106545Y-76855243D01*
X158244815Y-76742336D01*
X158421802Y-76626358D01*
X158546616Y-76556888D01*
X158646545Y-76518644D01*
X158753049Y-76502665D01*
X158865738Y-76499890D01*
X159037639Y-76509998D01*
G37*
G36*
X181757145Y-81319102D02*
G01*
X181854520Y-81358426D01*
X181951526Y-81422150D01*
X182027840Y-81494005D01*
X182063138Y-81557722D01*
X182063654Y-81564455D01*
X182083678Y-81636532D01*
X182114461Y-81689048D01*
X182147615Y-81766595D01*
X182165457Y-81873611D01*
X182166368Y-81898533D01*
X182141892Y-82033461D01*
X182063550Y-82179240D01*
X181927033Y-82343363D01*
X181886713Y-82384733D01*
X181802119Y-82438951D01*
X181669589Y-82490366D01*
X181510327Y-82533105D01*
X181345538Y-82561295D01*
X181219845Y-82569436D01*
X181085959Y-82585225D01*
X181001437Y-82640242D01*
X180952243Y-82745958D01*
X180940673Y-82797593D01*
X180933413Y-82903880D01*
X180963789Y-82972077D01*
X180969567Y-82978190D01*
X180997311Y-82998599D01*
X181037978Y-83008935D01*
X181103454Y-83008593D01*
X181205627Y-82996970D01*
X181356382Y-82973462D01*
X181482481Y-82952136D01*
X181704403Y-82915436D01*
X181867655Y-82893226D01*
X181981440Y-82886468D01*
X182054962Y-82896125D01*
X182097424Y-82923157D01*
X182118031Y-82968528D01*
X182125015Y-83019299D01*
X182107435Y-83151705D01*
X182055806Y-83237333D01*
X181959435Y-83312347D01*
X181808006Y-83376667D01*
X181615308Y-83426657D01*
X181395131Y-83458684D01*
X181176122Y-83469163D01*
X181032416Y-83467494D01*
X180937366Y-83458858D01*
X180870435Y-83437812D01*
X180811086Y-83398913D01*
X180765569Y-83360354D01*
X180670557Y-83268402D01*
X180602013Y-83176033D01*
X180556337Y-83070200D01*
X180529928Y-82937851D01*
X180519186Y-82765939D01*
X180520511Y-82541413D01*
X180522221Y-82478334D01*
X180531619Y-82236672D01*
X180540847Y-82132817D01*
X180938524Y-82132817D01*
X180965718Y-82150863D01*
X181032941Y-82153576D01*
X181125393Y-82146004D01*
X181256042Y-82126794D01*
X181388684Y-82101702D01*
X181571436Y-82047463D01*
X181689570Y-81974945D01*
X181745716Y-81882231D01*
X181751440Y-81837155D01*
X181721318Y-81798239D01*
X181643109Y-81772318D01*
X181536864Y-81760250D01*
X181422636Y-81762893D01*
X181320473Y-81781103D01*
X181250439Y-81815728D01*
X181171636Y-81882739D01*
X181085847Y-81949971D01*
X181008550Y-82019214D01*
X180955300Y-82086838D01*
X180954861Y-82087651D01*
X180938524Y-82132817D01*
X180540847Y-82132817D01*
X180548112Y-82051057D01*
X180578651Y-81908327D01*
X180630187Y-81795319D01*
X180709672Y-81698872D01*
X180824055Y-81605822D01*
X180980287Y-81503008D01*
X181064819Y-81450830D01*
X181251096Y-81350532D01*
X181414307Y-81298146D01*
X181576857Y-81289412D01*
X181757145Y-81319102D01*
G37*
G36*
X184207534Y-80163879D02*
G01*
X184267913Y-80194048D01*
X184306019Y-80246297D01*
X184324287Y-80332109D01*
X184325153Y-80462968D01*
X184311052Y-80650355D01*
X184310950Y-80651434D01*
X184294619Y-80868982D01*
X184292966Y-81052428D01*
X184307096Y-81235537D01*
X184336930Y-81444776D01*
X184348071Y-81556412D01*
X184355718Y-81721063D01*
X184359978Y-81922630D01*
X184360956Y-82145013D01*
X184358759Y-82372111D01*
X184353493Y-82587824D01*
X184345266Y-82776052D01*
X184334182Y-82920695D01*
X184326808Y-82976423D01*
X184282997Y-83140201D01*
X184217701Y-83267081D01*
X184138533Y-83345424D01*
X184072406Y-83365349D01*
X184003491Y-83384334D01*
X183938248Y-83420459D01*
X183863938Y-83448242D01*
X183742342Y-83469856D01*
X183595219Y-83483923D01*
X183444327Y-83489063D01*
X183311424Y-83483898D01*
X183218269Y-83467049D01*
X183215967Y-83466220D01*
X183155515Y-83422946D01*
X183082408Y-83344131D01*
X183014667Y-83252888D01*
X182970313Y-83172331D01*
X182962419Y-83141035D01*
X182942396Y-83094759D01*
X182892552Y-83016650D01*
X182858604Y-82969879D01*
X182801233Y-82884991D01*
X182770111Y-82805179D01*
X182757575Y-82703072D01*
X182755752Y-82602663D01*
X182772092Y-82458193D01*
X183179470Y-82458193D01*
X183183054Y-82655140D01*
X183226531Y-82798793D01*
X183280309Y-82918070D01*
X183331530Y-82985190D01*
X183400736Y-83012276D01*
X183508465Y-83011446D01*
X183576093Y-83005082D01*
X183698222Y-82990464D01*
X183796295Y-82974946D01*
X183842249Y-82963969D01*
X183884414Y-82927965D01*
X183914928Y-82851796D01*
X183935414Y-82727355D01*
X183947492Y-82546538D01*
X183951150Y-82419543D01*
X183952036Y-82252935D01*
X183946011Y-82144648D01*
X183931865Y-82084027D01*
X183910492Y-82061140D01*
X183867425Y-82017162D01*
X183863109Y-81995970D01*
X183835822Y-81942996D01*
X183798838Y-81914586D01*
X183698596Y-81896950D01*
X183577413Y-81928442D01*
X183454459Y-82001788D01*
X183377158Y-82074640D01*
X183243988Y-82265576D01*
X183179470Y-82458193D01*
X182772092Y-82458193D01*
X182785141Y-82342818D01*
X182875309Y-82105522D01*
X183029260Y-81884641D01*
X183182403Y-81731338D01*
X183391852Y-81570695D01*
X183582948Y-81475495D01*
X183754940Y-81446075D01*
X183806999Y-81450798D01*
X183916526Y-81468571D01*
X183920748Y-80951639D01*
X183924559Y-80727544D01*
X183932450Y-80562030D01*
X183945400Y-80444536D01*
X183964389Y-80364501D01*
X183978270Y-80331635D01*
X184057556Y-80212741D01*
X184139573Y-80160366D01*
X184207534Y-80163879D01*
G37*
G36*
X156003299Y-67001253D02*
G01*
X156064815Y-67091076D01*
X156105643Y-67229517D01*
X156124020Y-67407362D01*
X156118181Y-67615396D01*
X156088359Y-67833880D01*
X156054015Y-68091356D01*
X156058102Y-68291833D01*
X156059416Y-68301047D01*
X156071250Y-68411924D01*
X156081631Y-68567013D01*
X156089068Y-68741316D01*
X156091392Y-68837930D01*
X156096778Y-69013278D01*
X156106334Y-69184569D01*
X156118456Y-69326255D01*
X156125638Y-69382342D01*
X156136405Y-69523349D01*
X156111080Y-69611546D01*
X156043241Y-69656652D01*
X155936556Y-69668447D01*
X155834295Y-69655398D01*
X155767951Y-69606872D01*
X155748316Y-69579871D01*
X155696930Y-69461727D01*
X155660159Y-69298337D01*
X155641423Y-69112753D01*
X155644144Y-68928027D01*
X155647070Y-68897607D01*
X155669112Y-68697748D01*
X155575778Y-68733234D01*
X155486472Y-68753904D01*
X155363920Y-68766696D01*
X155297009Y-68768720D01*
X155146612Y-68777249D01*
X154988172Y-68798691D01*
X154935911Y-68809268D01*
X154833048Y-68836049D01*
X154780940Y-68864547D01*
X154762421Y-68909759D01*
X154760246Y-68962737D01*
X154749627Y-69073176D01*
X154726963Y-69163198D01*
X154711924Y-69244002D01*
X154730777Y-69273665D01*
X154750771Y-69321116D01*
X154749059Y-69405548D01*
X154729363Y-69499572D01*
X154695403Y-69575798D01*
X154688474Y-69585023D01*
X154625599Y-69618554D01*
X154529494Y-69632268D01*
X154431207Y-69625647D01*
X154361790Y-69598175D01*
X154354451Y-69590586D01*
X154345300Y-69544240D01*
X154337604Y-69434126D01*
X154331498Y-69265671D01*
X154327120Y-69044305D01*
X154324606Y-68775455D01*
X154324093Y-68464551D01*
X154324260Y-68391848D01*
X154327685Y-67236365D01*
X154416736Y-67169831D01*
X154518933Y-67122029D01*
X154599325Y-67126774D01*
X154698115Y-67176465D01*
X154743044Y-67264793D01*
X154735700Y-67395702D01*
X154725010Y-67438685D01*
X154701019Y-67568431D01*
X154714259Y-67676337D01*
X154721639Y-67699362D01*
X154739822Y-67786256D01*
X154753398Y-67917304D01*
X154759975Y-68067486D01*
X154760246Y-68102939D01*
X154760246Y-68395768D01*
X154890014Y-68370060D01*
X154994509Y-68352960D01*
X155134365Y-68334605D01*
X155253480Y-68321603D01*
X155411155Y-68298308D01*
X155513246Y-68258795D01*
X155573092Y-68193165D01*
X155604031Y-68091519D01*
X155609019Y-68057705D01*
X155652170Y-67736042D01*
X155692116Y-67469983D01*
X155728297Y-67262648D01*
X155760155Y-67117153D01*
X155787130Y-67036616D01*
X155793979Y-67025834D01*
X155865235Y-66980376D01*
X155922859Y-66969265D01*
X156003299Y-67001253D01*
G37*
G36*
X175518596Y-81565318D02*
G01*
X175608300Y-81615069D01*
X175720541Y-81676112D01*
X175795873Y-81698202D01*
X175854534Y-81681424D01*
X175916764Y-81625864D01*
X175925616Y-81616396D01*
X175990016Y-81559106D01*
X176042749Y-81551508D01*
X176076655Y-81565706D01*
X176179188Y-81651082D01*
X176234360Y-81776125D01*
X176245339Y-81948549D01*
X176243840Y-81972748D01*
X176224944Y-82107549D01*
X176192543Y-82233823D01*
X176170489Y-82289262D01*
X176131546Y-82411808D01*
X176117377Y-82558692D01*
X176125669Y-82711448D01*
X176154111Y-82851611D01*
X176200392Y-82960716D01*
X176262003Y-83020217D01*
X176403355Y-83111326D01*
X176490874Y-83239776D01*
X176510954Y-83308663D01*
X176511719Y-83430356D01*
X176463764Y-83507309D01*
X176372492Y-83537916D01*
X176243306Y-83520575D01*
X176081608Y-83453681D01*
X176060556Y-83442401D01*
X175958358Y-83377630D01*
X175880241Y-83312303D01*
X175852927Y-83277509D01*
X175806607Y-83201102D01*
X175743180Y-83113010D01*
X175740209Y-83109234D01*
X175657316Y-83040445D01*
X175564130Y-83035400D01*
X175455667Y-83094718D01*
X175390088Y-83152655D01*
X175243212Y-83283775D01*
X175123927Y-83360610D01*
X175023690Y-83387903D01*
X174974109Y-83383631D01*
X174899518Y-83347878D01*
X174811635Y-83279990D01*
X174729666Y-83198470D01*
X174672813Y-83121823D01*
X174658204Y-83079247D01*
X174636926Y-83026836D01*
X174601036Y-82978881D01*
X174563414Y-82896385D01*
X174545099Y-82766726D01*
X174545186Y-82608933D01*
X174554762Y-82518043D01*
X174935044Y-82518043D01*
X174945324Y-82624095D01*
X174971321Y-82728614D01*
X175005773Y-82809831D01*
X175041416Y-82845976D01*
X175044554Y-82846275D01*
X175085714Y-82825097D01*
X175162195Y-82769426D01*
X175257862Y-82691054D01*
X175263136Y-82686512D01*
X175404652Y-82551416D01*
X175529484Y-82408352D01*
X175624335Y-82274002D01*
X175674177Y-82170872D01*
X175677298Y-82126100D01*
X175644432Y-82091002D01*
X175562187Y-82053921D01*
X175523725Y-82039900D01*
X175419233Y-82005778D01*
X175353661Y-81997031D01*
X175301782Y-82013058D01*
X175267532Y-82033790D01*
X175165473Y-82120403D01*
X175067709Y-82236117D01*
X174988404Y-82360303D01*
X174941725Y-82472328D01*
X174935044Y-82518043D01*
X174554762Y-82518043D01*
X174562769Y-82442038D01*
X174596945Y-82285069D01*
X174639423Y-82171490D01*
X174754083Y-81986315D01*
X174902762Y-81817560D01*
X175068895Y-81680732D01*
X175235918Y-81591334D01*
X175272000Y-81579321D01*
X175380093Y-81550302D01*
X175452206Y-81544562D01*
X175518596Y-81565318D01*
G37*
G36*
X180149422Y-66922002D02*
G01*
X180293753Y-66933528D01*
X180402195Y-66958418D01*
X180491338Y-67001103D01*
X180577769Y-67066015D01*
X180610982Y-67095287D01*
X180705622Y-67196820D01*
X180745717Y-67285378D01*
X180748529Y-67316869D01*
X180725064Y-67417263D01*
X180666268Y-67493559D01*
X180591510Y-67522943D01*
X180527393Y-67508542D01*
X180423784Y-67471061D01*
X180302734Y-67419081D01*
X180215044Y-67376408D01*
X180116688Y-67347420D01*
X179980395Y-67332893D01*
X179834878Y-67333252D01*
X179708853Y-67348921D01*
X179649888Y-67368060D01*
X179491428Y-67481804D01*
X179350875Y-67647676D01*
X179235909Y-67849352D01*
X179154210Y-68070510D01*
X179113458Y-68294827D01*
X179119542Y-68495207D01*
X179141680Y-68600222D01*
X179167597Y-68674593D01*
X179181910Y-68694643D01*
X179220145Y-68738638D01*
X179266897Y-68815807D01*
X179270728Y-68823181D01*
X179334090Y-68908525D01*
X179427808Y-68995272D01*
X179463671Y-69021186D01*
X179546731Y-69068889D01*
X179634664Y-69099233D01*
X179749234Y-69117536D01*
X179903603Y-69128667D01*
X180078142Y-69143286D01*
X180190223Y-69165210D01*
X180234563Y-69190199D01*
X180261426Y-69210466D01*
X180282980Y-69166990D01*
X180284142Y-69162836D01*
X180334925Y-69080012D01*
X180424961Y-69017183D01*
X180536463Y-68977490D01*
X180651641Y-68964070D01*
X180752707Y-68980065D01*
X180821873Y-69028613D01*
X180838664Y-69064972D01*
X180849622Y-69147419D01*
X180832332Y-69220235D01*
X180779310Y-69291635D01*
X180683074Y-69369835D01*
X180536139Y-69463048D01*
X180410026Y-69535507D01*
X180299974Y-69576038D01*
X180149662Y-69604204D01*
X179981457Y-69618820D01*
X179817726Y-69618702D01*
X179680836Y-69602664D01*
X179606568Y-69578063D01*
X179519178Y-69542436D01*
X179455825Y-69530538D01*
X179385770Y-69507255D01*
X179289035Y-69447321D01*
X179181509Y-69364386D01*
X179079081Y-69272097D01*
X178997641Y-69184103D01*
X178953078Y-69114052D01*
X178949117Y-69095289D01*
X178926023Y-69049799D01*
X178868633Y-68982174D01*
X178848671Y-68962315D01*
X178791920Y-68896747D01*
X178750861Y-68816974D01*
X178721639Y-68709036D01*
X178700397Y-68558975D01*
X178684260Y-68366999D01*
X178678744Y-68227759D01*
X178688247Y-68115310D01*
X178717810Y-67999372D01*
X178768841Y-67859009D01*
X178918670Y-67552353D01*
X179109486Y-67294572D01*
X179336836Y-67091153D01*
X179450846Y-67018261D01*
X179540416Y-66971213D01*
X179621356Y-66942013D01*
X179715029Y-66926453D01*
X179842800Y-66920325D01*
X179952617Y-66919408D01*
X180149422Y-66922002D01*
G37*
G36*
X173530501Y-81467867D02*
G01*
X173592719Y-81520034D01*
X173687107Y-81631709D01*
X173771128Y-81769483D01*
X173832420Y-81909281D01*
X173858624Y-82027025D01*
X173858826Y-82038334D01*
X173860351Y-82105619D01*
X173865349Y-82227846D01*
X173873155Y-82390871D01*
X173883107Y-82580551D01*
X173890208Y-82707855D01*
X173902397Y-82950428D01*
X173906107Y-83132582D01*
X173899252Y-83262815D01*
X173879742Y-83349622D01*
X173845490Y-83401500D01*
X173794408Y-83426945D01*
X173724408Y-83434454D01*
X173711619Y-83434558D01*
X173615586Y-83417819D01*
X173559960Y-83360130D01*
X173558205Y-83356697D01*
X173525991Y-83257960D01*
X173496618Y-83102626D01*
X173471599Y-82903296D01*
X173452451Y-82672569D01*
X173440689Y-82423045D01*
X173439255Y-82367447D01*
X173433918Y-82210193D01*
X173425922Y-82080333D01*
X173416396Y-81992302D01*
X173407481Y-81960792D01*
X173371534Y-81974133D01*
X173297705Y-82022508D01*
X173200785Y-82096057D01*
X173183054Y-82110373D01*
X173068367Y-82199445D01*
X172959379Y-82276802D01*
X172879272Y-82326012D01*
X172877917Y-82326700D01*
X172812977Y-82370446D01*
X172771730Y-82434601D01*
X172741177Y-82541286D01*
X172735254Y-82569436D01*
X172701614Y-82706515D01*
X172659879Y-82840002D01*
X172639205Y-82893757D01*
X172601927Y-83004412D01*
X172582644Y-83107505D01*
X172581910Y-83124685D01*
X172562332Y-83202967D01*
X172513899Y-83294656D01*
X172452062Y-83377195D01*
X172392273Y-83428031D01*
X172369632Y-83434558D01*
X172324376Y-83412172D01*
X172259927Y-83357921D01*
X172256198Y-83354227D01*
X172215207Y-83302724D01*
X172187380Y-83235023D01*
X172168107Y-83133996D01*
X172152775Y-82982518D01*
X172151359Y-82964922D01*
X172135894Y-82789689D01*
X172117306Y-82607583D01*
X172099190Y-82453392D01*
X172096220Y-82431016D01*
X172078275Y-82279172D01*
X172060714Y-82097596D01*
X172047380Y-81926185D01*
X172039707Y-81785644D01*
X172041357Y-81695684D01*
X172055772Y-81637925D01*
X172086393Y-81593988D01*
X172114871Y-81565774D01*
X172182546Y-81513193D01*
X172240264Y-81507394D01*
X172288397Y-81525279D01*
X172343819Y-81554971D01*
X172378429Y-81593529D01*
X172400744Y-81659026D01*
X172419279Y-81769539D01*
X172425725Y-81816779D01*
X172446965Y-81915650D01*
X172475494Y-81973515D01*
X172489634Y-81981152D01*
X172540368Y-81960816D01*
X172618508Y-81909660D01*
X172651887Y-81883901D01*
X172763242Y-81800999D01*
X172886196Y-81719155D01*
X172910657Y-81704243D01*
X173027857Y-81627189D01*
X173149439Y-81536673D01*
X173179438Y-81512176D01*
X173304198Y-81431838D01*
X173417405Y-81416995D01*
X173530501Y-81467867D01*
G37*
G36*
X163798265Y-70822381D02*
G01*
X163831911Y-70866342D01*
X163876500Y-70979081D01*
X163880943Y-71100156D01*
X163844244Y-71198405D01*
X163842581Y-71200567D01*
X163775064Y-71247537D01*
X163661571Y-71290810D01*
X163525303Y-71324517D01*
X163389460Y-71342786D01*
X163286876Y-71341194D01*
X163198364Y-71336215D01*
X163061244Y-71336344D01*
X162895912Y-71341302D01*
X162759151Y-71348425D01*
X162577882Y-71360346D01*
X162456798Y-71376267D01*
X162387174Y-71406595D01*
X162360283Y-71461737D01*
X162367398Y-71552098D01*
X162399792Y-71688084D01*
X162417437Y-71755901D01*
X162449460Y-71883330D01*
X162473116Y-71992221D01*
X162489917Y-72097469D01*
X162501372Y-72213971D01*
X162508991Y-72356624D01*
X162514284Y-72540323D01*
X162518265Y-72750533D01*
X162520921Y-72975237D01*
X162519439Y-73145232D01*
X162512752Y-73274949D01*
X162499793Y-73378819D01*
X162479495Y-73471276D01*
X162460052Y-73537879D01*
X162422664Y-73672654D01*
X162410080Y-73775807D01*
X162419807Y-73879317D01*
X162429581Y-73928887D01*
X162458751Y-74134824D01*
X162445666Y-74287215D01*
X162389555Y-74387913D01*
X162289647Y-74438772D01*
X162214361Y-74446173D01*
X162136650Y-74439425D01*
X162088645Y-74407274D01*
X162048463Y-74331861D01*
X162035481Y-74300177D01*
X162003046Y-74196308D01*
X161992004Y-74085566D01*
X162000028Y-73940058D01*
X162003013Y-73910872D01*
X162041963Y-73449074D01*
X162060658Y-73010070D01*
X162061024Y-72855993D01*
X162056048Y-72671572D01*
X162046740Y-72471343D01*
X162034112Y-72269844D01*
X162019171Y-72081612D01*
X162002929Y-71921185D01*
X161986395Y-71803099D01*
X161972912Y-71746991D01*
X161951831Y-71653735D01*
X161945647Y-71539795D01*
X161946252Y-71525707D01*
X161953977Y-71390936D01*
X161648177Y-71419667D01*
X161480488Y-71433688D01*
X161312184Y-71444906D01*
X161174611Y-71451289D01*
X161152049Y-71451834D01*
X161003517Y-71462848D01*
X160838864Y-71487026D01*
X160761184Y-71503171D01*
X160644612Y-71528186D01*
X160574886Y-71533193D01*
X160532569Y-71518095D01*
X160514656Y-71501961D01*
X160482658Y-71423995D01*
X160485791Y-71319352D01*
X160518909Y-71217638D01*
X160576014Y-71148996D01*
X160682216Y-71101403D01*
X160837480Y-71057288D01*
X161021658Y-71020631D01*
X161214602Y-70995411D01*
X161396166Y-70985607D01*
X161403307Y-70985592D01*
X161568880Y-70979498D01*
X161765200Y-70963270D01*
X161955108Y-70940134D01*
X161991591Y-70934556D01*
X162474060Y-70872154D01*
X162934148Y-70844868D01*
X163211041Y-70844197D01*
X163372212Y-70843491D01*
X163519044Y-70836669D01*
X163629984Y-70825009D01*
X163667538Y-70817104D01*
X163748664Y-70800772D01*
X163798265Y-70822381D01*
G37*
G36*
X164813345Y-80084949D02*
G01*
X164868449Y-80117821D01*
X164918381Y-80194006D01*
X164929871Y-80215716D01*
X164969804Y-80309711D01*
X164985587Y-80383734D01*
X164983282Y-80401581D01*
X164990468Y-80461594D01*
X165020134Y-80504896D01*
X165041688Y-80537041D01*
X165056939Y-80590491D01*
X165066857Y-80675853D01*
X165072410Y-80803732D01*
X165074568Y-80984733D01*
X165074671Y-81101976D01*
X165072445Y-81290557D01*
X165066792Y-81455708D01*
X165058441Y-81584572D01*
X165048121Y-81664295D01*
X165041744Y-81682694D01*
X165031218Y-81730030D01*
X165024164Y-81834951D01*
X165020927Y-81985904D01*
X165021854Y-82171335D01*
X165024036Y-82275294D01*
X165029722Y-82612036D01*
X165026819Y-82884532D01*
X165014427Y-83097318D01*
X164991648Y-83254930D01*
X164957583Y-83361904D01*
X164911334Y-83422774D01*
X164852003Y-83442077D01*
X164795116Y-83430856D01*
X164729508Y-83385198D01*
X164668891Y-83291180D01*
X164627633Y-83197377D01*
X164593160Y-83099872D01*
X164569808Y-83001337D01*
X164556430Y-82887483D01*
X164551876Y-82744022D01*
X164555000Y-82556666D01*
X164561750Y-82377335D01*
X164557760Y-82257229D01*
X164523875Y-82189297D01*
X164446527Y-82159654D01*
X164343704Y-82154177D01*
X164203343Y-82164832D01*
X164046247Y-82191924D01*
X163973209Y-82210300D01*
X163713545Y-82251488D01*
X163589139Y-82246710D01*
X163466508Y-82227427D01*
X163381255Y-82190681D01*
X163301581Y-82121086D01*
X163278499Y-82096415D01*
X163158871Y-81965833D01*
X163182150Y-81161222D01*
X163189626Y-80929784D01*
X163197888Y-80719800D01*
X163206407Y-80541734D01*
X163214649Y-80406048D01*
X163222083Y-80323206D01*
X163225710Y-80303759D01*
X163275761Y-80263420D01*
X163361049Y-80250907D01*
X163459930Y-80269048D01*
X163535376Y-80334902D01*
X163548457Y-80352512D01*
X163574128Y-80393378D01*
X163593074Y-80440596D01*
X163606424Y-80505013D01*
X163615312Y-80597477D01*
X163620867Y-80728836D01*
X163624223Y-80909937D01*
X163626072Y-81096517D01*
X163631338Y-81738918D01*
X163759358Y-81738918D01*
X163880923Y-81726642D01*
X164008258Y-81696646D01*
X164021497Y-81692237D01*
X164137848Y-81663365D01*
X164279232Y-81643609D01*
X164343425Y-81639477D01*
X164457306Y-81629462D01*
X164545749Y-81610379D01*
X164576446Y-81595875D01*
X164593065Y-81547622D01*
X164604401Y-81444180D01*
X164610725Y-81299348D01*
X164612306Y-81126922D01*
X164609415Y-80940701D01*
X164602321Y-80754483D01*
X164591294Y-80582065D01*
X164576605Y-80437245D01*
X164558523Y-80333822D01*
X164551279Y-80309503D01*
X164528826Y-80194442D01*
X164561504Y-80119942D01*
X164651502Y-80083120D01*
X164727340Y-80077883D01*
X164813345Y-80084949D01*
G37*
G36*
X166019108Y-72050313D02*
G01*
X166066338Y-72118181D01*
X166101541Y-72253646D01*
X166124742Y-72456872D01*
X166135962Y-72728020D01*
X166137059Y-72899324D01*
X166142209Y-73195000D01*
X166158300Y-73490977D01*
X166183533Y-73757486D01*
X166193368Y-73832544D01*
X166251369Y-74239759D01*
X166134567Y-74360269D01*
X166031784Y-74448810D01*
X165948757Y-74476701D01*
X165875881Y-74445962D01*
X165849641Y-74420219D01*
X165827762Y-74388275D01*
X165809553Y-74340235D01*
X165793445Y-74266260D01*
X165777866Y-74156508D01*
X165761246Y-74001137D01*
X165742016Y-73790305D01*
X165733690Y-73693516D01*
X165719100Y-73555186D01*
X165697045Y-73476590D01*
X165656341Y-73448353D01*
X165585806Y-73461100D01*
X165497668Y-73495639D01*
X165409324Y-73524807D01*
X165347177Y-73531525D01*
X165338435Y-73528644D01*
X165286658Y-73528295D01*
X165227492Y-73551172D01*
X165129384Y-73582467D01*
X165059235Y-73587245D01*
X164958893Y-73603183D01*
X164892055Y-73670822D01*
X164856263Y-73794423D01*
X164848488Y-73952513D01*
X164838651Y-74169099D01*
X164801372Y-74323711D01*
X164736013Y-74418186D01*
X164675970Y-74448813D01*
X164601000Y-74454387D01*
X164533373Y-74417209D01*
X164491303Y-74376838D01*
X164437023Y-74307962D01*
X164406300Y-74228319D01*
X164391003Y-74113050D01*
X164387829Y-74060503D01*
X164379263Y-73937809D01*
X164364303Y-73769249D01*
X164345104Y-73577634D01*
X164325174Y-73397354D01*
X164306719Y-73215995D01*
X164294255Y-73047004D01*
X164288852Y-72908922D01*
X164291579Y-72820289D01*
X164291815Y-72818453D01*
X164287940Y-72676257D01*
X164253161Y-72596018D01*
X164213934Y-72486368D01*
X164216535Y-72360552D01*
X164253806Y-72236989D01*
X164318592Y-72134097D01*
X164403735Y-72070293D01*
X164462052Y-72058435D01*
X164548598Y-72090776D01*
X164615226Y-72181905D01*
X164656716Y-72322975D01*
X164666043Y-72403972D01*
X164675901Y-72509297D01*
X164687889Y-72584584D01*
X164694235Y-72604319D01*
X164704393Y-72650791D01*
X164713975Y-72744146D01*
X164719601Y-72837736D01*
X164727965Y-72989967D01*
X164741526Y-73085946D01*
X164767095Y-73138613D01*
X164811477Y-73160906D01*
X164881482Y-73165766D01*
X164892206Y-73165792D01*
X165013726Y-73154262D01*
X165146468Y-73125721D01*
X165173660Y-73117499D01*
X165306247Y-73082885D01*
X165452285Y-73056631D01*
X165488023Y-73052347D01*
X165588540Y-73039217D01*
X165656600Y-73024870D01*
X165671190Y-73018404D01*
X165679272Y-72979211D01*
X165688888Y-72884725D01*
X165698874Y-72748811D01*
X165708061Y-72585334D01*
X165708648Y-72573133D01*
X165721221Y-72368170D01*
X165737144Y-72223718D01*
X165757713Y-72131109D01*
X165781730Y-72084388D01*
X165866747Y-72033092D01*
X165969042Y-72029793D01*
X166019108Y-72050313D01*
G37*
G36*
X153708094Y-65699394D02*
G01*
X153773166Y-65709752D01*
X153815636Y-65731578D01*
X153842235Y-65757009D01*
X153884788Y-65832500D01*
X153886473Y-65934768D01*
X153883636Y-65953892D01*
X153862913Y-66047715D01*
X153828704Y-66113101D01*
X153769468Y-66155514D01*
X153673663Y-66180419D01*
X153529747Y-66193280D01*
X153366535Y-66198699D01*
X153174885Y-66207296D01*
X152976348Y-66223245D01*
X152800278Y-66243893D01*
X152718557Y-66257256D01*
X152545491Y-66282403D01*
X152355141Y-66297982D01*
X152211049Y-66300747D01*
X152085898Y-66300736D01*
X151989251Y-66306599D01*
X151940652Y-66317090D01*
X151939439Y-66318078D01*
X151922135Y-66358642D01*
X151910283Y-66443167D01*
X151903848Y-66575946D01*
X151902795Y-66761274D01*
X151907087Y-67003444D01*
X151916690Y-67306751D01*
X151928729Y-67609455D01*
X151938690Y-67857628D01*
X151946818Y-68087700D01*
X151952829Y-68289151D01*
X151956440Y-68451462D01*
X151957367Y-68564112D01*
X151955827Y-68612998D01*
X151948900Y-68728065D01*
X151946281Y-68885070D01*
X151947838Y-69056882D01*
X151953436Y-69216373D01*
X151959203Y-69300853D01*
X151957681Y-69402898D01*
X151922865Y-69470503D01*
X151891189Y-69499831D01*
X151789662Y-69556049D01*
X151691854Y-69549049D01*
X151588034Y-69481855D01*
X151491799Y-69399077D01*
X151478258Y-68192822D01*
X151475198Y-67898823D01*
X151472713Y-67616789D01*
X151470860Y-67356745D01*
X151469692Y-67128716D01*
X151469263Y-66942726D01*
X151469630Y-66808802D01*
X151470401Y-66750845D01*
X151470320Y-66584956D01*
X151458273Y-66475425D01*
X151430894Y-66409939D01*
X151384816Y-66376181D01*
X151366350Y-66370271D01*
X151292640Y-66367777D01*
X151165620Y-66381001D01*
X150998795Y-66407610D01*
X150805671Y-66445276D01*
X150599754Y-66491670D01*
X150462326Y-66526220D01*
X150279762Y-66563376D01*
X150111162Y-66577926D01*
X149970895Y-66570201D01*
X149873329Y-66540533D01*
X149840963Y-66511871D01*
X149820870Y-66447481D01*
X149812275Y-66355916D01*
X149833256Y-66267260D01*
X149901586Y-66198848D01*
X150023917Y-66146839D01*
X150206902Y-66107395D01*
X150255590Y-66100075D01*
X150392425Y-66074213D01*
X150516958Y-66039747D01*
X150588404Y-66010759D01*
X150678914Y-65980535D01*
X150832698Y-65951856D01*
X151043823Y-65925466D01*
X151306360Y-65902107D01*
X151611200Y-65882691D01*
X151741288Y-65873244D01*
X151892084Y-65858838D01*
X151957249Y-65851491D01*
X152083481Y-65838287D01*
X152247915Y-65823769D01*
X152419658Y-65810618D01*
X152459020Y-65807930D01*
X152624667Y-65794449D01*
X152787381Y-65777034D01*
X152917943Y-65758913D01*
X152943489Y-65754395D01*
X153057891Y-65737711D01*
X153214103Y-65721514D01*
X153384757Y-65708488D01*
X153448275Y-65704899D01*
X153604953Y-65698458D01*
X153708094Y-65699394D01*
G37*
G36*
X182162944Y-76619597D02*
G01*
X182256098Y-76667216D01*
X182367830Y-76759648D01*
X182483828Y-76880811D01*
X182589780Y-77014623D01*
X182671373Y-77145002D01*
X182708510Y-77232643D01*
X182736055Y-77381948D01*
X182741848Y-77551414D01*
X182727370Y-77716498D01*
X182694101Y-77852654D01*
X182667815Y-77907116D01*
X182643176Y-77957691D01*
X182644516Y-78011536D01*
X182675290Y-78090785D01*
X182706342Y-78153867D01*
X182764301Y-78256620D01*
X182817969Y-78312918D01*
X182887774Y-78340947D01*
X182924687Y-78348300D01*
X183074821Y-78375225D01*
X183169302Y-78396453D01*
X183220874Y-78416853D01*
X183242283Y-78441294D01*
X183246295Y-78471163D01*
X183220219Y-78578913D01*
X183155486Y-78689221D01*
X183072334Y-78768297D01*
X183066163Y-78771892D01*
X182982367Y-78799484D01*
X182867945Y-78815606D01*
X182827361Y-78817192D01*
X182716907Y-78808701D01*
X182622251Y-78773438D01*
X182512483Y-78699689D01*
X182507687Y-78696037D01*
X182422413Y-78626427D01*
X182366304Y-78571934D01*
X182352482Y-78548967D01*
X182340852Y-78483502D01*
X182297807Y-78423866D01*
X182254204Y-78403159D01*
X182172823Y-78416337D01*
X182057819Y-78449586D01*
X181935916Y-78493481D01*
X181833841Y-78538593D01*
X181785129Y-78568606D01*
X181716933Y-78599235D01*
X181600311Y-78624247D01*
X181484777Y-78637123D01*
X181244093Y-78654344D01*
X181129186Y-78491865D01*
X181021076Y-78318955D01*
X180958721Y-78162088D01*
X180932857Y-77995315D01*
X180930780Y-77935993D01*
X180930954Y-77924847D01*
X181310470Y-77924847D01*
X181331237Y-77994535D01*
X181343025Y-78005203D01*
X181372452Y-78054181D01*
X181377630Y-78091351D01*
X181405561Y-78150839D01*
X181480013Y-78177412D01*
X181586974Y-78171706D01*
X181712433Y-78134358D01*
X181835403Y-78070528D01*
X181924923Y-78019661D01*
X181995690Y-77990557D01*
X182011715Y-77987900D01*
X182083088Y-77956780D01*
X182146111Y-77876795D01*
X182186203Y-77768011D01*
X182190551Y-77741793D01*
X182216606Y-77525744D01*
X182231518Y-77367457D01*
X182235316Y-77256389D01*
X182228026Y-77182001D01*
X182209678Y-77133750D01*
X182192222Y-77111796D01*
X182117372Y-77062874D01*
X182029785Y-77064029D01*
X181913779Y-77116015D01*
X181896704Y-77126003D01*
X181788220Y-77205031D01*
X181664627Y-77316761D01*
X181542376Y-77443787D01*
X181437919Y-77568704D01*
X181367709Y-77674110D01*
X181356578Y-77697394D01*
X181319212Y-77819097D01*
X181310470Y-77924847D01*
X180930954Y-77924847D01*
X180933029Y-77791997D01*
X180947856Y-77669046D01*
X180981214Y-77557110D01*
X181039058Y-77446157D01*
X181127340Y-77326154D01*
X181252015Y-77187070D01*
X181419037Y-77018874D01*
X181550654Y-76891557D01*
X181714715Y-76758017D01*
X181881848Y-76664377D01*
X182038177Y-76616798D01*
X182162944Y-76619597D01*
G37*
G36*
X182201101Y-66986384D02*
G01*
X182298268Y-67041199D01*
X182380892Y-67160512D01*
X182449644Y-67345593D01*
X182494803Y-67540246D01*
X182539281Y-67746920D01*
X182591096Y-67921237D01*
X182662011Y-68099647D01*
X182708034Y-68201196D01*
X182753174Y-68302655D01*
X182783025Y-68378426D01*
X182790219Y-68405035D01*
X182804478Y-68452348D01*
X182841040Y-68540663D01*
X182890579Y-68649423D01*
X182943770Y-68758070D01*
X182986578Y-68837930D01*
X183036819Y-68932753D01*
X183086713Y-69036908D01*
X183128832Y-69111489D01*
X183166666Y-69148490D01*
X183171337Y-69149374D01*
X183193230Y-69179506D01*
X183203749Y-69254096D01*
X183203475Y-69349432D01*
X183192989Y-69441801D01*
X183172875Y-69507491D01*
X183162222Y-69521019D01*
X183050209Y-69575221D01*
X182940544Y-69568676D01*
X182864811Y-69518454D01*
X182812282Y-69452122D01*
X182790220Y-69403566D01*
X182790219Y-69403346D01*
X182774208Y-69344671D01*
X182736211Y-69260395D01*
X182691275Y-69180201D01*
X182654452Y-69133774D01*
X182653085Y-69132866D01*
X182628757Y-69091275D01*
X182599291Y-69005486D01*
X182584421Y-68949377D01*
X182544693Y-68783772D01*
X182274583Y-68806985D01*
X182089439Y-68823984D01*
X181959223Y-68842469D01*
X181869893Y-68869687D01*
X181807406Y-68912886D01*
X181757722Y-68979316D01*
X181706798Y-69076225D01*
X181691230Y-69108112D01*
X181636415Y-69225928D01*
X181596403Y-69321892D01*
X181578970Y-69377194D01*
X181578764Y-69380207D01*
X181549610Y-69418754D01*
X181480896Y-69443357D01*
X181401670Y-69449203D01*
X181340976Y-69431479D01*
X181331001Y-69421261D01*
X181314291Y-69351152D01*
X181317897Y-69236355D01*
X181339473Y-69097573D01*
X181376678Y-68955515D01*
X181387239Y-68924442D01*
X181416601Y-68836584D01*
X181459487Y-68701112D01*
X181510026Y-68536851D01*
X181559932Y-68370763D01*
X181565945Y-68350726D01*
X181965831Y-68350726D01*
X181970337Y-68405329D01*
X182025028Y-68412849D01*
X182037562Y-68409877D01*
X182130439Y-68394338D01*
X182224159Y-68388538D01*
X182332894Y-68388066D01*
X182270115Y-68264928D01*
X182220508Y-68142402D01*
X182185585Y-68012708D01*
X182184292Y-68005391D01*
X182156730Y-67908404D01*
X182123150Y-67875161D01*
X182091200Y-67901564D01*
X182068529Y-67983509D01*
X182062290Y-68070801D01*
X182043565Y-68172690D01*
X182011608Y-68249646D01*
X181965831Y-68350726D01*
X181565945Y-68350726D01*
X181610869Y-68201035D01*
X181658278Y-68046479D01*
X181696841Y-67924219D01*
X181721127Y-67851690D01*
X181754597Y-67746767D01*
X181775758Y-67661363D01*
X181799146Y-67585548D01*
X181843608Y-67473600D01*
X181893369Y-67362975D01*
X181944845Y-67247591D01*
X181981212Y-67152081D01*
X181994306Y-67099024D01*
X182023610Y-67023994D01*
X182100539Y-66984041D01*
X182201101Y-66986384D01*
G37*
G36*
X156173190Y-85622172D02*
G01*
X156281660Y-85667918D01*
X156408611Y-85721945D01*
X156546839Y-85759047D01*
X156572907Y-85763082D01*
X156650155Y-85778012D01*
X156705494Y-85806704D01*
X156741538Y-85858808D01*
X156760904Y-85943971D01*
X156766207Y-86071844D01*
X156760062Y-86252075D01*
X156750185Y-86417102D01*
X156739831Y-86657055D01*
X156740095Y-86877756D01*
X156750804Y-87057609D01*
X156755613Y-87097439D01*
X156769738Y-87220877D01*
X156775331Y-87341480D01*
X156771472Y-87473065D01*
X156757245Y-87629452D01*
X156731729Y-87824457D01*
X156694006Y-88071900D01*
X156688554Y-88106157D01*
X156650847Y-88313495D01*
X156610953Y-88460886D01*
X156563575Y-88557519D01*
X156503413Y-88612587D01*
X156425168Y-88635280D01*
X156382283Y-88637380D01*
X156304181Y-88628635D01*
X156259419Y-88589255D01*
X156227706Y-88511613D01*
X156207063Y-88391900D01*
X156205920Y-88241122D01*
X156222268Y-88089455D01*
X156254099Y-87967075D01*
X156265629Y-87941948D01*
X156281760Y-87881617D01*
X156298852Y-87767751D01*
X156315474Y-87615981D01*
X156330197Y-87441941D01*
X156341591Y-87261264D01*
X156348226Y-87089582D01*
X156349216Y-87028251D01*
X156342894Y-86944970D01*
X156316565Y-86902762D01*
X156261752Y-86901871D01*
X156169979Y-86942541D01*
X156032768Y-87025016D01*
X156012507Y-87037953D01*
X155820545Y-87145422D01*
X155658295Y-87197468D01*
X155513821Y-87193942D01*
X155375185Y-87134694D01*
X155239812Y-87028327D01*
X155170969Y-86971337D01*
X155121841Y-86942578D01*
X155116830Y-86941739D01*
X155092305Y-86912902D01*
X155087279Y-86876767D01*
X155063798Y-86801090D01*
X155040270Y-86772780D01*
X155005584Y-86703556D01*
X154998626Y-86591240D01*
X155416417Y-86591240D01*
X155447792Y-86639144D01*
X155534432Y-86661041D01*
X155614405Y-86664370D01*
X155754238Y-86636179D01*
X155839337Y-86578663D01*
X155976907Y-86457882D01*
X156069598Y-86383995D01*
X156120829Y-86354321D01*
X156126522Y-86353456D01*
X156155556Y-86324969D01*
X156192051Y-86255775D01*
X156194648Y-86249610D01*
X156216624Y-86147313D01*
X156181230Y-86080485D01*
X156086523Y-86046997D01*
X156004830Y-86042012D01*
X155858145Y-86073163D01*
X155708947Y-86157860D01*
X155573266Y-86282968D01*
X155467127Y-86435353D01*
X155432678Y-86510885D01*
X155416417Y-86591240D01*
X154998626Y-86591240D01*
X154998578Y-86590471D01*
X155015025Y-86451082D01*
X155050697Y-86302943D01*
X155101367Y-86163611D01*
X155162809Y-86050641D01*
X155230773Y-85981602D01*
X155313618Y-85914688D01*
X155367253Y-85845825D01*
X155414034Y-85785344D01*
X155452775Y-85765172D01*
X155502237Y-85737685D01*
X155512535Y-85719822D01*
X155560975Y-85676207D01*
X155660001Y-85637084D01*
X155790993Y-85607602D01*
X155935330Y-85592911D01*
X155974231Y-85592148D01*
X156173190Y-85622172D01*
G37*
G36*
X162078993Y-81515010D02*
G01*
X162130011Y-81563619D01*
X162157250Y-81652766D01*
X162164449Y-81760328D01*
X162151697Y-81855507D01*
X162129049Y-81900280D01*
X162101777Y-81959109D01*
X162089227Y-82043921D01*
X162073445Y-82124452D01*
X162039724Y-82168605D01*
X162039499Y-82168693D01*
X161996936Y-82209851D01*
X161992809Y-82228677D01*
X161976797Y-82289624D01*
X161936699Y-82385297D01*
X161884424Y-82491309D01*
X161831882Y-82583272D01*
X161795625Y-82632466D01*
X161756939Y-82689856D01*
X161750575Y-82715239D01*
X161733254Y-82761100D01*
X161687667Y-82846997D01*
X161623379Y-82955013D01*
X161617978Y-82963653D01*
X161533177Y-83106403D01*
X161451450Y-83257104D01*
X161380459Y-83400102D01*
X161327866Y-83519741D01*
X161301333Y-83600367D01*
X161299611Y-83614091D01*
X161268319Y-83693916D01*
X161193559Y-83772566D01*
X161098625Y-83830622D01*
X161017496Y-83849264D01*
X160965664Y-83827476D01*
X160888049Y-83773160D01*
X160852694Y-83743602D01*
X160777495Y-83663258D01*
X160729829Y-83585876D01*
X160723002Y-83562479D01*
X160697169Y-83453957D01*
X160649884Y-83319082D01*
X160589948Y-83177518D01*
X160526164Y-83048931D01*
X160467332Y-82952987D01*
X160433420Y-82915485D01*
X160412370Y-82876807D01*
X160376403Y-82788813D01*
X160332096Y-82667972D01*
X160315964Y-82621343D01*
X160269066Y-82490398D01*
X160226795Y-82384149D01*
X160196340Y-82320295D01*
X160190191Y-82311629D01*
X160162833Y-82250989D01*
X160158749Y-82215778D01*
X160140977Y-82149499D01*
X160096179Y-82056152D01*
X160072237Y-82015757D01*
X160010324Y-81905310D01*
X159989352Y-81821339D01*
X160005585Y-81737467D01*
X160025884Y-81688639D01*
X160090153Y-81618335D01*
X160182249Y-81595683D01*
X160279745Y-81620751D01*
X160356112Y-81687656D01*
X160424355Y-81778788D01*
X160496356Y-81869332D01*
X160555718Y-81954045D01*
X160592715Y-82029949D01*
X160593627Y-82033060D01*
X160619276Y-82102790D01*
X160664108Y-82206180D01*
X160696512Y-82275294D01*
X160745831Y-82386422D01*
X160781140Y-82482882D01*
X160791181Y-82522805D01*
X160821816Y-82611362D01*
X160848223Y-82652786D01*
X160887792Y-82725777D01*
X160917102Y-82820535D01*
X160954778Y-82915509D01*
X161011156Y-82946788D01*
X161078675Y-82914712D01*
X161149775Y-82819618D01*
X161155091Y-82809863D01*
X161200942Y-82715021D01*
X161228208Y-82641349D01*
X161231501Y-82622310D01*
X161255775Y-82564591D01*
X161283269Y-82534947D01*
X161326700Y-82478794D01*
X161385738Y-82376813D01*
X161451071Y-82247744D01*
X161513386Y-82110327D01*
X161563370Y-81983300D01*
X161575668Y-81946547D01*
X161618399Y-81849263D01*
X161686578Y-81731281D01*
X161734421Y-81661057D01*
X161810420Y-81565636D01*
X161871532Y-81515928D01*
X161938051Y-81498047D01*
X161974626Y-81496684D01*
X162078993Y-81515010D01*
G37*
G36*
X180535545Y-85444494D02*
G01*
X180625024Y-85459199D01*
X180697175Y-85486023D01*
X180769786Y-85536007D01*
X180860639Y-85620192D01*
X180927533Y-85687843D01*
X181030928Y-85795716D01*
X181094890Y-85872345D01*
X181128879Y-85935472D01*
X181142353Y-86002838D01*
X181144771Y-86092186D01*
X181144772Y-86095328D01*
X181137907Y-86203379D01*
X181120295Y-86281321D01*
X181105272Y-86304574D01*
X181091625Y-86327692D01*
X181083633Y-86381179D01*
X181081459Y-86471677D01*
X181085267Y-86605826D01*
X181095222Y-86790268D01*
X181111489Y-87031643D01*
X181129179Y-87270486D01*
X181150175Y-87570521D01*
X181161656Y-87808717D01*
X181162369Y-87991952D01*
X181151063Y-88127102D01*
X181126484Y-88221044D01*
X181087381Y-88280654D01*
X181032500Y-88312809D01*
X180960590Y-88324385D01*
X180937142Y-88324876D01*
X180855035Y-88315288D01*
X180812038Y-88299452D01*
X180766838Y-88242293D01*
X180735724Y-88135680D01*
X180717281Y-87972729D01*
X180710867Y-87806862D01*
X180704562Y-87627687D01*
X180693053Y-87435175D01*
X180678770Y-87269577D01*
X180678015Y-87262628D01*
X180666089Y-87113406D01*
X180670534Y-87017939D01*
X180692081Y-86962563D01*
X180694250Y-86959835D01*
X180713638Y-86917545D01*
X180684615Y-86904885D01*
X180620295Y-86919787D01*
X180533791Y-86960183D01*
X180479845Y-86993647D01*
X180318142Y-87064002D01*
X180129837Y-87082074D01*
X179931802Y-87049430D01*
X179740907Y-86967641D01*
X179665412Y-86917897D01*
X179593985Y-86853791D01*
X179555244Y-86797466D01*
X179552946Y-86786039D01*
X179530937Y-86729173D01*
X179477437Y-86656298D01*
X179472291Y-86650647D01*
X179398108Y-86537702D01*
X179340276Y-86390543D01*
X179311762Y-86244084D01*
X179310712Y-86215666D01*
X179319684Y-86160126D01*
X179741553Y-86160126D01*
X179748712Y-86295857D01*
X179812556Y-86423465D01*
X179921092Y-86526282D01*
X180046314Y-86583642D01*
X180136977Y-86608489D01*
X180193456Y-86624412D01*
X180201458Y-86626898D01*
X180234961Y-86616221D01*
X180311920Y-86585168D01*
X180375266Y-86558036D01*
X180542239Y-86448786D01*
X180668302Y-86290330D01*
X180730279Y-86143154D01*
X180735251Y-86038432D01*
X180681078Y-85951880D01*
X180563584Y-85878129D01*
X180505320Y-85853806D01*
X180406028Y-85819241D01*
X180343409Y-85811804D01*
X180290719Y-85830902D01*
X180262486Y-85848411D01*
X180170446Y-85890051D01*
X180095835Y-85903592D01*
X180009552Y-85925934D01*
X179933600Y-85972802D01*
X179862563Y-86022479D01*
X179808756Y-86042012D01*
X179773042Y-86072288D01*
X179744402Y-86146532D01*
X179741553Y-86160126D01*
X179319684Y-86160126D01*
X179335367Y-86063046D01*
X179400248Y-85908093D01*
X179491729Y-85778615D01*
X179550079Y-85727196D01*
X179757230Y-85609449D01*
X179991490Y-85517955D01*
X180230476Y-85459135D01*
X180451807Y-85439409D01*
X180535545Y-85444494D01*
G37*
G36*
X164185208Y-76478973D02*
G01*
X164349781Y-76523571D01*
X164461731Y-76596405D01*
X164516301Y-76691699D01*
X164508736Y-76803676D01*
X164489219Y-76848214D01*
X164459668Y-76883925D01*
X164407663Y-76904496D01*
X164316570Y-76913874D01*
X164203728Y-76915974D01*
X164017949Y-76922738D01*
X163857378Y-76945697D01*
X163687421Y-76990932D01*
X163585831Y-77024591D01*
X163487119Y-77074080D01*
X163417411Y-77137386D01*
X163391324Y-77199110D01*
X163397895Y-77222569D01*
X163437141Y-77244362D01*
X163526152Y-77277605D01*
X163647776Y-77316068D01*
X163684558Y-77326703D01*
X163819343Y-77366797D01*
X163933393Y-77404151D01*
X164005920Y-77431875D01*
X164014149Y-77435949D01*
X164083217Y-77463817D01*
X164112734Y-77468827D01*
X164190647Y-77486868D01*
X164278441Y-77530836D01*
X164351759Y-77585499D01*
X164386245Y-77635624D01*
X164386622Y-77640115D01*
X164406836Y-77699409D01*
X164458787Y-77788093D01*
X164504971Y-77852453D01*
X164577519Y-77963707D01*
X164631137Y-78077838D01*
X164646398Y-78130473D01*
X164655203Y-78217943D01*
X164630759Y-78275101D01*
X164560251Y-78333519D01*
X164479774Y-78405579D01*
X164425204Y-78480627D01*
X164420973Y-78490338D01*
X164374093Y-78562092D01*
X164296052Y-78639785D01*
X164276305Y-78655415D01*
X164208673Y-78698413D01*
X164130716Y-78727420D01*
X164024008Y-78746957D01*
X163870121Y-78761546D01*
X163832943Y-78764206D01*
X163674033Y-78773492D01*
X163565454Y-78773674D01*
X163488694Y-78762748D01*
X163425240Y-78738712D01*
X163383080Y-78715533D01*
X163272984Y-78654200D01*
X163165345Y-78599500D01*
X163155393Y-78594839D01*
X163039716Y-78525973D01*
X162983811Y-78447003D01*
X162978395Y-78343225D01*
X162982137Y-78320393D01*
X163032834Y-78204545D01*
X163123367Y-78135007D01*
X163238905Y-78115644D01*
X163364616Y-78150320D01*
X163441257Y-78200733D01*
X163515075Y-78231145D01*
X163627672Y-78243095D01*
X163761994Y-78239014D01*
X163900983Y-78221331D01*
X164027583Y-78192476D01*
X164124737Y-78154878D01*
X164175389Y-78110969D01*
X164178992Y-78095636D01*
X164152854Y-78044599D01*
X164089103Y-77977888D01*
X164009738Y-77914996D01*
X163936756Y-77875415D01*
X163927260Y-77872577D01*
X163647049Y-77799074D01*
X163392417Y-77725567D01*
X163171913Y-77654951D01*
X162994084Y-77590117D01*
X162867479Y-77533962D01*
X162803185Y-77492046D01*
X162761949Y-77415202D01*
X162737349Y-77302569D01*
X162733469Y-77186422D01*
X162753625Y-77100443D01*
X162809868Y-77036210D01*
X162886541Y-76982988D01*
X162973263Y-76924224D01*
X163067062Y-76841586D01*
X163087959Y-76819985D01*
X163166748Y-76750585D01*
X163239602Y-76711027D01*
X163259492Y-76707519D01*
X163333543Y-76684767D01*
X163399959Y-76638707D01*
X163484379Y-76589212D01*
X163617225Y-76543654D01*
X163777713Y-76506260D01*
X163945058Y-76481259D01*
X164098478Y-76472877D01*
X164185208Y-76478973D01*
G37*
G36*
X183893526Y-85542817D02*
G01*
X183919448Y-85633730D01*
X183919754Y-85680556D01*
X183894072Y-85805488D01*
X183824273Y-85898245D01*
X183705231Y-85961300D01*
X183531817Y-85997129D01*
X183298905Y-86008205D01*
X183242037Y-86007620D01*
X183103934Y-86005446D01*
X182989044Y-86004285D01*
X182917898Y-86004328D01*
X182909622Y-86004539D01*
X182848439Y-86005933D01*
X182743660Y-86007419D01*
X182648577Y-86008395D01*
X182439439Y-86010195D01*
X182398478Y-86155872D01*
X182371327Y-86272808D01*
X182349404Y-86404349D01*
X182334373Y-86533244D01*
X182327895Y-86642248D01*
X182331633Y-86714111D01*
X182342822Y-86733284D01*
X182394217Y-86725460D01*
X182481305Y-86707282D01*
X182498267Y-86703394D01*
X182594387Y-86692337D01*
X182731248Y-86690271D01*
X182880929Y-86697517D01*
X182896224Y-86698828D01*
X183053323Y-86717649D01*
X183167711Y-86745932D01*
X183265872Y-86791841D01*
X183329805Y-86832469D01*
X183423546Y-86903746D01*
X183492424Y-86970042D01*
X183514457Y-87002234D01*
X183534626Y-87103051D01*
X183539850Y-87247253D01*
X183531776Y-87411036D01*
X183512052Y-87570593D01*
X183482322Y-87702119D01*
X183462492Y-87753505D01*
X183340865Y-87941381D01*
X183182076Y-88102791D01*
X183029106Y-88204818D01*
X182935909Y-88258272D01*
X182867541Y-88308632D01*
X182854804Y-88321899D01*
X182789119Y-88360990D01*
X182665453Y-88392738D01*
X182494817Y-88415280D01*
X182288223Y-88426750D01*
X182230155Y-88427687D01*
X182098897Y-88426601D01*
X182018080Y-88417199D01*
X181969009Y-88394341D01*
X181932988Y-88352888D01*
X181927362Y-88344455D01*
X181876863Y-88225726D01*
X181893193Y-88121669D01*
X181958214Y-88042430D01*
X182015422Y-88003115D01*
X182088984Y-87978248D01*
X182197167Y-87963665D01*
X182337617Y-87955952D01*
X182474319Y-87948795D01*
X182579254Y-87934509D01*
X182670827Y-87905881D01*
X182767446Y-87855697D01*
X182887519Y-87776743D01*
X183002576Y-87695352D01*
X183120097Y-87580517D01*
X183180270Y-87450128D01*
X183186461Y-87393062D01*
X183154445Y-87322969D01*
X183067601Y-87264657D01*
X182939736Y-87220997D01*
X182784657Y-87194866D01*
X182616169Y-87189138D01*
X182448081Y-87206686D01*
X182373246Y-87223764D01*
X182180718Y-87265820D01*
X182041304Y-87267197D01*
X181949137Y-87223426D01*
X181898349Y-87130037D01*
X181883072Y-86982560D01*
X181889436Y-86855227D01*
X181913737Y-86622858D01*
X181945616Y-86389547D01*
X181982277Y-86171335D01*
X182020928Y-85984269D01*
X182058772Y-85844392D01*
X182071763Y-85808423D01*
X182102074Y-85742307D01*
X182139110Y-85691173D01*
X182192020Y-85652445D01*
X182269951Y-85623548D01*
X182382051Y-85601908D01*
X182537468Y-85584950D01*
X182745349Y-85570100D01*
X182962897Y-85557607D01*
X183172378Y-85545488D01*
X183365950Y-85533061D01*
X183529681Y-85521313D01*
X183649637Y-85511234D01*
X183705535Y-85504912D01*
X183824782Y-85501977D01*
X183893526Y-85542817D01*
G37*
G36*
X169911666Y-85395497D02*
G01*
X169999118Y-85424731D01*
X170004991Y-85428875D01*
X170064927Y-85493020D01*
X170101372Y-85548892D01*
X170149962Y-85608207D01*
X170190853Y-85626753D01*
X170237413Y-85658609D01*
X170275758Y-85743869D01*
X170304547Y-85867069D01*
X170322441Y-86012746D01*
X170328101Y-86165434D01*
X170320186Y-86309672D01*
X170297357Y-86429994D01*
X170266512Y-86500052D01*
X170225540Y-86594436D01*
X170193417Y-86746442D01*
X170171424Y-86932613D01*
X170155197Y-87104157D01*
X170138250Y-87273388D01*
X170123384Y-87412657D01*
X170118540Y-87454681D01*
X170109770Y-87573683D01*
X170122483Y-87654780D01*
X170162209Y-87727412D01*
X170172427Y-87741550D01*
X170214931Y-87804671D01*
X170230750Y-87858478D01*
X170221969Y-87929069D01*
X170195243Y-88026860D01*
X170159266Y-88133029D01*
X170114924Y-88203218D01*
X170043437Y-88257637D01*
X169926194Y-88316420D01*
X169888264Y-88301987D01*
X169833788Y-88253927D01*
X169787589Y-88174955D01*
X169751273Y-88061588D01*
X169741970Y-88010964D01*
X169724190Y-87910221D01*
X169704849Y-87842303D01*
X169695599Y-87827285D01*
X169686396Y-87789678D01*
X169680170Y-87704098D01*
X169677154Y-87591727D01*
X169677582Y-87473747D01*
X169681687Y-87371340D01*
X169689701Y-87305688D01*
X169689852Y-87305091D01*
X169695073Y-87247266D01*
X169694646Y-87171571D01*
X169684908Y-87103027D01*
X169649051Y-87087171D01*
X169595385Y-87098903D01*
X169506528Y-87117927D01*
X169448314Y-87123291D01*
X169379281Y-87112428D01*
X169276882Y-87087377D01*
X169162651Y-87054585D01*
X169058122Y-87020503D01*
X168984826Y-86991578D01*
X168963845Y-86978194D01*
X168922283Y-86943096D01*
X168871453Y-86912580D01*
X168812204Y-86854523D01*
X168762607Y-86762191D01*
X168756003Y-86743027D01*
X168713645Y-86621011D01*
X168666196Y-86503157D01*
X168663837Y-86497874D01*
X168635061Y-86375075D01*
X168634430Y-86262514D01*
X169047278Y-86262514D01*
X169050883Y-86352526D01*
X169097339Y-86488660D01*
X169180223Y-86569474D01*
X169304914Y-86602471D01*
X169446323Y-86605988D01*
X169551695Y-86581913D01*
X169651784Y-86520781D01*
X169701082Y-86480553D01*
X169801641Y-86370862D01*
X169855100Y-86242789D01*
X169861322Y-86215036D01*
X169886184Y-86101354D01*
X169910251Y-86004654D01*
X169916745Y-85982070D01*
X169921656Y-85921956D01*
X169878760Y-85883004D01*
X169841494Y-85867086D01*
X169734243Y-85844722D01*
X169611278Y-85859035D01*
X169457789Y-85912866D01*
X169354884Y-85960400D01*
X169190220Y-86056418D01*
X169089422Y-86154882D01*
X169047278Y-86262514D01*
X168634430Y-86262514D01*
X168634171Y-86216401D01*
X168659848Y-86048721D01*
X168690953Y-85945522D01*
X168763895Y-85829754D01*
X168885702Y-85714053D01*
X169037280Y-85611579D01*
X169199535Y-85535491D01*
X169336309Y-85500769D01*
X169452496Y-85478101D01*
X169550890Y-85445592D01*
X169576865Y-85432285D01*
X169670102Y-85399516D01*
X169791848Y-85387172D01*
X169911666Y-85395497D01*
G37*
G36*
X171138794Y-71917266D02*
G01*
X171282465Y-71980619D01*
X171369068Y-72065436D01*
X171426157Y-72141394D01*
X171504120Y-72234692D01*
X171529851Y-72263646D01*
X171595116Y-72349689D01*
X171633261Y-72426999D01*
X171637335Y-72449888D01*
X171655017Y-72523318D01*
X171698440Y-72615782D01*
X171707088Y-72630294D01*
X171739678Y-72692098D01*
X171758906Y-72759894D01*
X171766908Y-72851343D01*
X171765819Y-72984108D01*
X171761985Y-73084243D01*
X171745639Y-73312022D01*
X171719213Y-73495478D01*
X171684306Y-73626782D01*
X171642518Y-73698103D01*
X171635530Y-73703284D01*
X171600277Y-73747136D01*
X171559034Y-73826537D01*
X171554456Y-73837230D01*
X171470575Y-73964657D01*
X171337545Y-74084649D01*
X171175044Y-74182500D01*
X171014447Y-74240806D01*
X170889711Y-74277911D01*
X170779380Y-74322635D01*
X170734019Y-74347817D01*
X170636572Y-74387556D01*
X170493585Y-74414879D01*
X170327774Y-74428810D01*
X170161855Y-74428371D01*
X170018547Y-74412582D01*
X169924393Y-74382673D01*
X169850379Y-74335493D01*
X169809055Y-74297687D01*
X169807733Y-74295173D01*
X169773436Y-74251691D01*
X169727457Y-74208661D01*
X169651183Y-74127957D01*
X169594754Y-74025122D01*
X169555652Y-73889795D01*
X169531359Y-73711617D01*
X169519358Y-73480227D01*
X169519014Y-73458481D01*
X169923733Y-73458481D01*
X169933981Y-73648444D01*
X169966919Y-73784874D01*
X170027237Y-73874962D01*
X170119624Y-73925901D01*
X170248769Y-73944883D01*
X170408861Y-73939938D01*
X170552245Y-73924140D01*
X170678422Y-73902028D01*
X170763482Y-73877945D01*
X170772213Y-73873926D01*
X170869833Y-73828665D01*
X170966897Y-73789332D01*
X171100055Y-73705355D01*
X171212706Y-73567008D01*
X171297770Y-73387817D01*
X171348168Y-73181308D01*
X171358969Y-73040249D01*
X171347330Y-72920762D01*
X171315504Y-72796333D01*
X171271618Y-72691424D01*
X171223797Y-72630500D01*
X171222601Y-72629740D01*
X171190839Y-72579585D01*
X171187472Y-72554854D01*
X171168412Y-72491978D01*
X171121952Y-72409837D01*
X171116241Y-72401645D01*
X171044185Y-72334384D01*
X170948800Y-72312860D01*
X170817966Y-72336003D01*
X170726704Y-72367309D01*
X170623348Y-72392946D01*
X170505512Y-72404438D01*
X170498929Y-72404484D01*
X170426573Y-72410974D01*
X170360622Y-72437150D01*
X170284462Y-72493069D01*
X170181477Y-72588785D01*
X170160578Y-72609274D01*
X169952587Y-72814064D01*
X169931486Y-73207792D01*
X169923733Y-73458481D01*
X169519014Y-73458481D01*
X169517195Y-73343341D01*
X169516790Y-73137993D01*
X169520076Y-72987508D01*
X169528527Y-72877574D01*
X169543619Y-72793881D01*
X169566823Y-72722116D01*
X169585738Y-72677761D01*
X169670077Y-72529683D01*
X169781837Y-72385611D01*
X169907819Y-72258029D01*
X170034826Y-72159423D01*
X170149660Y-72102278D01*
X170203856Y-72093040D01*
X170273821Y-72076959D01*
X170351615Y-72042427D01*
X170554290Y-71953764D01*
X170761709Y-71903545D01*
X170960876Y-71891477D01*
X171138794Y-71917266D01*
G37*
G36*
X175882648Y-66781053D02*
G01*
X175938258Y-66802487D01*
X175964640Y-66843924D01*
X175972145Y-66926542D01*
X175972254Y-66964365D01*
X175963662Y-67055778D01*
X175935393Y-67160769D01*
X175882373Y-67293738D01*
X175799528Y-67469082D01*
X175781927Y-67504514D01*
X175708511Y-67656277D01*
X175648337Y-67789707D01*
X175607576Y-67890476D01*
X175592400Y-67944258D01*
X175592399Y-67944517D01*
X175579348Y-68024456D01*
X175544672Y-68142145D01*
X175495085Y-68281143D01*
X175437303Y-68425008D01*
X175378038Y-68557297D01*
X175324005Y-68661569D01*
X175281920Y-68721383D01*
X175272303Y-68728347D01*
X175247711Y-68768191D01*
X175246350Y-68782332D01*
X175231892Y-68832102D01*
X175193654Y-68925038D01*
X175139338Y-69042669D01*
X175128498Y-69064938D01*
X175064499Y-69204178D01*
X175008743Y-69340957D01*
X174973025Y-69446291D01*
X174972400Y-69448608D01*
X174921490Y-69570326D01*
X174850601Y-69626108D01*
X174758650Y-69616596D01*
X174721220Y-69597918D01*
X174671786Y-69543614D01*
X174627683Y-69455647D01*
X174623580Y-69443876D01*
X174604917Y-69365692D01*
X174607587Y-69287070D01*
X174634260Y-69183388D01*
X174660133Y-69106745D01*
X174714742Y-68966164D01*
X174776594Y-68828423D01*
X174818332Y-68748377D01*
X174867662Y-68651584D01*
X174896875Y-68571736D01*
X174900301Y-68549399D01*
X174917381Y-68499855D01*
X174934905Y-68491880D01*
X174965229Y-68463694D01*
X174969510Y-68437641D01*
X174950055Y-68399952D01*
X174899713Y-68405555D01*
X174846536Y-68404738D01*
X174777750Y-68365936D01*
X174681121Y-68281707D01*
X174655580Y-68256996D01*
X174553328Y-68162732D01*
X174456578Y-68083316D01*
X174389996Y-68038197D01*
X174298328Y-67973400D01*
X174180725Y-67867242D01*
X174051071Y-67734967D01*
X173923250Y-67591823D01*
X173811148Y-67453054D01*
X173728650Y-67333905D01*
X173700354Y-67280976D01*
X173658130Y-67181004D01*
X173643486Y-67120539D01*
X173655473Y-67076032D01*
X173690131Y-67027757D01*
X173782573Y-66956194D01*
X173887259Y-66945531D01*
X173987524Y-66993786D01*
X174051765Y-67070754D01*
X174115840Y-67160820D01*
X174209107Y-67269126D01*
X174318955Y-67383577D01*
X174432767Y-67492076D01*
X174537932Y-67582527D01*
X174621833Y-67642832D01*
X174667631Y-67661363D01*
X174717250Y-67684717D01*
X174793162Y-67743302D01*
X174876499Y-67819906D01*
X174948394Y-67897315D01*
X174987679Y-67953356D01*
X175047827Y-68015404D01*
X175100145Y-68035772D01*
X175158124Y-68030658D01*
X175176631Y-67979859D01*
X175177140Y-67959954D01*
X175188812Y-67886264D01*
X175209745Y-67852925D01*
X175234162Y-67809113D01*
X175257746Y-67722075D01*
X175265643Y-67677453D01*
X175297238Y-67557663D01*
X175347193Y-67450872D01*
X175362806Y-67428396D01*
X175413791Y-67350242D01*
X175478415Y-67232831D01*
X175543277Y-67100615D01*
X175547495Y-67091404D01*
X175628939Y-66930676D01*
X175702789Y-66829689D01*
X175777287Y-66780811D01*
X175860676Y-66776410D01*
X175882648Y-66781053D01*
G37*
G36*
X159613395Y-66982925D02*
G01*
X159740478Y-67003327D01*
X159864377Y-67028692D01*
X159961620Y-67052259D01*
X160011835Y-67069072D01*
X160012546Y-67069514D01*
X160069577Y-67135212D01*
X160107177Y-67231257D01*
X160122224Y-67335068D01*
X160111599Y-67424064D01*
X160072180Y-67475665D01*
X160068870Y-67477063D01*
X160008116Y-67481827D01*
X159903068Y-67473636D01*
X159783379Y-67455444D01*
X159663902Y-67435035D01*
X159577944Y-67430088D01*
X159499361Y-67444269D01*
X159402013Y-67481243D01*
X159310791Y-67521710D01*
X159178230Y-67591667D01*
X159045172Y-67679065D01*
X158925394Y-67772682D01*
X158832671Y-67861295D01*
X158780781Y-67933682D01*
X158774415Y-67958673D01*
X158792979Y-67992289D01*
X158854258Y-68018746D01*
X158966633Y-68040216D01*
X159138483Y-68058871D01*
X159172371Y-68061765D01*
X159419364Y-68109452D01*
X159670718Y-68205606D01*
X159896801Y-68338409D01*
X159931791Y-68364717D01*
X159983075Y-68398256D01*
X160068404Y-68448475D01*
X160104108Y-68468532D01*
X160238941Y-68578269D01*
X160334415Y-68726354D01*
X160386198Y-68895531D01*
X160389960Y-69068541D01*
X160341368Y-69228129D01*
X160308232Y-69281720D01*
X160235950Y-69349676D01*
X160120924Y-69426866D01*
X159986127Y-69500808D01*
X159854530Y-69559020D01*
X159749103Y-69589020D01*
X159740933Y-69589983D01*
X159672827Y-69597950D01*
X159554409Y-69613204D01*
X159403896Y-69633357D01*
X159278814Y-69650541D01*
X159108911Y-69674053D01*
X158990670Y-69688873D01*
X158907135Y-69695345D01*
X158841350Y-69693818D01*
X158776361Y-69684636D01*
X158695211Y-69668146D01*
X158670600Y-69662962D01*
X158511634Y-69600724D01*
X158419715Y-69520904D01*
X158347477Y-69420858D01*
X158330780Y-69338456D01*
X158367520Y-69253045D01*
X158389341Y-69222843D01*
X158441917Y-69169811D01*
X158504758Y-69154339D01*
X158587550Y-69163751D01*
X158851779Y-69198544D01*
X159093924Y-69210095D01*
X159298830Y-69198286D01*
X159430616Y-69170379D01*
X159560855Y-69136755D01*
X159690508Y-69116979D01*
X159734589Y-69114769D01*
X159859382Y-69099697D01*
X159944070Y-69059468D01*
X159978051Y-69001558D01*
X159964750Y-68952422D01*
X159900480Y-68895771D01*
X159852284Y-68878779D01*
X159793256Y-68858004D01*
X159777957Y-68837290D01*
X159748867Y-68809498D01*
X159673028Y-68763719D01*
X159567591Y-68708557D01*
X159449703Y-68652618D01*
X159336515Y-68604507D01*
X159258884Y-68576826D01*
X159172186Y-68559524D01*
X159053363Y-68546459D01*
X158999347Y-68543243D01*
X158864187Y-68526983D01*
X158700368Y-68491987D01*
X158531859Y-68444986D01*
X158382629Y-68392712D01*
X158276646Y-68341896D01*
X158272127Y-68339002D01*
X158197223Y-68261289D01*
X158176927Y-68158503D01*
X158211650Y-68025528D01*
X158301801Y-67857251D01*
X158311924Y-67841325D01*
X158441182Y-67645591D01*
X158550452Y-67498168D01*
X158653432Y-67386908D01*
X158763822Y-67299663D01*
X158895319Y-67224286D01*
X159061624Y-67148631D01*
X159121209Y-67123709D01*
X159246638Y-67071226D01*
X159356030Y-67024347D01*
X159422847Y-66994524D01*
X159498188Y-66977383D01*
X159613395Y-66982925D01*
G37*
G36*
X166324547Y-66882119D02*
G01*
X166492794Y-66920613D01*
X166676267Y-66990276D01*
X166796566Y-67072631D01*
X166859296Y-67172667D01*
X166871963Y-67258052D01*
X166846485Y-67358391D01*
X166774064Y-67412822D01*
X166660719Y-67419989D01*
X166512469Y-67378539D01*
X166453398Y-67352269D01*
X166363154Y-67313658D01*
X166290893Y-67303323D01*
X166202858Y-67319364D01*
X166147772Y-67335076D01*
X166041464Y-67374113D01*
X165960397Y-67417158D01*
X165937540Y-67436540D01*
X165879563Y-67480407D01*
X165848642Y-67488338D01*
X165797754Y-67516012D01*
X165732864Y-67585066D01*
X165670051Y-67674550D01*
X165625394Y-67763516D01*
X165617220Y-67789859D01*
X165618159Y-67863445D01*
X165638410Y-67898941D01*
X165701768Y-67930463D01*
X165815283Y-67968597D01*
X165960947Y-68007982D01*
X166120751Y-68043260D01*
X166127957Y-68044659D01*
X166373142Y-68109483D01*
X166577435Y-68206432D01*
X166755760Y-68345878D01*
X166923040Y-68538194D01*
X167005151Y-68654355D01*
X167109365Y-68843729D01*
X167153169Y-69009073D01*
X167136263Y-69147584D01*
X167068711Y-69247156D01*
X167003262Y-69300057D01*
X166956801Y-69323007D01*
X166956245Y-69323028D01*
X166911170Y-69341472D01*
X166831139Y-69387988D01*
X166774064Y-69425182D01*
X166632407Y-69503650D01*
X166466834Y-69569447D01*
X166304712Y-69613312D01*
X166179865Y-69626270D01*
X166097110Y-69630588D01*
X165978622Y-69644733D01*
X165899449Y-69657206D01*
X165786553Y-69674238D01*
X165714956Y-69671993D01*
X165658111Y-69644868D01*
X165596110Y-69593203D01*
X165512147Y-69531516D01*
X165437042Y-69497650D01*
X165420522Y-69495423D01*
X165345651Y-69468158D01*
X165279926Y-69399743D01*
X165232614Y-69310249D01*
X165212979Y-69219747D01*
X165230288Y-69148308D01*
X165251172Y-69128586D01*
X165325999Y-69108110D01*
X165440178Y-69102832D01*
X165567483Y-69110924D01*
X165681688Y-69130563D01*
X165756565Y-69159923D01*
X165761783Y-69164122D01*
X165803421Y-69192507D01*
X165858756Y-69204471D01*
X165946007Y-69201166D01*
X166079938Y-69184236D01*
X166314243Y-69144345D01*
X166482793Y-69100464D01*
X166588985Y-69051513D01*
X166631065Y-69008457D01*
X166638748Y-68928459D01*
X166601600Y-68828447D01*
X166530260Y-68729797D01*
X166463247Y-68671299D01*
X166366806Y-68619112D01*
X166236031Y-68566074D01*
X166098461Y-68521653D01*
X165981633Y-68495318D01*
X165941408Y-68491880D01*
X165852853Y-68478735D01*
X165792188Y-68459670D01*
X165692725Y-68426327D01*
X165622770Y-68408418D01*
X165539850Y-68375518D01*
X165435879Y-68313683D01*
X165327487Y-68235741D01*
X165231299Y-68154522D01*
X165163944Y-68082852D01*
X165141717Y-68037273D01*
X165153773Y-67964107D01*
X165185325Y-67847534D01*
X165229453Y-67708117D01*
X165279239Y-67566421D01*
X165327761Y-67443008D01*
X165368100Y-67358441D01*
X165372715Y-67350851D01*
X165441556Y-67257915D01*
X165513564Y-67183118D01*
X165570954Y-67144235D01*
X165581483Y-67142200D01*
X165623013Y-67125465D01*
X165705380Y-67081707D01*
X165809297Y-67021263D01*
X165993977Y-66925487D01*
X166158101Y-66880229D01*
X166324547Y-66882119D01*
G37*
G36*
X186817563Y-75242696D02*
G01*
X186913563Y-75305249D01*
X186948652Y-75345075D01*
X186969228Y-75397351D01*
X186978269Y-75478943D01*
X186978754Y-75606714D01*
X186977423Y-75666708D01*
X186978463Y-75842143D01*
X186987866Y-76049266D01*
X187003769Y-76251315D01*
X187010004Y-76309563D01*
X187031800Y-76602137D01*
X187022545Y-76842191D01*
X187017591Y-76880543D01*
X187000073Y-77019023D01*
X186987972Y-77147991D01*
X186984320Y-77222677D01*
X186983624Y-77339878D01*
X187155166Y-77179421D01*
X187248281Y-77098100D01*
X187326252Y-77040297D01*
X187371447Y-77018750D01*
X187431102Y-77003195D01*
X187514782Y-76965766D01*
X187520001Y-76963004D01*
X187608526Y-76930281D01*
X187736809Y-76899828D01*
X187863275Y-76880067D01*
X188057212Y-76872229D01*
X188211937Y-76904015D01*
X188349345Y-76982554D01*
X188448343Y-77070553D01*
X188552189Y-77174050D01*
X188556548Y-77787101D01*
X188559282Y-77986575D01*
X188564179Y-78161726D01*
X188570711Y-78300953D01*
X188578352Y-78392651D01*
X188585481Y-78424726D01*
X188604869Y-78480545D01*
X188609797Y-78573996D01*
X188601696Y-78675351D01*
X188581999Y-78754880D01*
X188568529Y-78776892D01*
X188502256Y-78810186D01*
X188417537Y-78816834D01*
X188344445Y-78798068D01*
X188314827Y-78766511D01*
X188281950Y-78675128D01*
X188237014Y-78585510D01*
X188201351Y-78524276D01*
X188152725Y-78380742D01*
X188147720Y-78264740D01*
X188151087Y-78177110D01*
X188152595Y-78065200D01*
X188152210Y-77918087D01*
X188149896Y-77724849D01*
X188145616Y-77474561D01*
X188145020Y-77442873D01*
X188137162Y-77366709D01*
X188103088Y-77336007D01*
X188024813Y-77330407D01*
X187923748Y-77341110D01*
X187794085Y-77368499D01*
X187716439Y-77390394D01*
X187589793Y-77440165D01*
X187492751Y-77508153D01*
X187395674Y-77615470D01*
X187389375Y-77623400D01*
X187311323Y-77729540D01*
X187248992Y-77827566D01*
X187221218Y-77883509D01*
X187184792Y-77979046D01*
X187159745Y-78039808D01*
X187113158Y-78172404D01*
X187075389Y-78324630D01*
X187054594Y-78461368D01*
X187052834Y-78500085D01*
X187041275Y-78610339D01*
X187019086Y-78695048D01*
X186984844Y-78754213D01*
X186926695Y-78779416D01*
X186848104Y-78783813D01*
X186755553Y-78775659D01*
X186695921Y-78755393D01*
X186689072Y-78748544D01*
X186680018Y-78702402D01*
X186670686Y-78601138D01*
X186662073Y-78458823D01*
X186655177Y-78289534D01*
X186654141Y-78255424D01*
X186647726Y-78076708D01*
X186639609Y-77916541D01*
X186630772Y-77791067D01*
X186622193Y-77716432D01*
X186621092Y-77711061D01*
X186614369Y-77646090D01*
X186609575Y-77527046D01*
X186607051Y-77369049D01*
X186607138Y-77187219D01*
X186607821Y-77122778D01*
X186610741Y-76841567D01*
X186610929Y-76620678D01*
X186608018Y-76451266D01*
X186601641Y-76324484D01*
X186591432Y-76231485D01*
X186577023Y-76163422D01*
X186566739Y-76132259D01*
X186553356Y-76047165D01*
X186553381Y-75915386D01*
X186564515Y-75757640D01*
X186584460Y-75594647D01*
X186610918Y-75447125D01*
X186641591Y-75335793D01*
X186659310Y-75297677D01*
X186728642Y-75238146D01*
X186817563Y-75242696D01*
G37*
G36*
X168679374Y-71825225D02*
G01*
X168767172Y-71842419D01*
X168783469Y-71851667D01*
X168824463Y-71925626D01*
X168828880Y-72030036D01*
X168798283Y-72137596D01*
X168763970Y-72192045D01*
X168721622Y-72228460D01*
X168656130Y-72258413D01*
X168559741Y-72283109D01*
X168424700Y-72303748D01*
X168243255Y-72321532D01*
X168007651Y-72337665D01*
X167729637Y-72352408D01*
X167563036Y-72361719D01*
X167421665Y-72371972D01*
X167319850Y-72381962D01*
X167271915Y-72390485D01*
X167270989Y-72390969D01*
X167258021Y-72431768D01*
X167250343Y-72523039D01*
X167249397Y-72646151D01*
X167249860Y-72664065D01*
X167257455Y-72802320D01*
X167278117Y-72889647D01*
X167323508Y-72932880D01*
X167405290Y-72938851D01*
X167535125Y-72914392D01*
X167634746Y-72889546D01*
X167780388Y-72854494D01*
X167920477Y-72824660D01*
X168021123Y-72807061D01*
X168144641Y-72788177D01*
X168261597Y-72767171D01*
X168271801Y-72765104D01*
X168399708Y-72762665D01*
X168488082Y-72785052D01*
X168557757Y-72824066D01*
X168586912Y-72880588D01*
X168592104Y-72961012D01*
X168575586Y-73075016D01*
X168519988Y-73158198D01*
X168416244Y-73217701D01*
X168255285Y-73260665D01*
X168198899Y-73270675D01*
X168060067Y-73295460D01*
X167935380Y-73321132D01*
X167853352Y-73341715D01*
X167766822Y-73361148D01*
X167640960Y-73381025D01*
X167524605Y-73394754D01*
X167400293Y-73411215D01*
X167301123Y-73432105D01*
X167251164Y-73451514D01*
X167229758Y-73501498D01*
X167214896Y-73597876D01*
X167207537Y-73718058D01*
X167208638Y-73839455D01*
X167219159Y-73939475D01*
X167228912Y-73976177D01*
X167277157Y-74011452D01*
X167380114Y-74030471D01*
X167525480Y-74034269D01*
X167700951Y-74023883D01*
X167894225Y-74000350D01*
X168093000Y-73964705D01*
X168284972Y-73917985D01*
X168417903Y-73876011D01*
X168574927Y-73844683D01*
X168699383Y-73873056D01*
X168789242Y-73960592D01*
X168798716Y-73977106D01*
X168821995Y-74043639D01*
X168810637Y-74115374D01*
X168782097Y-74182453D01*
X168729449Y-74264526D01*
X168674982Y-74306081D01*
X168664292Y-74307754D01*
X168594236Y-74325601D01*
X168573071Y-74340288D01*
X168513347Y-74368122D01*
X168397735Y-74396576D01*
X168239528Y-74424281D01*
X168052018Y-74449866D01*
X167848499Y-74471961D01*
X167642264Y-74489196D01*
X167446605Y-74500200D01*
X167274816Y-74503603D01*
X167140190Y-74498035D01*
X167096685Y-74492481D01*
X166973234Y-74438262D01*
X166880083Y-74322840D01*
X166817156Y-74145954D01*
X166784381Y-73907341D01*
X166781681Y-73606740D01*
X166792359Y-73422975D01*
X166806513Y-73256087D01*
X166821124Y-73111695D01*
X166834454Y-73005397D01*
X166844640Y-72953119D01*
X166850349Y-72892221D01*
X166844376Y-72788740D01*
X166832590Y-72696185D01*
X166817960Y-72583476D01*
X166819829Y-72498240D01*
X166843062Y-72413126D01*
X166892523Y-72300780D01*
X166909036Y-72266314D01*
X166970071Y-72146638D01*
X167018806Y-72075749D01*
X167069349Y-72038461D01*
X167135803Y-72019588D01*
X167138698Y-72019055D01*
X167220490Y-72003920D01*
X167351681Y-71979392D01*
X167513665Y-71948958D01*
X167675074Y-71918518D01*
X167913902Y-71878214D01*
X168144968Y-71848055D01*
X168357050Y-71828720D01*
X168538927Y-71820884D01*
X168679374Y-71825225D01*
G37*
G36*
X158019171Y-80020011D02*
G01*
X158097966Y-80084702D01*
X158151060Y-80207627D01*
X158164519Y-80278301D01*
X158196826Y-80556696D01*
X158210743Y-80788843D01*
X158207042Y-80994997D01*
X158196533Y-81116030D01*
X158183490Y-81275019D01*
X158177768Y-81436274D01*
X158180263Y-81557242D01*
X158192949Y-81738918D01*
X158355713Y-81738918D01*
X158459585Y-81732228D01*
X158534706Y-81715308D01*
X158552069Y-81705325D01*
X158601015Y-81687554D01*
X158699205Y-81670671D01*
X158826675Y-81656314D01*
X158963465Y-81646119D01*
X159089611Y-81641725D01*
X159185152Y-81644767D01*
X159218862Y-81650643D01*
X159278201Y-81692606D01*
X159334858Y-81764827D01*
X159368940Y-81838312D01*
X159369756Y-81908656D01*
X159345538Y-81992378D01*
X159312596Y-82080302D01*
X159286639Y-82136235D01*
X159281948Y-82142786D01*
X159241494Y-82154943D01*
X159149514Y-82171568D01*
X159023287Y-82189676D01*
X158975962Y-82195602D01*
X158835418Y-82215343D01*
X158716836Y-82237037D01*
X158640753Y-82256775D01*
X158629757Y-82261475D01*
X158555777Y-82282937D01*
X158455826Y-82292558D01*
X158449710Y-82292596D01*
X158302238Y-82311664D01*
X158194072Y-82364503D01*
X158138425Y-82444566D01*
X158137742Y-82447174D01*
X158134913Y-82528047D01*
X158149275Y-82651521D01*
X158176021Y-82794578D01*
X158210345Y-82934199D01*
X158247443Y-83047363D01*
X158274271Y-83101136D01*
X158313159Y-83191770D01*
X158324689Y-83269234D01*
X158333183Y-83338758D01*
X158351977Y-83365349D01*
X158411970Y-83346708D01*
X158511580Y-83296977D01*
X158634214Y-83225443D01*
X158763280Y-83141393D01*
X158806917Y-83110726D01*
X158965518Y-83018505D01*
X159102378Y-82983082D01*
X159211948Y-83005040D01*
X159274362Y-83061604D01*
X159315349Y-83139848D01*
X159328232Y-83194422D01*
X159300795Y-83265577D01*
X159226495Y-83361971D01*
X159117346Y-83472465D01*
X158985362Y-83585918D01*
X158842558Y-83691193D01*
X158700948Y-83777148D01*
X158698105Y-83778649D01*
X158507881Y-83867181D01*
X158353832Y-83910421D01*
X158222150Y-83910943D01*
X158129414Y-83884713D01*
X158028065Y-83809000D01*
X157953080Y-83682390D01*
X157922519Y-83574170D01*
X157893562Y-83474114D01*
X157852939Y-83397279D01*
X157850066Y-83393832D01*
X157803071Y-83315152D01*
X157763244Y-83191398D01*
X157728734Y-83014861D01*
X157697694Y-82777831D01*
X157693848Y-82742460D01*
X157658782Y-82413714D01*
X157383141Y-82413714D01*
X157243328Y-82412015D01*
X157153807Y-82403512D01*
X157095680Y-82383095D01*
X157050047Y-82345657D01*
X157023997Y-82316620D01*
X156951596Y-82199825D01*
X156945511Y-82098036D01*
X157003965Y-82013871D01*
X157125180Y-81949951D01*
X157299935Y-81909924D01*
X157466264Y-81886389D01*
X157576263Y-81865704D01*
X157641757Y-81838698D01*
X157674575Y-81796202D01*
X157686543Y-81729046D01*
X157689489Y-81628059D01*
X157689927Y-81607549D01*
X157694647Y-81484144D01*
X157703657Y-81313107D01*
X157715721Y-81115797D01*
X157729606Y-80913571D01*
X157731617Y-80886199D01*
X157743505Y-80697943D01*
X157750737Y-80524116D01*
X157752875Y-80381478D01*
X157749479Y-80286790D01*
X157747695Y-80272459D01*
X157742543Y-80177758D01*
X157773694Y-80113644D01*
X157809820Y-80079531D01*
X157921010Y-80017103D01*
X158019171Y-80020011D01*
G37*
G36*
X185014125Y-76554420D02*
G01*
X185167525Y-76573294D01*
X185283764Y-76606027D01*
X185347371Y-76650693D01*
X185348151Y-76651942D01*
X185401863Y-76701099D01*
X185435055Y-76717694D01*
X185481967Y-76766336D01*
X185493920Y-76844712D01*
X185469272Y-76921892D01*
X185447222Y-76946835D01*
X185394751Y-76965509D01*
X185291560Y-76972775D01*
X185130528Y-76968914D01*
X185030711Y-76963197D01*
X184831046Y-76954681D01*
X184682818Y-76957790D01*
X184593862Y-76972310D01*
X184585983Y-76975520D01*
X184507191Y-77008860D01*
X184397273Y-77051065D01*
X184347726Y-77069031D01*
X184244196Y-77112600D01*
X184165847Y-77157691D01*
X184144877Y-77176066D01*
X184118447Y-77247876D01*
X184149256Y-77306722D01*
X184223749Y-77330407D01*
X184317491Y-77350362D01*
X184371906Y-77377840D01*
X184442760Y-77410088D01*
X184559978Y-77447216D01*
X184701480Y-77483835D01*
X184845185Y-77514559D01*
X184969012Y-77534001D01*
X185028498Y-77538037D01*
X185101846Y-77554810D01*
X185212434Y-77598356D01*
X185338969Y-77658515D01*
X185460158Y-77725127D01*
X185554709Y-77788033D01*
X185558241Y-77790808D01*
X185619845Y-77867873D01*
X185677865Y-77985834D01*
X185720975Y-78116815D01*
X185737848Y-78232883D01*
X185730019Y-78321694D01*
X185697491Y-78365690D01*
X185651336Y-78382765D01*
X185586578Y-78408722D01*
X185564823Y-78433129D01*
X185532938Y-78496640D01*
X185442158Y-78574618D01*
X185299793Y-78661367D01*
X185218774Y-78702756D01*
X185112208Y-78751431D01*
X185017365Y-78784490D01*
X184914393Y-78805977D01*
X184783439Y-78819938D01*
X184604651Y-78830417D01*
X184588452Y-78831190D01*
X184408488Y-78836841D01*
X184271000Y-78835294D01*
X184185787Y-78826874D01*
X184162500Y-78817084D01*
X184116255Y-78792891D01*
X184042677Y-78783813D01*
X183946146Y-78758043D01*
X183869040Y-78692520D01*
X183819212Y-78604926D01*
X183804511Y-78512942D01*
X183832790Y-78434250D01*
X183872793Y-78401227D01*
X183940095Y-78385527D01*
X184046962Y-78380634D01*
X184171937Y-78385055D01*
X184293561Y-78397293D01*
X184390376Y-78415852D01*
X184440923Y-78439238D01*
X184442105Y-78440905D01*
X184480504Y-78445964D01*
X184546713Y-78415482D01*
X184548170Y-78414534D01*
X184636937Y-78378518D01*
X184755042Y-78356649D01*
X184797251Y-78354091D01*
X184897136Y-78338842D01*
X185014248Y-78302333D01*
X185129758Y-78253112D01*
X185224839Y-78199726D01*
X185280662Y-78150720D01*
X185287984Y-78131336D01*
X185265147Y-78092662D01*
X185208182Y-78028835D01*
X185186293Y-78007237D01*
X185105902Y-77943250D01*
X185035504Y-77926122D01*
X184987315Y-77933650D01*
X184846153Y-77965168D01*
X184747052Y-77975941D01*
X184665879Y-77965439D01*
X184578502Y-77933134D01*
X184558710Y-77924261D01*
X184428405Y-77877351D01*
X184278517Y-77840406D01*
X184220416Y-77830989D01*
X184105872Y-77808818D01*
X184017030Y-77767796D01*
X183938947Y-77695620D01*
X183856681Y-77579987D01*
X183798490Y-77483590D01*
X183744735Y-77382370D01*
X183724118Y-77303157D01*
X183730540Y-77210943D01*
X183741036Y-77153802D01*
X183775314Y-77032545D01*
X183833196Y-76944062D01*
X183917365Y-76868754D01*
X184143759Y-76719969D01*
X184389365Y-76621179D01*
X184657728Y-76565958D01*
X184839035Y-76551332D01*
X185014125Y-76554420D01*
G37*
G36*
X160647643Y-75413394D02*
G01*
X160678398Y-75437814D01*
X160696493Y-75492896D01*
X160709222Y-75595957D01*
X160714090Y-75725821D01*
X160714040Y-75740607D01*
X160717737Y-75894275D01*
X160729295Y-76044702D01*
X160745235Y-76153840D01*
X160765822Y-76264591D01*
X160777919Y-76356538D01*
X160779174Y-76378772D01*
X160784473Y-76493863D01*
X160796460Y-76628919D01*
X160812732Y-76765759D01*
X160830885Y-76886204D01*
X160848519Y-76972075D01*
X160861893Y-77004733D01*
X160904882Y-76996874D01*
X160977671Y-76955539D01*
X161007055Y-76934367D01*
X161087336Y-76879147D01*
X161147504Y-76848286D01*
X161158760Y-76845939D01*
X161205114Y-76820741D01*
X161242006Y-76780312D01*
X161299661Y-76725747D01*
X161392970Y-76660691D01*
X161447932Y-76628583D01*
X161555332Y-76569070D01*
X161648311Y-76515623D01*
X161680049Y-76496474D01*
X161736933Y-76471247D01*
X161787252Y-76486990D01*
X161841696Y-76533118D01*
X161915080Y-76635288D01*
X161919712Y-76738387D01*
X161856023Y-76841408D01*
X161724442Y-76943344D01*
X161647926Y-76986165D01*
X161544160Y-77051222D01*
X161431528Y-77138360D01*
X161392200Y-77173479D01*
X161308698Y-77243730D01*
X161238783Y-77287967D01*
X161213134Y-77295802D01*
X161177870Y-77321399D01*
X161173770Y-77381861D01*
X161196405Y-77452701D01*
X161241347Y-77509429D01*
X161253183Y-77517244D01*
X161319359Y-77558626D01*
X161415298Y-77623108D01*
X161478115Y-77666955D01*
X161600478Y-77753130D01*
X161739235Y-77850016D01*
X161811383Y-77900037D01*
X162005802Y-78046915D01*
X162143159Y-78182046D01*
X162232176Y-78315190D01*
X162271001Y-78414504D01*
X162296171Y-78543097D01*
X162278104Y-78625515D01*
X162211946Y-78673179D01*
X162154511Y-78688486D01*
X162055002Y-78678619D01*
X161941773Y-78625749D01*
X161841620Y-78542984D01*
X161830273Y-78529884D01*
X161772264Y-78482924D01*
X161737466Y-78472369D01*
X161688975Y-78446404D01*
X161628597Y-78382590D01*
X161618829Y-78369397D01*
X161539571Y-78289722D01*
X161432194Y-78217744D01*
X161400192Y-78201996D01*
X161300549Y-78150027D01*
X161223925Y-78096505D01*
X161207385Y-78080037D01*
X161155737Y-78033447D01*
X161128122Y-78022505D01*
X161081240Y-78003561D01*
X161008157Y-77957161D01*
X160997230Y-77949220D01*
X160921709Y-77906539D01*
X160865369Y-77897179D01*
X160859950Y-77899517D01*
X160840115Y-77946340D01*
X160828253Y-78049747D01*
X160825727Y-78192352D01*
X160815875Y-78407610D01*
X160777683Y-78562828D01*
X160709003Y-78662029D01*
X160607688Y-78709233D01*
X160546884Y-78714603D01*
X160473200Y-78689586D01*
X160441255Y-78662205D01*
X160412275Y-78593243D01*
X160388328Y-78472762D01*
X160370948Y-78318361D01*
X160361668Y-78147642D01*
X160362024Y-77978206D01*
X160370638Y-77852062D01*
X160378805Y-77736249D01*
X160384562Y-77571361D01*
X160387970Y-77372548D01*
X160389089Y-77154961D01*
X160387981Y-76933750D01*
X160384707Y-76724066D01*
X160379328Y-76541058D01*
X160371905Y-76399877D01*
X160364480Y-76326865D01*
X160353608Y-76238501D01*
X160340357Y-76104043D01*
X160326912Y-75946457D01*
X160321196Y-75871611D01*
X160310923Y-75715375D01*
X160308900Y-75612236D01*
X160316993Y-75546373D01*
X160337070Y-75501969D01*
X160369192Y-75465003D01*
X160456068Y-75411975D01*
X160558362Y-75393938D01*
X160647643Y-75413394D01*
G37*
G36*
X184567621Y-66941202D02*
G01*
X184780791Y-66959138D01*
X184931320Y-66990299D01*
X184987630Y-67013677D01*
X185090710Y-67068337D01*
X185182328Y-67112964D01*
X185258109Y-67176482D01*
X185335608Y-67289223D01*
X185405167Y-67432142D01*
X185457128Y-67586194D01*
X185478725Y-67697446D01*
X185484933Y-67805798D01*
X185466201Y-67889756D01*
X185413353Y-67983309D01*
X185393757Y-68012147D01*
X185300850Y-68121379D01*
X185188903Y-68219865D01*
X185144941Y-68249646D01*
X185040879Y-68314708D01*
X184949913Y-68376081D01*
X184924846Y-68394543D01*
X184849211Y-68452928D01*
X185055757Y-68662731D01*
X185154209Y-68758389D01*
X185237283Y-68831188D01*
X185291338Y-68869457D01*
X185300963Y-68872534D01*
X185357988Y-68895386D01*
X185443166Y-68953483D01*
X185537790Y-69031136D01*
X185623154Y-69112657D01*
X185680551Y-69182358D01*
X185689360Y-69198266D01*
X185712713Y-69314665D01*
X185671121Y-69410373D01*
X185598934Y-69464140D01*
X185525953Y-69500926D01*
X185485014Y-69521729D01*
X185456219Y-69505050D01*
X185442844Y-69479583D01*
X185396436Y-69439457D01*
X185331812Y-69426213D01*
X185231564Y-69392292D01*
X185134032Y-69305096D01*
X185061564Y-69232813D01*
X185001777Y-69189497D01*
X184984204Y-69183979D01*
X184940047Y-69159689D01*
X184869165Y-69096723D01*
X184804533Y-69028257D01*
X184722636Y-68944728D01*
X184651196Y-68888209D01*
X184614165Y-68872534D01*
X184564985Y-68843742D01*
X184517631Y-68773786D01*
X184514713Y-68767364D01*
X184440613Y-68671568D01*
X184330380Y-68633631D01*
X184226322Y-68644510D01*
X184183503Y-68658974D01*
X184157803Y-68685967D01*
X184144863Y-68740673D01*
X184140324Y-68838273D01*
X184139810Y-68945825D01*
X184128190Y-69167389D01*
X184092798Y-69325648D01*
X184032837Y-69422583D01*
X183947509Y-69460175D01*
X183932475Y-69460818D01*
X183841855Y-69443171D01*
X183782338Y-69384329D01*
X183748861Y-69275437D01*
X183736583Y-69118117D01*
X183727045Y-68958406D01*
X183708117Y-68790433D01*
X183692207Y-68694289D01*
X183666445Y-68542318D01*
X183645813Y-68380474D01*
X183639767Y-68313635D01*
X183629456Y-68196921D01*
X183612874Y-68037635D01*
X183592808Y-67861818D01*
X183581902Y-67772358D01*
X183562366Y-67600922D01*
X183560600Y-67573505D01*
X183949495Y-67573505D01*
X183962668Y-67739523D01*
X183973203Y-67831768D01*
X184014811Y-68186403D01*
X184120567Y-68164756D01*
X184224477Y-68145800D01*
X184349535Y-68125938D01*
X184378699Y-68121737D01*
X184490004Y-68093879D01*
X184617469Y-68043129D01*
X184749379Y-67976933D01*
X184874018Y-67902734D01*
X184979673Y-67827978D01*
X185054628Y-67760110D01*
X185087169Y-67706574D01*
X185075029Y-67679213D01*
X185045093Y-67629841D01*
X185039538Y-67590814D01*
X185006364Y-67515390D01*
X184911345Y-67451602D01*
X184761236Y-67401918D01*
X184562793Y-67368808D01*
X184399322Y-67356838D01*
X184210754Y-67351644D01*
X184080440Y-67360735D01*
X183999428Y-67394090D01*
X183958764Y-67461687D01*
X183949495Y-67573505D01*
X183560600Y-67573505D01*
X183554534Y-67479303D01*
X183558620Y-67389066D01*
X183574836Y-67311778D01*
X183587705Y-67271815D01*
X183632900Y-67172351D01*
X183690351Y-67120778D01*
X183741854Y-67103351D01*
X183831242Y-67077877D01*
X183953910Y-67037192D01*
X184048548Y-67003003D01*
X184164837Y-66964492D01*
X184274012Y-66943421D01*
X184401573Y-66936752D01*
X184567621Y-66941202D01*
G37*
G36*
X166813619Y-80008802D02*
G01*
X166988263Y-80014944D01*
X167119948Y-80039696D01*
X167233179Y-80092829D01*
X167352464Y-80184115D01*
X167430003Y-80254570D01*
X167516172Y-80351272D01*
X167601863Y-80473351D01*
X167675089Y-80600452D01*
X167723863Y-80712216D01*
X167737224Y-80776314D01*
X167719182Y-80839036D01*
X167702619Y-80856493D01*
X167675316Y-80904447D01*
X167668014Y-80958113D01*
X167645919Y-81041119D01*
X167614107Y-81083084D01*
X167565356Y-81144017D01*
X167515577Y-81235633D01*
X167508603Y-81251695D01*
X167451086Y-81354587D01*
X167368787Y-81463964D01*
X167338262Y-81497442D01*
X167219519Y-81619317D01*
X167324179Y-81718100D01*
X167460278Y-81887811D01*
X167547308Y-82096990D01*
X167584593Y-82302836D01*
X167594387Y-82434938D01*
X167588363Y-82522759D01*
X167563258Y-82590079D01*
X167540110Y-82627020D01*
X167476795Y-82733614D01*
X167428853Y-82834655D01*
X167361335Y-82933473D01*
X167285538Y-82985449D01*
X167199868Y-83031404D01*
X167143751Y-83077459D01*
X167034019Y-83164232D01*
X166878452Y-83227443D01*
X166698610Y-83259259D01*
X166637013Y-83261534D01*
X166525787Y-83259458D01*
X166446162Y-83254078D01*
X166419353Y-83248303D01*
X166379277Y-83236567D01*
X166294781Y-83222275D01*
X166249213Y-83216288D01*
X166118214Y-83196180D01*
X166031891Y-83165661D01*
X165965788Y-83110999D01*
X165895450Y-83018460D01*
X165894512Y-83017109D01*
X165825948Y-82889969D01*
X165798106Y-82773602D01*
X165811604Y-82681987D01*
X165867062Y-82629105D01*
X165877210Y-82625852D01*
X166010498Y-82605339D01*
X166115510Y-82618326D01*
X166173688Y-82660737D01*
X166226951Y-82701617D01*
X166322334Y-82733586D01*
X166357083Y-82739989D01*
X166594105Y-82753576D01*
X166792078Y-82720165D01*
X166946194Y-82642248D01*
X167051643Y-82522313D01*
X167103616Y-82362853D01*
X167104855Y-82352745D01*
X167106952Y-82214819D01*
X167078540Y-82135441D01*
X166988835Y-82064565D01*
X166856547Y-82002051D01*
X166708284Y-81957834D01*
X166570655Y-81941848D01*
X166560657Y-81942096D01*
X166432609Y-81947131D01*
X166310648Y-81952132D01*
X166287129Y-81953134D01*
X166165432Y-81930304D01*
X166084659Y-81856809D01*
X166053362Y-81743160D01*
X166059212Y-81673103D01*
X166108086Y-81547896D01*
X166194798Y-81476761D01*
X166266515Y-81462079D01*
X166350224Y-81439635D01*
X166400153Y-81411077D01*
X166470615Y-81378991D01*
X166579944Y-81350580D01*
X166650998Y-81338986D01*
X166749161Y-81322901D01*
X166823673Y-81295679D01*
X166894583Y-81245141D01*
X166981940Y-81159104D01*
X167027782Y-81110075D01*
X167140419Y-80977417D01*
X167201380Y-80870976D01*
X167214325Y-80775400D01*
X167182910Y-80675334D01*
X167146749Y-80610714D01*
X167042560Y-80505975D01*
X166889803Y-80442418D01*
X166726892Y-80424125D01*
X166640851Y-80442318D01*
X166517753Y-80490381D01*
X166377003Y-80558157D01*
X166238007Y-80635489D01*
X166120169Y-80712221D01*
X166042895Y-80778197D01*
X166037062Y-80785172D01*
X165952920Y-80855113D01*
X165847659Y-80873795D01*
X165753707Y-80859670D01*
X165706874Y-80810221D01*
X165700761Y-80714843D01*
X165710889Y-80647073D01*
X165751857Y-80530675D01*
X165833827Y-80422904D01*
X165964736Y-80316329D01*
X166152518Y-80203515D01*
X166225336Y-80165180D01*
X166370686Y-80092445D01*
X166478428Y-80046604D01*
X166571756Y-80021494D01*
X166673865Y-80010948D01*
X166807950Y-80008801D01*
X166813619Y-80008802D01*
G37*
G36*
X161185870Y-85602575D02*
G01*
X161261514Y-85623969D01*
X161346830Y-85668121D01*
X161365077Y-85678737D01*
X161457838Y-85737199D01*
X161504936Y-85787108D01*
X161521767Y-85852495D01*
X161523791Y-85926458D01*
X161532221Y-86038945D01*
X161553289Y-86132253D01*
X161561928Y-86152427D01*
X161580416Y-86252619D01*
X161566723Y-86297223D01*
X161534497Y-86378060D01*
X161496944Y-86485040D01*
X161489081Y-86509178D01*
X161440345Y-86626636D01*
X161371988Y-86749504D01*
X161296848Y-86858290D01*
X161227762Y-86933503D01*
X161196246Y-86953792D01*
X161147540Y-86992120D01*
X161165135Y-87041408D01*
X161245680Y-87096804D01*
X161335151Y-87172953D01*
X161385040Y-87286558D01*
X161416372Y-87378069D01*
X161449078Y-87437650D01*
X161457161Y-87445105D01*
X161476331Y-87492207D01*
X161479363Y-87584678D01*
X161468522Y-87701170D01*
X161446072Y-87820332D01*
X161414276Y-87920817D01*
X161404483Y-87941782D01*
X161367099Y-88029284D01*
X161350792Y-88097578D01*
X161350766Y-88099285D01*
X161322883Y-88145968D01*
X161296030Y-88152911D01*
X161239022Y-88169409D01*
X161144593Y-88212432D01*
X161045145Y-88265965D01*
X160922339Y-88327352D01*
X160816344Y-88363497D01*
X160762483Y-88369098D01*
X160610112Y-88347345D01*
X160501213Y-88316131D01*
X160410087Y-88263679D01*
X160311034Y-88178211D01*
X160279322Y-88147679D01*
X160143187Y-87994581D01*
X160050081Y-87846347D01*
X160003372Y-87712168D01*
X160004540Y-87669701D01*
X160468341Y-87669701D01*
X160482662Y-87763899D01*
X160535420Y-87820527D01*
X160554853Y-87831283D01*
X160616918Y-87861548D01*
X160661705Y-87871193D01*
X160717280Y-87860003D01*
X160807131Y-87829356D01*
X160906697Y-87780370D01*
X160982924Y-87718580D01*
X160991637Y-87707520D01*
X161018941Y-87660033D01*
X161016119Y-87618811D01*
X160975862Y-87564693D01*
X160912385Y-87499829D01*
X160779785Y-87368301D01*
X160624063Y-87460094D01*
X160530443Y-87521261D01*
X160483987Y-87574489D01*
X160469033Y-87640864D01*
X160468341Y-87669701D01*
X160004540Y-87669701D01*
X160006424Y-87601233D01*
X160053082Y-87530023D01*
X160097351Y-87466441D01*
X160105119Y-87430622D01*
X160122447Y-87365213D01*
X160164925Y-87276943D01*
X160174329Y-87260998D01*
X160228333Y-87156971D01*
X160236906Y-87079168D01*
X160200008Y-87001568D01*
X160173896Y-86966515D01*
X160106203Y-86851600D01*
X160082998Y-86725434D01*
X160084805Y-86711691D01*
X160578575Y-86711691D01*
X160623368Y-86716553D01*
X160709862Y-86702282D01*
X160815120Y-86674490D01*
X160916207Y-86638785D01*
X160961135Y-86618112D01*
X161092670Y-86521139D01*
X161160765Y-86398449D01*
X161167807Y-86246053D01*
X161150288Y-86141625D01*
X161124996Y-86088752D01*
X161078104Y-86070045D01*
X161026200Y-86067965D01*
X160927526Y-86099113D01*
X160823458Y-86183415D01*
X160726465Y-86307161D01*
X160649015Y-86456642D01*
X160632741Y-86500611D01*
X160599356Y-86607176D01*
X160580130Y-86684068D01*
X160578575Y-86711691D01*
X160084805Y-86711691D01*
X160103230Y-86571539D01*
X160140598Y-86444612D01*
X160186084Y-86323849D01*
X160230929Y-86227507D01*
X160265212Y-86176696D01*
X160306585Y-86118344D01*
X160312619Y-86090564D01*
X160335505Y-86045499D01*
X160396345Y-85966976D01*
X160483415Y-85869723D01*
X160512444Y-85839560D01*
X160612878Y-85739050D01*
X160687132Y-85677014D01*
X160757162Y-85642200D01*
X160844927Y-85623354D01*
X160959316Y-85610535D01*
X161093828Y-85599557D01*
X161185870Y-85602575D01*
G37*
G36*
X178215487Y-74778214D02*
G01*
X178285176Y-74814733D01*
X178343923Y-74882110D01*
X178404454Y-74973602D01*
X178446073Y-75055539D01*
X178450382Y-75067873D01*
X178493516Y-75148470D01*
X178540911Y-75203005D01*
X178591874Y-75257052D01*
X178609238Y-75288449D01*
X178631272Y-75324352D01*
X178688283Y-75392855D01*
X178747657Y-75457567D01*
X178836501Y-75564056D01*
X178878534Y-75653703D01*
X178886077Y-75718069D01*
X178865249Y-75824216D01*
X178812665Y-75923519D01*
X178743173Y-75994168D01*
X178683642Y-76015421D01*
X178625524Y-75989942D01*
X178549936Y-75927025D01*
X178477602Y-75846949D01*
X178429247Y-75769991D01*
X178426882Y-75764179D01*
X178399672Y-75715558D01*
X178343157Y-75627442D01*
X178268232Y-75516672D01*
X178247029Y-75486165D01*
X178137098Y-75346035D01*
X178047363Y-75268224D01*
X177979225Y-75253487D01*
X177934083Y-75302581D01*
X177929651Y-75314672D01*
X177901882Y-75388326D01*
X177862519Y-75482028D01*
X177861527Y-75484275D01*
X177837594Y-75575382D01*
X177821544Y-75710624D01*
X177813289Y-75872255D01*
X177812740Y-76042530D01*
X177819807Y-76203703D01*
X177834404Y-76338031D01*
X177856440Y-76427767D01*
X177866333Y-76445945D01*
X177906605Y-76520701D01*
X177917139Y-76567977D01*
X177931703Y-76602362D01*
X177986000Y-76613359D01*
X178061424Y-76609076D01*
X178188427Y-76608247D01*
X178325403Y-76624748D01*
X178452706Y-76654025D01*
X178550692Y-76691526D01*
X178599715Y-76732698D01*
X178600227Y-76733952D01*
X178597059Y-76806466D01*
X178555949Y-76899166D01*
X178492067Y-76987863D01*
X178420583Y-77048367D01*
X178396780Y-77058349D01*
X178313965Y-77072570D01*
X178197071Y-77082500D01*
X178137657Y-77084723D01*
X178009780Y-77097773D01*
X177929241Y-77128536D01*
X177918256Y-77138735D01*
X177898165Y-77195706D01*
X177886476Y-77310657D01*
X177882888Y-77487818D01*
X177884282Y-77614552D01*
X177885697Y-77783032D01*
X177883671Y-77928946D01*
X177878638Y-78036854D01*
X177871033Y-78091311D01*
X177870871Y-78091715D01*
X177858803Y-78151047D01*
X177847731Y-78256704D01*
X177840052Y-78385816D01*
X177840050Y-78385857D01*
X177830627Y-78628091D01*
X177648951Y-78638551D01*
X177467276Y-78649010D01*
X177468408Y-78517434D01*
X177473791Y-78413712D01*
X177486701Y-78273786D01*
X177502328Y-78143622D01*
X177514206Y-78003421D01*
X177519632Y-77822170D01*
X177518113Y-77627776D01*
X177513456Y-77512689D01*
X177505176Y-77341323D01*
X177495625Y-77228912D01*
X177473632Y-77165911D01*
X177428025Y-77142777D01*
X177347633Y-77149966D01*
X177221283Y-77177934D01*
X177142336Y-77195654D01*
X176938513Y-77239971D01*
X176861100Y-77142886D01*
X176811133Y-77055975D01*
X176800515Y-76981566D01*
X176800938Y-76979839D01*
X176854934Y-76895362D01*
X176959591Y-76821558D01*
X177096364Y-76769925D01*
X177159475Y-76757537D01*
X177283976Y-76735612D01*
X177400500Y-76708571D01*
X177421665Y-76702513D01*
X177479916Y-76682219D01*
X177510688Y-76655151D01*
X177516405Y-76605764D01*
X177499492Y-76518513D01*
X177468646Y-76401163D01*
X177449405Y-76292875D01*
X177436518Y-76146652D01*
X177430059Y-75980974D01*
X177430102Y-75814318D01*
X177436723Y-75665163D01*
X177449995Y-75551988D01*
X177465019Y-75500564D01*
X177493775Y-75412792D01*
X177503307Y-75334249D01*
X177519636Y-75244446D01*
X177559205Y-75130927D01*
X177581168Y-75082648D01*
X177690690Y-74935769D01*
X177845494Y-74830078D01*
X178029264Y-74775213D01*
X178111148Y-74769644D01*
X178215487Y-74778214D01*
G37*
G36*
X186988218Y-66938865D02*
G01*
X187106924Y-66967237D01*
X187217466Y-66986477D01*
X187236949Y-66988636D01*
X187319908Y-67004475D01*
X187432816Y-67036129D01*
X187555205Y-67076512D01*
X187666608Y-67118536D01*
X187746557Y-67155116D01*
X187773325Y-67174349D01*
X187812204Y-67201351D01*
X187894588Y-67244612D01*
X187972303Y-67281004D01*
X188070403Y-67328903D01*
X188136368Y-67368821D01*
X188153979Y-67387515D01*
X188180748Y-67418888D01*
X188249159Y-67471310D01*
X188302128Y-67506499D01*
X188431128Y-67612254D01*
X188511854Y-67730458D01*
X188534633Y-67828551D01*
X188551877Y-67888914D01*
X188594400Y-67974284D01*
X188604793Y-67991647D01*
X188644515Y-68071481D01*
X188662154Y-68159527D01*
X188661814Y-68281652D01*
X188658657Y-68331063D01*
X188630542Y-68529831D01*
X188573460Y-68680699D01*
X188478788Y-68801919D01*
X188407553Y-68862579D01*
X188309816Y-68940224D01*
X188221951Y-69015124D01*
X188202840Y-69032632D01*
X188066814Y-69145267D01*
X187923638Y-69238038D01*
X187791647Y-69300538D01*
X187692395Y-69322398D01*
X187589578Y-69338991D01*
X187472631Y-69380259D01*
X187443244Y-69394556D01*
X187260374Y-69478835D01*
X187059512Y-69544585D01*
X186984031Y-69564318D01*
X186908224Y-69576146D01*
X186848575Y-69558655D01*
X186778835Y-69501671D01*
X186750448Y-69473781D01*
X186679486Y-69387759D01*
X186636597Y-69306743D01*
X186630860Y-69277989D01*
X186619288Y-69198444D01*
X186590843Y-69090249D01*
X186577527Y-69049578D01*
X186540741Y-68844125D01*
X186547558Y-68745425D01*
X186555085Y-68627588D01*
X186531915Y-68551757D01*
X186518341Y-68533777D01*
X186492125Y-68495650D01*
X186470487Y-68441060D01*
X186452062Y-68360941D01*
X186435489Y-68246224D01*
X186419402Y-68087842D01*
X186402438Y-67876727D01*
X186387155Y-67661363D01*
X186374537Y-67477287D01*
X186783242Y-67477287D01*
X186785818Y-67635409D01*
X186801113Y-67889761D01*
X186825830Y-68100320D01*
X186864066Y-68292296D01*
X186919914Y-68490901D01*
X186929880Y-68522251D01*
X186970809Y-68669724D01*
X187000235Y-68814397D01*
X187012001Y-68925783D01*
X187012017Y-68928859D01*
X187025939Y-69037011D01*
X187066047Y-69082770D01*
X187129850Y-69064597D01*
X187172683Y-69028257D01*
X187240862Y-68993154D01*
X187338993Y-68975912D01*
X187351887Y-68975580D01*
X187471376Y-68954449D01*
X187565696Y-68907139D01*
X187645777Y-68858557D01*
X187712686Y-68838699D01*
X187771658Y-68815688D01*
X187854432Y-68757925D01*
X187901572Y-68716812D01*
X187987366Y-68646625D01*
X188062715Y-68602909D01*
X188091090Y-68595695D01*
X188153471Y-68564246D01*
X188208108Y-68482484D01*
X188245660Y-68369289D01*
X188257164Y-68260016D01*
X188238354Y-68163961D01*
X188189442Y-68048431D01*
X188120533Y-67928115D01*
X188041733Y-67817698D01*
X187963148Y-67731869D01*
X187894885Y-67685316D01*
X187860328Y-67683265D01*
X187803782Y-67674903D01*
X187762956Y-67646050D01*
X187697757Y-67602081D01*
X187658917Y-67592153D01*
X187596027Y-67567635D01*
X187565696Y-67540246D01*
X187497431Y-67497481D01*
X187447262Y-67488338D01*
X187371673Y-67475279D01*
X187339034Y-67457660D01*
X187293114Y-67439086D01*
X187200455Y-67414891D01*
X187082792Y-67389519D01*
X186961858Y-67367417D01*
X186859388Y-67353030D01*
X186812230Y-67349919D01*
X186791927Y-67381429D01*
X186783242Y-67477287D01*
X186374537Y-67477287D01*
X186350389Y-67124987D01*
X186458802Y-67033841D01*
X186612785Y-66947488D01*
X186795767Y-66914825D01*
X186988218Y-66938865D01*
G37*
G36*
X152715236Y-76428301D02*
G01*
X152728399Y-76431657D01*
X152899604Y-76495387D01*
X153020431Y-76588208D01*
X153108429Y-76725944D01*
X153140756Y-76803481D01*
X153188252Y-76975113D01*
X153211736Y-77159362D01*
X153210900Y-77335470D01*
X153185432Y-77482677D01*
X153152021Y-77558585D01*
X153121853Y-77615583D01*
X153109463Y-77679896D01*
X153113479Y-77772431D01*
X153129830Y-77896099D01*
X153147374Y-78063445D01*
X153155249Y-78244140D01*
X153153070Y-78368554D01*
X153135492Y-78667362D01*
X153122745Y-78906697D01*
X153114933Y-79096135D01*
X153112158Y-79245251D01*
X153114525Y-79363620D01*
X153122139Y-79460819D01*
X153135101Y-79546423D01*
X153153517Y-79630007D01*
X153167326Y-79683541D01*
X153236534Y-79943078D01*
X153481726Y-79932836D01*
X153658199Y-79933895D01*
X153778089Y-79956676D01*
X153851530Y-80004498D01*
X153884194Y-80064701D01*
X153887676Y-80169722D01*
X153850418Y-80288577D01*
X153784455Y-80390324D01*
X153743865Y-80425510D01*
X153684192Y-80459815D01*
X153659103Y-80464715D01*
X153659101Y-80464604D01*
X153629482Y-80464203D01*
X153553765Y-80481225D01*
X153494728Y-80498037D01*
X153365204Y-80533319D01*
X153277107Y-80542808D01*
X153207339Y-80525738D01*
X153140028Y-80486290D01*
X152943016Y-80313639D01*
X152803411Y-80102358D01*
X152729731Y-79891170D01*
X152698027Y-79770034D01*
X152664987Y-79666305D01*
X152647818Y-79623947D01*
X152633928Y-79567233D01*
X152628166Y-79466046D01*
X152630552Y-79313498D01*
X152641108Y-79102698D01*
X152649832Y-78967788D01*
X152661489Y-78774323D01*
X152668740Y-78605288D01*
X152671310Y-78472604D01*
X152668922Y-78388192D01*
X152663814Y-78363826D01*
X152621255Y-78363626D01*
X152535143Y-78387328D01*
X152432310Y-78426481D01*
X152298753Y-78476292D01*
X152179869Y-78500142D01*
X152040568Y-78503823D01*
X151978836Y-78501335D01*
X151731308Y-78488836D01*
X151541070Y-78293982D01*
X151427501Y-78167337D01*
X151360336Y-78063934D01*
X151329104Y-77967580D01*
X151328780Y-77965653D01*
X151314451Y-77841346D01*
X151307647Y-77701110D01*
X151307930Y-77596402D01*
X151720808Y-77596402D01*
X151726332Y-77614322D01*
X151749081Y-77683029D01*
X151755302Y-77743773D01*
X151778992Y-77824050D01*
X151836565Y-77911927D01*
X151848818Y-77925448D01*
X151965484Y-78003553D01*
X152108011Y-78019745D01*
X152278740Y-77974112D01*
X152344115Y-77944287D01*
X152441187Y-77886278D01*
X152512565Y-77813453D01*
X152578342Y-77703491D01*
X152599834Y-77660240D01*
X152673031Y-77489151D01*
X152728833Y-77319531D01*
X152763486Y-77167148D01*
X152773235Y-77047768D01*
X152760326Y-76986138D01*
X152697140Y-76935202D01*
X152588662Y-76909940D01*
X152452963Y-76908185D01*
X152308116Y-76927772D01*
X152172193Y-76966537D01*
X152063266Y-77022314D01*
X152008705Y-77076183D01*
X151953890Y-77136016D01*
X151907574Y-77157383D01*
X151863537Y-77182362D01*
X151858564Y-77200639D01*
X151843547Y-77254726D01*
X151806351Y-77345472D01*
X151777687Y-77406693D01*
X151732583Y-77518501D01*
X151720808Y-77596402D01*
X151307930Y-77596402D01*
X151308020Y-77563299D01*
X151315219Y-77446267D01*
X151328894Y-77368368D01*
X151340573Y-77347710D01*
X151367605Y-77299889D01*
X151375178Y-77243895D01*
X151388240Y-77171432D01*
X151409783Y-77140080D01*
X151440811Y-77090557D01*
X151445539Y-77060177D01*
X151479346Y-76968358D01*
X151569515Y-76876193D01*
X151697163Y-76799167D01*
X151790249Y-76740275D01*
X151856835Y-76671656D01*
X151866030Y-76655419D01*
X151935531Y-76576075D01*
X152056770Y-76507379D01*
X152212555Y-76453792D01*
X152385689Y-76419775D01*
X152558981Y-76409791D01*
X152715236Y-76428301D01*
G37*
G36*
X172757836Y-66706298D02*
G01*
X172875189Y-66750957D01*
X172974062Y-66819256D01*
X173026704Y-66918343D01*
X173030751Y-66932632D01*
X173056533Y-67069782D01*
X173075864Y-67250851D01*
X173087887Y-67453559D01*
X173091747Y-67655627D01*
X173086587Y-67834774D01*
X173071550Y-67968721D01*
X173070734Y-67972807D01*
X173057995Y-68068469D01*
X173046282Y-68218400D01*
X173036385Y-68407659D01*
X173029095Y-68621308D01*
X173025321Y-68831433D01*
X173021017Y-69077512D01*
X173013563Y-69278982D01*
X173003371Y-69429070D01*
X172990850Y-69521002D01*
X172981968Y-69545991D01*
X172896458Y-69603043D01*
X172787274Y-69610053D01*
X172729604Y-69591608D01*
X172660389Y-69536304D01*
X172631130Y-69487390D01*
X172620944Y-69419846D01*
X172612950Y-69298084D01*
X172607236Y-69137064D01*
X172603892Y-68951746D01*
X172603009Y-68757089D01*
X172604676Y-68568054D01*
X172608982Y-68399600D01*
X172616018Y-68266687D01*
X172623390Y-68197739D01*
X172637941Y-68079346D01*
X172649860Y-67931223D01*
X172658725Y-67768529D01*
X172664117Y-67606422D01*
X172665612Y-67460062D01*
X172662791Y-67344605D01*
X172655233Y-67275211D01*
X172649376Y-67262414D01*
X172611205Y-67276440D01*
X172529094Y-67332076D01*
X172409753Y-67423766D01*
X172259894Y-67545957D01*
X172086228Y-67693095D01*
X171895467Y-67859625D01*
X171694320Y-68039991D01*
X171550632Y-68171785D01*
X171446083Y-68247630D01*
X171348271Y-68282409D01*
X171273088Y-68272099D01*
X171248617Y-68248244D01*
X171207480Y-68208904D01*
X171130164Y-68152315D01*
X171093827Y-68128571D01*
X170987638Y-68052985D01*
X170870728Y-67957530D01*
X170822167Y-67913692D01*
X170742832Y-67839604D01*
X170680439Y-67785111D01*
X170615865Y-67735398D01*
X170529989Y-67675651D01*
X170418220Y-67600748D01*
X170309079Y-67537002D01*
X170237128Y-67514546D01*
X170216896Y-67520844D01*
X170207866Y-67563388D01*
X170200510Y-67663667D01*
X170194849Y-67810227D01*
X170190907Y-67991613D01*
X170188706Y-68196370D01*
X170188270Y-68413044D01*
X170189620Y-68630179D01*
X170192781Y-68836322D01*
X170197774Y-69020016D01*
X170204623Y-69169808D01*
X170213351Y-69274243D01*
X170213396Y-69274607D01*
X170222788Y-69385214D01*
X170212089Y-69453998D01*
X170175404Y-69506871D01*
X170156324Y-69525493D01*
X170052675Y-69590146D01*
X169958961Y-69589143D01*
X169883339Y-69526014D01*
X169833968Y-69404288D01*
X169829879Y-69384214D01*
X169814099Y-69262081D01*
X169800052Y-69084089D01*
X169788023Y-68863575D01*
X169778294Y-68613874D01*
X169771150Y-68348324D01*
X169766874Y-68080259D01*
X169765748Y-67823016D01*
X169768058Y-67589931D01*
X169774086Y-67394340D01*
X169784115Y-67249579D01*
X169784435Y-67246589D01*
X169806079Y-67105786D01*
X169837956Y-67016032D01*
X169884081Y-66961098D01*
X169998345Y-66906153D01*
X170127833Y-66915916D01*
X170275516Y-66990800D01*
X170317502Y-67021172D01*
X170412127Y-67087388D01*
X170490089Y-67131380D01*
X170524273Y-67142289D01*
X170568434Y-67162926D01*
X170653937Y-67219224D01*
X170768767Y-67302766D01*
X170900908Y-67405137D01*
X170910927Y-67413136D01*
X171045104Y-67518606D01*
X171163667Y-67608354D01*
X171254171Y-67673191D01*
X171304171Y-67703928D01*
X171305449Y-67704429D01*
X171370631Y-67695457D01*
X171455719Y-67639203D01*
X171463196Y-67632560D01*
X171545513Y-67561817D01*
X171656662Y-67471184D01*
X171753280Y-67395263D01*
X171882937Y-67287463D01*
X172021708Y-67160025D01*
X172109841Y-67071503D01*
X172220050Y-66968238D01*
X172339025Y-66877848D01*
X172428503Y-66826195D01*
X172521961Y-66780042D01*
X172586205Y-66739438D01*
X172599683Y-66726045D01*
X172657206Y-66695178D01*
X172757836Y-66706298D01*
G37*
G36*
X158737927Y-85641399D02*
G01*
X158876293Y-85683714D01*
X158997949Y-85739979D01*
X159137689Y-85820255D01*
X159237103Y-85905588D01*
X159302649Y-86009395D01*
X159340783Y-86145095D01*
X159357964Y-86326105D01*
X159360984Y-86494384D01*
X159360984Y-86860244D01*
X159186056Y-87119176D01*
X159100360Y-87243799D01*
X159022589Y-87352977D01*
X158965487Y-87428960D01*
X158951878Y-87445414D01*
X158834630Y-87581094D01*
X158758706Y-87677088D01*
X158717829Y-87743951D01*
X158705719Y-87792235D01*
X158716098Y-87832494D01*
X158718643Y-87837448D01*
X158780757Y-87903384D01*
X158832527Y-87930492D01*
X158906606Y-87971646D01*
X158990075Y-88041616D01*
X159004604Y-88056559D01*
X159102441Y-88133113D01*
X159178324Y-88147933D01*
X159271255Y-88153028D01*
X159323712Y-88203943D01*
X159343113Y-88309292D01*
X159343682Y-88339917D01*
X159324730Y-88475561D01*
X159282089Y-88543974D01*
X159194406Y-88583395D01*
X159069985Y-88591491D01*
X158933485Y-88568877D01*
X158839588Y-88532930D01*
X158733625Y-88471034D01*
X158635943Y-88402635D01*
X158558327Y-88351051D01*
X158497437Y-88326310D01*
X158492412Y-88325935D01*
X158441185Y-88298584D01*
X158409349Y-88256726D01*
X158357300Y-88200062D01*
X158286472Y-88198036D01*
X158190869Y-88252251D01*
X158086186Y-88343238D01*
X157996103Y-88423898D01*
X157921312Y-88480805D01*
X157881017Y-88500718D01*
X157821622Y-88505986D01*
X157725521Y-88516982D01*
X157692847Y-88521068D01*
X157579619Y-88519232D01*
X157477510Y-88490695D01*
X157407446Y-88443763D01*
X157388505Y-88400260D01*
X157364577Y-88361577D01*
X157305246Y-88300949D01*
X157286921Y-88284725D01*
X157185337Y-88197346D01*
X157223818Y-87982023D01*
X157682646Y-87982023D01*
X157687732Y-88026266D01*
X157715610Y-88030501D01*
X157783733Y-87998600D01*
X157875276Y-87932521D01*
X157956931Y-87845018D01*
X157959114Y-87841989D01*
X158000370Y-87768636D01*
X157990784Y-87738992D01*
X157933460Y-87753406D01*
X157831500Y-87812227D01*
X157811797Y-87825412D01*
X157726001Y-87899217D01*
X157684346Y-87968502D01*
X157682646Y-87982023D01*
X157223818Y-87982023D01*
X157229376Y-87950920D01*
X157257967Y-87813296D01*
X157293193Y-87716900D01*
X157349000Y-87634137D01*
X157437362Y-87539397D01*
X157544827Y-87433008D01*
X157623621Y-87362270D01*
X157692782Y-87312695D01*
X157771348Y-87269793D01*
X157826296Y-87243403D01*
X157956352Y-87194656D01*
X158053428Y-87193207D01*
X158136432Y-87240560D01*
X158167115Y-87270486D01*
X158252267Y-87338759D01*
X158335254Y-87351441D01*
X158425948Y-87306214D01*
X158534225Y-87200758D01*
X158552171Y-87180096D01*
X158652990Y-87048652D01*
X158747226Y-86901558D01*
X158829139Y-86751240D01*
X158892988Y-86610127D01*
X158933035Y-86490647D01*
X158943539Y-86405227D01*
X158926509Y-86369575D01*
X158898750Y-86321721D01*
X158893818Y-86284536D01*
X158864829Y-86222653D01*
X158824608Y-86197734D01*
X158768683Y-86166666D01*
X158755398Y-86143494D01*
X158724407Y-86118697D01*
X158640565Y-86111820D01*
X158517568Y-86121777D01*
X158369115Y-86147481D01*
X158213441Y-86186519D01*
X158079249Y-86228207D01*
X157994862Y-86264744D01*
X157942779Y-86307106D01*
X157905502Y-86366270D01*
X157896198Y-86385497D01*
X157831623Y-86480972D01*
X157762419Y-86519968D01*
X157666458Y-86507212D01*
X157577305Y-86454739D01*
X157519356Y-86380263D01*
X157509622Y-86336400D01*
X157529767Y-86217392D01*
X157582274Y-86093013D01*
X157655247Y-85981398D01*
X157736789Y-85900680D01*
X157815007Y-85868996D01*
X157816215Y-85868987D01*
X157883669Y-85847602D01*
X157922156Y-85821554D01*
X158003390Y-85774700D01*
X158131367Y-85726014D01*
X158284087Y-85681690D01*
X158439549Y-85647924D01*
X158575753Y-85630914D01*
X158602216Y-85630022D01*
X158737927Y-85641399D01*
G37*
G36*
X178019039Y-70543377D02*
G01*
X178080458Y-70601145D01*
X178132304Y-70666727D01*
X178163812Y-70733158D01*
X178174858Y-70813048D01*
X178165322Y-70919011D01*
X178135083Y-71063659D01*
X178084018Y-71259604D01*
X178073751Y-71297127D01*
X178048487Y-71393868D01*
X178015093Y-71527894D01*
X177983117Y-71660478D01*
X177944353Y-71802460D01*
X177899515Y-71935110D01*
X177861381Y-72023317D01*
X177818992Y-72121086D01*
X177797624Y-72206298D01*
X177797008Y-72217629D01*
X177776110Y-72297234D01*
X177729004Y-72377789D01*
X177680241Y-72464440D01*
X177636540Y-72582202D01*
X177623107Y-72633327D01*
X177588395Y-72748017D01*
X177544246Y-72843328D01*
X177524420Y-72871636D01*
X177490079Y-72934011D01*
X177444520Y-73049393D01*
X177392107Y-73203358D01*
X177337199Y-73381479D01*
X177284158Y-73569329D01*
X177237346Y-73752485D01*
X177201122Y-73916518D01*
X177189647Y-73979007D01*
X177144884Y-74143992D01*
X177077391Y-74243669D01*
X176987590Y-74277951D01*
X176875903Y-74246753D01*
X176742753Y-74149987D01*
X176674977Y-74084022D01*
X176576204Y-73962011D01*
X176464560Y-73793277D01*
X176348725Y-73594495D01*
X176237378Y-73382343D01*
X176139199Y-73173497D01*
X176062867Y-72984633D01*
X176017062Y-72832427D01*
X176013099Y-72812324D01*
X175985748Y-72716896D01*
X175948209Y-72649695D01*
X175942026Y-72643714D01*
X175900074Y-72576353D01*
X175893739Y-72539366D01*
X175878909Y-72457253D01*
X175837730Y-72328021D01*
X175775171Y-72166273D01*
X175734230Y-72070507D01*
X175700372Y-71976350D01*
X175684989Y-71899370D01*
X175684935Y-71897483D01*
X175669603Y-71827459D01*
X175632646Y-71729411D01*
X175616899Y-71695083D01*
X175574849Y-71592543D01*
X175550882Y-71504223D01*
X175548864Y-71484119D01*
X175533141Y-71400708D01*
X175499589Y-71311095D01*
X175464573Y-71208619D01*
X175438840Y-71078572D01*
X175424363Y-70942632D01*
X175423115Y-70822475D01*
X175437070Y-70739778D01*
X175446092Y-70723475D01*
X175519636Y-70682130D01*
X175617048Y-70679528D01*
X175705750Y-70714360D01*
X175728398Y-70734797D01*
X175772693Y-70806822D01*
X175815612Y-70908910D01*
X175823735Y-70933775D01*
X175863974Y-71050128D01*
X175907950Y-71156475D01*
X175914503Y-71170163D01*
X175949390Y-71258281D01*
X175963162Y-71325885D01*
X175978845Y-71395696D01*
X176016438Y-71484563D01*
X176017946Y-71487454D01*
X176048719Y-71557967D01*
X176095047Y-71678913D01*
X176151256Y-71834854D01*
X176211673Y-72010348D01*
X176227756Y-72058435D01*
X176287732Y-72236430D01*
X176344029Y-72399013D01*
X176391204Y-72530771D01*
X176423814Y-72616292D01*
X176429397Y-72629416D01*
X176467895Y-72730045D01*
X176506959Y-72853582D01*
X176516681Y-72888952D01*
X176557702Y-73012385D01*
X176609353Y-73127433D01*
X176623607Y-73152574D01*
X176668611Y-73242921D01*
X176690412Y-73319587D01*
X176690752Y-73325598D01*
X176710693Y-73401524D01*
X176755507Y-73472758D01*
X176806159Y-73510686D01*
X176814584Y-73511768D01*
X176835851Y-73480467D01*
X176865972Y-73397051D01*
X176899616Y-73277147D01*
X176911981Y-73226278D01*
X176947484Y-73076530D01*
X176975216Y-72972199D01*
X177002886Y-72891245D01*
X177038205Y-72811629D01*
X177088883Y-72711313D01*
X177098984Y-72691770D01*
X177144117Y-72593878D01*
X177170917Y-72515219D01*
X177174120Y-72493844D01*
X177190921Y-72432374D01*
X177232453Y-72339281D01*
X177285414Y-72240764D01*
X177336500Y-72163021D01*
X177350406Y-72146677D01*
X177377710Y-72086003D01*
X177381750Y-72051044D01*
X177408068Y-71948543D01*
X177488031Y-71809110D01*
X177528820Y-71751221D01*
X177574635Y-71640168D01*
X177589754Y-71491438D01*
X177601308Y-71345126D01*
X177629841Y-71189803D01*
X177642934Y-71141405D01*
X177672797Y-71000958D01*
X177678365Y-70872152D01*
X177675245Y-70845251D01*
X177670587Y-70749538D01*
X177704803Y-70676416D01*
X177746678Y-70630192D01*
X177852114Y-70541408D01*
X177938558Y-70512847D01*
X178019039Y-70543377D01*
G37*
G36*
X172785871Y-75098711D02*
G01*
X172830218Y-75116271D01*
X172941173Y-75163186D01*
X173047822Y-75198037D01*
X173055150Y-75199855D01*
X173148256Y-75243520D01*
X173251463Y-75323487D01*
X173347879Y-75422216D01*
X173420613Y-75522168D01*
X173452772Y-75605803D01*
X173453107Y-75613050D01*
X173465531Y-75687256D01*
X173487712Y-75721279D01*
X173515554Y-75775366D01*
X173519778Y-75876383D01*
X173501283Y-76006539D01*
X173467067Y-76130637D01*
X173379431Y-76300251D01*
X173243610Y-76461376D01*
X173079555Y-76593363D01*
X172957920Y-76657638D01*
X172859265Y-76703211D01*
X172812202Y-76743971D01*
X172801869Y-76794440D01*
X172803120Y-76808897D01*
X172824179Y-76869536D01*
X172882313Y-76896239D01*
X172927596Y-76901531D01*
X173051560Y-76930521D01*
X173159037Y-76989588D01*
X173226217Y-77064706D01*
X173233083Y-77081538D01*
X173260607Y-77150263D01*
X173304521Y-77243956D01*
X173313184Y-77261197D01*
X173368581Y-77386259D01*
X173397363Y-77502874D01*
X173399417Y-77628145D01*
X173374628Y-77779179D01*
X173322880Y-77973080D01*
X173308074Y-78022505D01*
X173258729Y-78130433D01*
X173178547Y-78253669D01*
X173084996Y-78369238D01*
X172995542Y-78454166D01*
X172964271Y-78474706D01*
X172883754Y-78508899D01*
X172760151Y-78551430D01*
X172611748Y-78597128D01*
X172456831Y-78640822D01*
X172313685Y-78677339D01*
X172200597Y-78701509D01*
X172138120Y-78708354D01*
X172063055Y-78703346D01*
X171942384Y-78695014D01*
X171799533Y-78684978D01*
X171768748Y-78682795D01*
X171617881Y-78668823D01*
X171517133Y-78649254D01*
X171447410Y-78618751D01*
X171396745Y-78578803D01*
X171326420Y-78488807D01*
X171313134Y-78393559D01*
X171354792Y-78274124D01*
X171361537Y-78260820D01*
X171415471Y-78156522D01*
X171698935Y-78184677D01*
X171936292Y-78204358D01*
X172122925Y-78209095D01*
X172275993Y-78197416D01*
X172412658Y-78167851D01*
X172550080Y-78118930D01*
X172571716Y-78109875D01*
X172715236Y-78040623D01*
X172811705Y-77970590D01*
X172881770Y-77884601D01*
X172884892Y-77879704D01*
X172936609Y-77782048D01*
X172966051Y-77695962D01*
X172968638Y-77673832D01*
X172940767Y-77561604D01*
X172870917Y-77450915D01*
X172779729Y-77372772D01*
X172762782Y-77364614D01*
X172667442Y-77320227D01*
X172570682Y-77269637D01*
X172435311Y-77224789D01*
X172263517Y-77211473D01*
X172080155Y-77229055D01*
X171910083Y-77276899D01*
X171886194Y-77287125D01*
X171783088Y-77326433D01*
X171700604Y-77344896D01*
X171671587Y-77343164D01*
X171625065Y-77295538D01*
X171585203Y-77207725D01*
X171561756Y-77108680D01*
X171564483Y-77027357D01*
X171564814Y-77026290D01*
X171602596Y-76982659D01*
X171685132Y-76919258D01*
X171794982Y-76846670D01*
X171914704Y-76775483D01*
X172026857Y-76716282D01*
X172113999Y-76679653D01*
X172147037Y-76672914D01*
X172210152Y-76648299D01*
X172245841Y-76616300D01*
X172304164Y-76562603D01*
X172392717Y-76497315D01*
X172423103Y-76477446D01*
X172502445Y-76416642D01*
X172548608Y-76360526D01*
X172553379Y-76343733D01*
X172581205Y-76298584D01*
X172606764Y-76292260D01*
X172660592Y-76272713D01*
X172748991Y-76221634D01*
X172846003Y-76154962D01*
X172983539Y-76032437D01*
X173055742Y-75917353D01*
X173061706Y-75811907D01*
X173018442Y-75736257D01*
X172955811Y-75685279D01*
X172911367Y-75669372D01*
X172868827Y-75652058D01*
X172864823Y-75640294D01*
X172834130Y-75617101D01*
X172754855Y-75587522D01*
X172675655Y-75565835D01*
X172566425Y-75543287D01*
X172479567Y-75539451D01*
X172385863Y-75556371D01*
X172259669Y-75594913D01*
X172134598Y-75632866D01*
X172028143Y-75659689D01*
X171965573Y-75669372D01*
X171899477Y-75691242D01*
X171813097Y-75746211D01*
X171780056Y-75773187D01*
X171666790Y-75853563D01*
X171577169Y-75872207D01*
X171505353Y-75830001D01*
X171494194Y-75816443D01*
X171450460Y-75708548D01*
X171474981Y-75590616D01*
X171536657Y-75497759D01*
X171606859Y-75424056D01*
X171687122Y-75364780D01*
X171793841Y-75310836D01*
X171943412Y-75253131D01*
X172034306Y-75221743D01*
X172159731Y-75178373D01*
X172266734Y-75139615D01*
X172328447Y-75115386D01*
X172472073Y-75077894D01*
X172636084Y-75072356D01*
X172785871Y-75098711D01*
G37*
G36*
X170094831Y-80233207D02*
G01*
X170257770Y-80307174D01*
X170346688Y-80385784D01*
X170406423Y-80439109D01*
X170448226Y-80458537D01*
X170485447Y-80482090D01*
X170558624Y-80545867D01*
X170656439Y-80639539D01*
X170745655Y-80729924D01*
X170886915Y-80884217D01*
X170987951Y-81016080D01*
X171063031Y-81145751D01*
X171105450Y-81240346D01*
X171164976Y-81385301D01*
X171224341Y-81529636D01*
X171267807Y-81635103D01*
X171320772Y-81817873D01*
X171350956Y-82038245D01*
X171356701Y-82267914D01*
X171336348Y-82478576D01*
X171321324Y-82548144D01*
X171287984Y-82666682D01*
X171252799Y-82754407D01*
X171203198Y-82831143D01*
X171126607Y-82916715D01*
X171022521Y-83019299D01*
X170881418Y-83154307D01*
X170778310Y-83247229D01*
X170702029Y-83304690D01*
X170641403Y-83333316D01*
X170585264Y-83339733D01*
X170522442Y-83330565D01*
X170504408Y-83326619D01*
X170394670Y-83282886D01*
X170284422Y-83208824D01*
X170191725Y-83120398D01*
X170134641Y-83033573D01*
X170124962Y-82991211D01*
X170101390Y-82903784D01*
X170027268Y-82845735D01*
X169897484Y-82814718D01*
X169726158Y-82808011D01*
X169589673Y-82814304D01*
X169474326Y-82827224D01*
X169402785Y-82844126D01*
X169398207Y-82846303D01*
X169347426Y-82907547D01*
X169303461Y-83028541D01*
X169291237Y-83079732D01*
X169263458Y-83193821D01*
X169236211Y-83281612D01*
X169220357Y-83315975D01*
X169232138Y-83351615D01*
X169306460Y-83400520D01*
X169373145Y-83432162D01*
X169505499Y-83480906D01*
X169619617Y-83496284D01*
X169727006Y-83488244D01*
X169973756Y-83458952D01*
X170161713Y-83445789D01*
X170299610Y-83449703D01*
X170396177Y-83471643D01*
X170460148Y-83512560D01*
X170499746Y-83572247D01*
X170525261Y-83686213D01*
X170492047Y-83768269D01*
X170404654Y-83810885D01*
X170352897Y-83815212D01*
X170242689Y-83838262D01*
X170189159Y-83887593D01*
X170129698Y-83933906D01*
X170028874Y-83975209D01*
X169909085Y-84006533D01*
X169792729Y-84022907D01*
X169702204Y-84019361D01*
X169667212Y-84003421D01*
X169623568Y-83991222D01*
X169536895Y-83983584D01*
X169497071Y-83982534D01*
X169391464Y-83971862D01*
X169310256Y-83946961D01*
X169294444Y-83936839D01*
X169220174Y-83892950D01*
X169156025Y-83869166D01*
X169055151Y-83835644D01*
X168951213Y-83791753D01*
X168864451Y-83747238D01*
X168815105Y-83711844D01*
X168810373Y-83702746D01*
X168783087Y-83677771D01*
X168773047Y-83676793D01*
X168724309Y-83651364D01*
X168653424Y-83587517D01*
X168577391Y-83503909D01*
X168513207Y-83419200D01*
X168478193Y-83353128D01*
X168448349Y-83277820D01*
X168428837Y-83244231D01*
X168387715Y-83150858D01*
X168359628Y-83003795D01*
X168347937Y-82854695D01*
X168759777Y-82854695D01*
X168764550Y-82937643D01*
X168791020Y-83018817D01*
X168839563Y-83106464D01*
X168899770Y-83188865D01*
X168961232Y-83254299D01*
X169013539Y-83291046D01*
X169046283Y-83287386D01*
X169052210Y-83261534D01*
X169029874Y-83213794D01*
X168983000Y-83157719D01*
X168931835Y-83091298D01*
X168913790Y-83042051D01*
X168925934Y-82998037D01*
X168959249Y-82901925D01*
X169009059Y-82765817D01*
X169070686Y-82601818D01*
X169139454Y-82422032D01*
X169155190Y-82381501D01*
X169536679Y-82381501D01*
X169564312Y-82387352D01*
X169628398Y-82375733D01*
X169700719Y-82353817D01*
X169753055Y-82328779D01*
X169757176Y-82325438D01*
X169813027Y-82310719D01*
X169831962Y-82315125D01*
X169858999Y-82311166D01*
X169858110Y-82259556D01*
X169849036Y-82217258D01*
X169815770Y-82090079D01*
X169786568Y-82028501D01*
X169751830Y-82030277D01*
X169701957Y-82093161D01*
X169653424Y-82171469D01*
X169593753Y-82272821D01*
X169551672Y-82348680D01*
X169536679Y-82381501D01*
X169155190Y-82381501D01*
X169210687Y-82238561D01*
X169279709Y-82063510D01*
X169341843Y-81908982D01*
X169392412Y-81787081D01*
X169426739Y-81709910D01*
X169433814Y-81696131D01*
X169462511Y-81622366D01*
X169467469Y-81589029D01*
X169491214Y-81532560D01*
X169538639Y-81477607D01*
X169591517Y-81395638D01*
X169591706Y-81341072D01*
X169597144Y-81263738D01*
X169634898Y-81168769D01*
X169642493Y-81155665D01*
X169718159Y-81071620D01*
X169799568Y-81052045D01*
X169882962Y-81092856D01*
X169964582Y-81189968D01*
X170040672Y-81339299D01*
X170107474Y-81536762D01*
X170147279Y-81704313D01*
X170172812Y-81801923D01*
X170193028Y-81860035D01*
X170217907Y-81931079D01*
X170255045Y-82048675D01*
X170298440Y-82192618D01*
X170342087Y-82342705D01*
X170379984Y-82478730D01*
X170401996Y-82563315D01*
X170440141Y-82662779D01*
X170496001Y-82750292D01*
X170554125Y-82804145D01*
X170578789Y-82811670D01*
X170620212Y-82787494D01*
X170681354Y-82730087D01*
X170741143Y-82662131D01*
X170778508Y-82606308D01*
X170782455Y-82592434D01*
X170800905Y-82546896D01*
X170846233Y-82473486D01*
X170855456Y-82460297D01*
X170895815Y-82390971D01*
X170915196Y-82313762D01*
X170917782Y-82204719D01*
X170913797Y-82126208D01*
X170895398Y-81974863D01*
X170860879Y-81795771D01*
X170817509Y-81626322D01*
X170814943Y-81617801D01*
X170777982Y-81501906D01*
X170741707Y-81411788D01*
X170695981Y-81332477D01*
X170630665Y-81249001D01*
X170535622Y-81146389D01*
X170408289Y-81017271D01*
X170273627Y-80883974D01*
X170176460Y-80793862D01*
X170106891Y-80739682D01*
X170055020Y-80714181D01*
X170010951Y-80710108D01*
X169992929Y-80712929D01*
X169901279Y-80731265D01*
X169781292Y-80754367D01*
X169735820Y-80762921D01*
X169624460Y-80792011D01*
X169534800Y-80829709D01*
X169510888Y-80845722D01*
X169434165Y-80898174D01*
X169388823Y-80919658D01*
X169324029Y-80969084D01*
X169303981Y-81002671D01*
X169268176Y-81059273D01*
X169199173Y-81143843D01*
X169129352Y-81219737D01*
X169031742Y-81325865D01*
X168962650Y-81420421D01*
X168915354Y-81520641D01*
X168883128Y-81643760D01*
X168859248Y-81807015D01*
X168844277Y-81950482D01*
X168825438Y-82139655D01*
X168805225Y-82332702D01*
X168786558Y-82502162D01*
X168776627Y-82586738D01*
X168763913Y-82726705D01*
X168759777Y-82854695D01*
X168347937Y-82854695D01*
X168345013Y-82817408D01*
X168344307Y-82606060D01*
X168357950Y-82384117D01*
X168386377Y-82165942D01*
X168394582Y-82120281D01*
X168413620Y-81981906D01*
X168426238Y-81817393D01*
X168429322Y-81706384D01*
X168461729Y-81453857D01*
X168555129Y-81221456D01*
X168703793Y-81022768D01*
X168727334Y-80999693D01*
X168790253Y-80940070D01*
X168837556Y-80894004D01*
X168885025Y-80845319D01*
X168948444Y-80777839D01*
X169040501Y-80678721D01*
X169156709Y-80575098D01*
X169316487Y-80470594D01*
X169528632Y-80359957D01*
X169719528Y-80273208D01*
X169912125Y-80221294D01*
X170094831Y-80233207D01*
G37*
%TD*%
D11*
%TO.C,TP858*%
X152400000Y-86360000D03*
%TD*%
D12*
%TO.C,TP590*%
X149860000Y-80010000D03*
%TD*%
%TO.C,TP589*%
X149860000Y-77470000D03*
%TD*%
%TO.C,TP588*%
X148590000Y-78740000D03*
%TD*%
%TO.C,TP574*%
X148590000Y-81280000D03*
%TD*%
%TO.C,TP568*%
X147320000Y-80010000D03*
%TD*%
%TO.C,TP562*%
X189230000Y-81280000D03*
%TD*%
%TO.C,TP556*%
X191770000Y-81280000D03*
%TD*%
%TO.C,TP555*%
X193040000Y-80010000D03*
%TD*%
%TO.C,TP587*%
X146050000Y-76200000D03*
%TD*%
%TO.C,TP586*%
X144780000Y-82550000D03*
%TD*%
%TO.C,TP585*%
X143510000Y-81280000D03*
%TD*%
%TO.C,TP584*%
X142240000Y-80010000D03*
%TD*%
%TO.C,TP583*%
X139700000Y-82550000D03*
%TD*%
%TO.C,TP582*%
X138430000Y-81280000D03*
%TD*%
%TO.C,TP581*%
X146050000Y-78740000D03*
%TD*%
%TO.C,TP580*%
X147320000Y-82550000D03*
%TD*%
%TO.C,TP579*%
X144780000Y-80010000D03*
%TD*%
%TO.C,TP578*%
X142240000Y-82550000D03*
%TD*%
%TO.C,TP577*%
X140970000Y-81280000D03*
%TD*%
%TO.C,TP576*%
X139700000Y-80010000D03*
%TD*%
%TO.C,TP575*%
X149860000Y-82550000D03*
%TD*%
%TO.C,TP573*%
X151130000Y-81280000D03*
%TD*%
%TO.C,TP572*%
X148590000Y-76200000D03*
%TD*%
%TO.C,TP571*%
X149860000Y-74930000D03*
%TD*%
%TO.C,TP570*%
X190500000Y-80010000D03*
%TD*%
%TO.C,TP569*%
X152400000Y-82550000D03*
%TD*%
%TO.C,TP567*%
X147320000Y-77470000D03*
%TD*%
%TO.C,TP566*%
X147320000Y-74930000D03*
%TD*%
%TO.C,TP565*%
X190500000Y-77470000D03*
%TD*%
%TO.C,TP564*%
X190500000Y-74930000D03*
%TD*%
%TO.C,TP563*%
X154940000Y-82550000D03*
%TD*%
%TO.C,TP561*%
X191770000Y-76200000D03*
%TD*%
%TO.C,TP560*%
X191770000Y-78740000D03*
%TD*%
%TO.C,TP559*%
X193040000Y-77470000D03*
%TD*%
%TO.C,TP558*%
X193040000Y-74930000D03*
%TD*%
%TO.C,TP557*%
X146050000Y-81280000D03*
%TD*%
%TO.C,TP554*%
X194310000Y-81280000D03*
%TD*%
%TO.C,TP553*%
X194310000Y-78740000D03*
%TD*%
%TO.C,TP552*%
X199390000Y-81280000D03*
%TD*%
%TO.C,TP551*%
X193040000Y-82550000D03*
%TD*%
%TO.C,TP550*%
X190500000Y-82550000D03*
%TD*%
%TO.C,TP549*%
X187960000Y-82550000D03*
%TD*%
%TO.C,TP548*%
X194310000Y-76200000D03*
%TD*%
%TO.C,TP547*%
X196850000Y-81280000D03*
%TD*%
%TO.C,TP546*%
X195580000Y-82550000D03*
%TD*%
%TO.C,TP545*%
X195580000Y-80010000D03*
%TD*%
%TO.C,TP544*%
X198120000Y-82550000D03*
%TD*%
%TO.C,TP543*%
X198120000Y-80010000D03*
%TD*%
%TO.C,TP542*%
X200660000Y-82550000D03*
%TD*%
%TO.C,TP541*%
X200660000Y-80010000D03*
%TD*%
%TO.C,TP540*%
X201930000Y-81280000D03*
%TD*%
%TO.C,TP539*%
X189230000Y-73660000D03*
%TD*%
%TO.C,TP538*%
X148590000Y-73660000D03*
%TD*%
%TO.C,TP537*%
X151130000Y-73660000D03*
%TD*%
%TO.C,TP536*%
X153670000Y-73660000D03*
%TD*%
%TO.C,TP535*%
X156210000Y-73660000D03*
%TD*%
%TO.C,TP534*%
X184150000Y-73660000D03*
%TD*%
%TO.C,TP533*%
X191770000Y-73660000D03*
%TD*%
%TO.C,TP532*%
X186690000Y-73660000D03*
%TD*%
%TO.C,TP531*%
X185420000Y-72390000D03*
%TD*%
%TO.C,TP530*%
X154940000Y-72390000D03*
%TD*%
%TO.C,TP529*%
X187960000Y-72390000D03*
%TD*%
%TO.C,TP528*%
X152400000Y-72390000D03*
%TD*%
%TO.C,TP527*%
X146050000Y-73660000D03*
%TD*%
%TO.C,TP526*%
X194310000Y-73660000D03*
%TD*%
%TO.C,TP525*%
X147320000Y-72390000D03*
%TD*%
%TO.C,TP524*%
X193040000Y-72390000D03*
%TD*%
%TO.C,TP523*%
X149860000Y-72390000D03*
%TD*%
%TO.C,TP522*%
X190500000Y-72390000D03*
%TD*%
%TO.C,TP521*%
X199390000Y-73660000D03*
%TD*%
%TO.C,TP520*%
X198120000Y-72390000D03*
%TD*%
%TO.C,TP519*%
X198120000Y-74930000D03*
%TD*%
%TO.C,TP518*%
X195580000Y-72390000D03*
%TD*%
%TO.C,TP517*%
X195580000Y-74930000D03*
%TD*%
%TO.C,TP516*%
X196850000Y-73660000D03*
%TD*%
%TO.C,TP515*%
X142240000Y-72390000D03*
%TD*%
%TO.C,TP514*%
X142240000Y-74930000D03*
%TD*%
%TO.C,TP513*%
X144780000Y-72390000D03*
%TD*%
%TO.C,TP512*%
X144780000Y-74930000D03*
%TD*%
%TO.C,TP511*%
X143510000Y-73660000D03*
%TD*%
%TO.C,TP510*%
X181610000Y-64770000D03*
%TD*%
%TO.C,TP509*%
X180340000Y-64770000D03*
%TD*%
%TO.C,TP508*%
X179070000Y-64770000D03*
%TD*%
%TO.C,TP507*%
X177800000Y-64770000D03*
%TD*%
%TO.C,TP506*%
X176530000Y-64770000D03*
%TD*%
%TO.C,TP505*%
X175260000Y-64770000D03*
%TD*%
%TO.C,TP504*%
X173990000Y-64770000D03*
%TD*%
%TO.C,TP503*%
X172720000Y-64770000D03*
%TD*%
%TO.C,TP502*%
X171450000Y-64770000D03*
%TD*%
%TO.C,TP501*%
X170180000Y-64770000D03*
%TD*%
%TO.C,TP500*%
X168910000Y-64770000D03*
%TD*%
%TO.C,TP499*%
X165100000Y-64770000D03*
%TD*%
%TO.C,TP498*%
X160020000Y-64770000D03*
%TD*%
%TO.C,TP497*%
X167640000Y-64770000D03*
%TD*%
%TO.C,TP496*%
X166370000Y-64770000D03*
%TD*%
%TO.C,TP495*%
X163830000Y-64770000D03*
%TD*%
%TO.C,TP494*%
X162560000Y-64770000D03*
%TD*%
%TO.C,TP493*%
X161290000Y-64770000D03*
%TD*%
%TO.C,TP492*%
X158750000Y-64770000D03*
%TD*%
%TO.C,TP491*%
X140970000Y-73660000D03*
%TD*%
%TO.C,TP490*%
X182880000Y-63500000D03*
%TD*%
%TO.C,TP489*%
X181610000Y-63500000D03*
%TD*%
%TO.C,TP488*%
X180340000Y-63500000D03*
%TD*%
%TO.C,TP487*%
X179070000Y-63500000D03*
%TD*%
%TO.C,TP486*%
X177800000Y-63500000D03*
%TD*%
%TO.C,TP485*%
X176530000Y-63500000D03*
%TD*%
%TO.C,TP484*%
X175260000Y-63500000D03*
%TD*%
%TO.C,TP483*%
X173990000Y-63500000D03*
%TD*%
%TO.C,TP482*%
X172720000Y-63500000D03*
%TD*%
%TO.C,TP481*%
X171450000Y-63500000D03*
%TD*%
%TO.C,TP480*%
X161290000Y-63500000D03*
%TD*%
%TO.C,TP479*%
X170180000Y-63500000D03*
%TD*%
%TO.C,TP478*%
X168910000Y-63500000D03*
%TD*%
%TO.C,TP477*%
X167640000Y-63500000D03*
%TD*%
%TO.C,TP476*%
X166370000Y-63500000D03*
%TD*%
%TO.C,TP475*%
X162560000Y-63500000D03*
%TD*%
%TO.C,TP474*%
X182880000Y-62230000D03*
%TD*%
%TO.C,TP473*%
X165100000Y-63500000D03*
%TD*%
%TO.C,TP472*%
X163830000Y-63500000D03*
%TD*%
%TO.C,TP471*%
X160020000Y-63500000D03*
%TD*%
%TO.C,TP470*%
X158750000Y-63500000D03*
%TD*%
%TO.C,TP469*%
X157480000Y-63500000D03*
%TD*%
%TO.C,TP468*%
X181610000Y-62230000D03*
%TD*%
%TO.C,TP467*%
X182880000Y-60960000D03*
%TD*%
%TO.C,TP466*%
X181610000Y-60960000D03*
%TD*%
%TO.C,TP465*%
X182880000Y-59690000D03*
%TD*%
%TO.C,TP464*%
X181610000Y-59690000D03*
%TD*%
%TO.C,TP463*%
X182880000Y-58420000D03*
%TD*%
%TO.C,TP462*%
X181610000Y-58420000D03*
%TD*%
%TO.C,TP461*%
X182880000Y-57150000D03*
%TD*%
%TO.C,TP460*%
X181610000Y-57150000D03*
%TD*%
%TO.C,TP459*%
X182880000Y-55880000D03*
%TD*%
%TO.C,TP458*%
X181610000Y-55880000D03*
%TD*%
%TO.C,TP457*%
X180340000Y-62230000D03*
%TD*%
%TO.C,TP456*%
X180340000Y-60960000D03*
%TD*%
%TO.C,TP455*%
X180340000Y-59690000D03*
%TD*%
%TO.C,TP454*%
X180340000Y-58420000D03*
%TD*%
%TO.C,TP453*%
X180340000Y-57150000D03*
%TD*%
%TO.C,TP452*%
X180340000Y-55880000D03*
%TD*%
%TO.C,TP451*%
X179070000Y-62230000D03*
%TD*%
%TO.C,TP450*%
X179070000Y-60960000D03*
%TD*%
%TO.C,TP449*%
X179070000Y-59690000D03*
%TD*%
%TO.C,TP448*%
X179070000Y-58420000D03*
%TD*%
%TO.C,TP447*%
X179070000Y-57150000D03*
%TD*%
%TO.C,TP446*%
X179070000Y-55880000D03*
%TD*%
%TO.C,TP445*%
X177800000Y-62230000D03*
%TD*%
%TO.C,TP444*%
X177800000Y-60960000D03*
%TD*%
%TO.C,TP443*%
X177800000Y-59690000D03*
%TD*%
%TO.C,TP442*%
X177800000Y-58420000D03*
%TD*%
%TO.C,TP441*%
X177800000Y-57150000D03*
%TD*%
%TO.C,TP440*%
X177800000Y-55880000D03*
%TD*%
%TO.C,TP439*%
X176530000Y-62230000D03*
%TD*%
%TO.C,TP438*%
X176530000Y-60960000D03*
%TD*%
%TO.C,TP437*%
X176530000Y-59690000D03*
%TD*%
%TO.C,TP436*%
X176530000Y-58420000D03*
%TD*%
%TO.C,TP435*%
X176530000Y-57150000D03*
%TD*%
%TO.C,TP434*%
X176530000Y-55880000D03*
%TD*%
%TO.C,TP433*%
X175260000Y-62230000D03*
%TD*%
%TO.C,TP432*%
X175260000Y-55880000D03*
%TD*%
%TO.C,TP431*%
X175260000Y-60960000D03*
%TD*%
%TO.C,TP430*%
X175260000Y-59690000D03*
%TD*%
%TO.C,TP429*%
X175260000Y-58420000D03*
%TD*%
%TO.C,TP428*%
X175260000Y-57150000D03*
%TD*%
%TO.C,TP427*%
X173990000Y-62230000D03*
%TD*%
%TO.C,TP426*%
X172720000Y-62230000D03*
%TD*%
%TO.C,TP425*%
X171450000Y-62230000D03*
%TD*%
%TO.C,TP424*%
X170180000Y-62230000D03*
%TD*%
%TO.C,TP423*%
X168910000Y-62230000D03*
%TD*%
%TO.C,TP422*%
X173990000Y-60960000D03*
%TD*%
%TO.C,TP421*%
X172720000Y-60960000D03*
%TD*%
%TO.C,TP420*%
X171450000Y-60960000D03*
%TD*%
%TO.C,TP419*%
X170180000Y-60960000D03*
%TD*%
%TO.C,TP418*%
X168910000Y-60960000D03*
%TD*%
%TO.C,TP417*%
X173990000Y-59690000D03*
%TD*%
%TO.C,TP416*%
X172720000Y-59690000D03*
%TD*%
%TO.C,TP415*%
X173990000Y-58420000D03*
%TD*%
%TO.C,TP414*%
X172720000Y-58420000D03*
%TD*%
%TO.C,TP413*%
X172720000Y-57150000D03*
%TD*%
%TO.C,TP412*%
X172720000Y-55880000D03*
%TD*%
%TO.C,TP411*%
X173990000Y-55880000D03*
%TD*%
%TO.C,TP410*%
X170180000Y-59690000D03*
%TD*%
%TO.C,TP409*%
X171450000Y-59690000D03*
%TD*%
%TO.C,TP408*%
X173990000Y-57150000D03*
%TD*%
%TO.C,TP407*%
X171450000Y-57150000D03*
%TD*%
%TO.C,TP406*%
X168910000Y-57150000D03*
%TD*%
%TO.C,TP405*%
X168910000Y-59690000D03*
%TD*%
%TO.C,TP404*%
X171450000Y-58420000D03*
%TD*%
%TO.C,TP403*%
X170180000Y-58420000D03*
%TD*%
%TO.C,TP402*%
X168910000Y-58420000D03*
%TD*%
%TO.C,TP401*%
X167640000Y-62230000D03*
%TD*%
%TO.C,TP400*%
X167640000Y-60960000D03*
%TD*%
%TO.C,TP399*%
X167640000Y-59690000D03*
%TD*%
%TO.C,TP398*%
X167640000Y-58420000D03*
%TD*%
%TO.C,TP397*%
X167640000Y-57150000D03*
%TD*%
%TO.C,TP396*%
X167640000Y-55880000D03*
%TD*%
%TO.C,TP395*%
X166370000Y-62230000D03*
%TD*%
%TO.C,TP394*%
X166370000Y-60960000D03*
%TD*%
%TO.C,TP393*%
X166370000Y-59690000D03*
%TD*%
%TO.C,TP392*%
X166370000Y-58420000D03*
%TD*%
%TO.C,TP391*%
X166370000Y-57150000D03*
%TD*%
%TO.C,TP390*%
X166370000Y-55880000D03*
%TD*%
%TO.C,TP389*%
X165100000Y-62230000D03*
%TD*%
%TO.C,TP388*%
X165100000Y-60960000D03*
%TD*%
%TO.C,TP387*%
X165100000Y-59690000D03*
%TD*%
%TO.C,TP386*%
X165100000Y-58420000D03*
%TD*%
%TO.C,TP385*%
X165100000Y-57150000D03*
%TD*%
%TO.C,TP384*%
X165100000Y-55880000D03*
%TD*%
%TO.C,TP383*%
X163830000Y-62230000D03*
%TD*%
%TO.C,TP382*%
X163830000Y-60960000D03*
%TD*%
%TO.C,TP381*%
X163830000Y-59690000D03*
%TD*%
%TO.C,TP380*%
X163830000Y-58420000D03*
%TD*%
%TO.C,TP379*%
X163830000Y-57150000D03*
%TD*%
%TO.C,TP378*%
X163830000Y-55880000D03*
%TD*%
%TO.C,TP377*%
X162560000Y-62230000D03*
%TD*%
%TO.C,TP376*%
X162560000Y-60960000D03*
%TD*%
%TO.C,TP375*%
X162560000Y-59690000D03*
%TD*%
%TO.C,TP374*%
X162560000Y-58420000D03*
%TD*%
%TO.C,TP373*%
X162560000Y-57150000D03*
%TD*%
%TO.C,TP372*%
X162560000Y-55880000D03*
%TD*%
%TO.C,TP371*%
X161290000Y-62230000D03*
%TD*%
%TO.C,TP370*%
X161290000Y-60960000D03*
%TD*%
%TO.C,TP369*%
X161290000Y-59690000D03*
%TD*%
%TO.C,TP368*%
X161290000Y-58420000D03*
%TD*%
%TO.C,TP367*%
X161290000Y-57150000D03*
%TD*%
%TO.C,TP366*%
X161290000Y-55880000D03*
%TD*%
%TO.C,TP365*%
X160020000Y-62230000D03*
%TD*%
%TO.C,TP364*%
X160020000Y-60960000D03*
%TD*%
%TO.C,TP363*%
X160020000Y-59690000D03*
%TD*%
%TO.C,TP362*%
X160020000Y-58420000D03*
%TD*%
%TO.C,TP361*%
X160020000Y-57150000D03*
%TD*%
%TO.C,TP360*%
X160020000Y-55880000D03*
%TD*%
%TO.C,TP359*%
X158750000Y-62230000D03*
%TD*%
%TO.C,TP358*%
X157480000Y-62230000D03*
%TD*%
%TO.C,TP357*%
X158750000Y-60960000D03*
%TD*%
%TO.C,TP356*%
X157480000Y-60960000D03*
%TD*%
%TO.C,TP355*%
X158750000Y-59690000D03*
%TD*%
%TO.C,TP354*%
X157480000Y-59690000D03*
%TD*%
%TO.C,TP353*%
X158750000Y-58420000D03*
%TD*%
%TO.C,TP352*%
X158750000Y-57150000D03*
%TD*%
%TO.C,TP330*%
X158750000Y-55880000D03*
%TD*%
%TO.C,TP316*%
X157480000Y-58420000D03*
%TD*%
%TO.C,TP299*%
X157480000Y-57150000D03*
%TD*%
%TO.C,TP298*%
X157480000Y-55880000D03*
%TD*%
D11*
%TO.C,TP351*%
X170180000Y-55880000D03*
%TD*%
%TO.C,TP350*%
X182880000Y-53340000D03*
%TD*%
%TO.C,TP349*%
X180340000Y-53340000D03*
%TD*%
%TO.C,TP348*%
X177800000Y-53340000D03*
%TD*%
%TO.C,TP347*%
X175260000Y-53340000D03*
%TD*%
%TO.C,TP346*%
X172720000Y-53340000D03*
%TD*%
%TO.C,TP345*%
X170180000Y-53340000D03*
%TD*%
%TO.C,TP344*%
X167640000Y-53340000D03*
%TD*%
%TO.C,TP343*%
X165100000Y-53340000D03*
%TD*%
%TO.C,TP342*%
X162560000Y-53340000D03*
%TD*%
%TO.C,TP341*%
X160020000Y-53340000D03*
%TD*%
%TO.C,TP340*%
X157480000Y-53340000D03*
%TD*%
%TO.C,TP339*%
X154940000Y-83820000D03*
%TD*%
%TO.C,TP338*%
X185420000Y-71120000D03*
%TD*%
%TO.C,TP337*%
X154940000Y-71120000D03*
%TD*%
%TO.C,TP336*%
X154940000Y-63500000D03*
%TD*%
%TO.C,TP335*%
X154940000Y-60960000D03*
%TD*%
%TO.C,TP334*%
X154940000Y-58420000D03*
%TD*%
%TO.C,TP333*%
X154940000Y-55880000D03*
%TD*%
%TO.C,TP332*%
X154940000Y-53340000D03*
%TD*%
%TO.C,TP331*%
X185420000Y-63500000D03*
%TD*%
%TO.C,TP329*%
X185420000Y-55880000D03*
%TD*%
%TO.C,TP328*%
X185420000Y-53340000D03*
%TD*%
%TO.C,TP327*%
X185420000Y-60960000D03*
%TD*%
%TO.C,TP326*%
X185420000Y-58420000D03*
%TD*%
%TO.C,TP325*%
X187960000Y-101600000D03*
%TD*%
%TO.C,TP324*%
X187960000Y-99060000D03*
%TD*%
%TO.C,TP323*%
X187960000Y-96520000D03*
%TD*%
%TO.C,TP322*%
X187960000Y-93980000D03*
%TD*%
%TO.C,TP321*%
X187960000Y-91440000D03*
%TD*%
%TO.C,TP320*%
X187960000Y-88900000D03*
%TD*%
%TO.C,TP319*%
X187960000Y-86360000D03*
%TD*%
%TO.C,TP318*%
X187960000Y-83820000D03*
%TD*%
%TO.C,TP317*%
X187960000Y-71120000D03*
%TD*%
%TO.C,TP315*%
X187960000Y-63500000D03*
%TD*%
%TO.C,TP314*%
X187960000Y-60960000D03*
%TD*%
%TO.C,TP313*%
X187960000Y-58420000D03*
%TD*%
%TO.C,TP312*%
X187960000Y-55880000D03*
%TD*%
%TO.C,TP311*%
X187960000Y-53340000D03*
%TD*%
%TO.C,TP310*%
X190500000Y-101600000D03*
%TD*%
%TO.C,TP309*%
X190500000Y-99060000D03*
%TD*%
%TO.C,TP308*%
X190500000Y-96520000D03*
%TD*%
%TO.C,TP307*%
X193040000Y-101600000D03*
%TD*%
%TO.C,TP306*%
X193040000Y-99060000D03*
%TD*%
%TO.C,TP305*%
X190500000Y-93980000D03*
%TD*%
%TO.C,TP304*%
X190500000Y-91440000D03*
%TD*%
%TO.C,TP303*%
X190500000Y-88900000D03*
%TD*%
%TO.C,TP302*%
X190500000Y-86360000D03*
%TD*%
%TO.C,TP301*%
X190500000Y-83820000D03*
%TD*%
%TO.C,TP300*%
X190500000Y-71120000D03*
%TD*%
%TO.C,TP297*%
X190500000Y-63500000D03*
%TD*%
%TO.C,TP296*%
X190500000Y-60960000D03*
%TD*%
%TO.C,TP295*%
X190500000Y-58420000D03*
%TD*%
%TO.C,TP294*%
X190500000Y-55880000D03*
%TD*%
%TO.C,TP293*%
X190500000Y-53340000D03*
%TD*%
%TO.C,TP292*%
X152400000Y-83820000D03*
%TD*%
%TO.C,TP291*%
X152400000Y-71120000D03*
%TD*%
%TO.C,TP290*%
X152400000Y-63500000D03*
%TD*%
%TO.C,TP289*%
X152400000Y-60960000D03*
%TD*%
%TO.C,TP288*%
X152400000Y-58420000D03*
%TD*%
%TO.C,TP287*%
X152400000Y-55880000D03*
%TD*%
%TO.C,TP286*%
X152400000Y-53340000D03*
%TD*%
%TO.C,TP285*%
X149860000Y-101600000D03*
%TD*%
%TO.C,TP284*%
X149860000Y-99060000D03*
%TD*%
%TO.C,TP283*%
X149860000Y-96520000D03*
%TD*%
%TO.C,TP282*%
X149860000Y-93980000D03*
%TD*%
%TO.C,TP281*%
X149860000Y-91440000D03*
%TD*%
%TO.C,TP280*%
X149860000Y-88900000D03*
%TD*%
%TO.C,TP279*%
X149860000Y-86360000D03*
%TD*%
%TO.C,TP278*%
X149860000Y-83820000D03*
%TD*%
%TO.C,TP277*%
X149860000Y-71120000D03*
%TD*%
%TO.C,TP276*%
X149860000Y-63500000D03*
%TD*%
%TO.C,TP275*%
X149860000Y-60960000D03*
%TD*%
%TO.C,TP274*%
X149860000Y-58420000D03*
%TD*%
%TO.C,TP273*%
X149860000Y-55880000D03*
%TD*%
%TO.C,TP272*%
X149860000Y-53340000D03*
%TD*%
D13*
%TO.C,U1*%
X165490000Y-93720000D03*
X165490000Y-94520000D03*
X165490000Y-95320000D03*
X165490000Y-96120000D03*
X165490000Y-96920000D03*
X165490000Y-97720000D03*
X165490000Y-98520000D03*
X165490000Y-99320000D03*
D14*
X166940000Y-100770000D03*
X167740000Y-100770000D03*
X168540000Y-100770000D03*
X169340000Y-100770000D03*
X170140000Y-100770000D03*
X170940000Y-100770000D03*
X171740000Y-100770000D03*
X172540000Y-100770000D03*
D13*
X173990000Y-99320000D03*
X173990000Y-98520000D03*
X173990000Y-97720000D03*
X173990000Y-96920000D03*
X173990000Y-96120000D03*
X173990000Y-95320000D03*
X173990000Y-94520000D03*
X173990000Y-93720000D03*
D14*
X172540000Y-92270000D03*
X171740000Y-92270000D03*
X170940000Y-92270000D03*
X170140000Y-92270000D03*
X169340000Y-92270000D03*
X168540000Y-92270000D03*
X167740000Y-92270000D03*
X166940000Y-92270000D03*
%TD*%
D11*
%TO.C,TP271*%
X165735000Y-102870000D03*
%TD*%
%TO.C,TP270*%
X163195000Y-102870000D03*
%TD*%
%TO.C,TP269*%
X160655000Y-102870000D03*
%TD*%
%TO.C,TP268*%
X152400000Y-91440000D03*
%TD*%
%TO.C,TP267*%
X152400000Y-88900000D03*
%TD*%
%TO.C,TP266*%
X160655000Y-90170000D03*
%TD*%
%TO.C,TP265*%
X163195000Y-90170000D03*
%TD*%
%TO.C,TP264*%
X165735000Y-90170000D03*
%TD*%
%TO.C,TP263*%
X168275000Y-90170000D03*
%TD*%
%TO.C,TP262*%
X170815000Y-90170000D03*
%TD*%
%TO.C,TP261*%
X173355000Y-90170000D03*
%TD*%
%TO.C,TP260*%
X175895000Y-90170000D03*
%TD*%
%TO.C,TP259*%
X178435000Y-90170000D03*
%TD*%
%TO.C,TP258*%
X185420000Y-86360000D03*
%TD*%
%TO.C,TP257*%
X185420000Y-88900000D03*
%TD*%
%TO.C,TP256*%
X152400000Y-101600000D03*
%TD*%
%TO.C,TP255*%
X152400000Y-99060000D03*
%TD*%
%TO.C,TP254*%
X185420000Y-101600000D03*
%TD*%
%TO.C,TP253*%
X178435000Y-102870000D03*
%TD*%
%TO.C,TP252*%
X175895000Y-102870000D03*
%TD*%
%TO.C,TP251*%
X173355000Y-102870000D03*
%TD*%
%TO.C,TP250*%
X170815000Y-102870000D03*
%TD*%
%TO.C,TP249*%
X168275000Y-102870000D03*
%TD*%
%TO.C,TP248*%
X185420000Y-99060000D03*
%TD*%
%TO.C,TP247*%
X152400000Y-96520000D03*
%TD*%
%TO.C,TP246*%
X152400000Y-93980000D03*
%TD*%
%TO.C,TP245*%
X185420000Y-91440000D03*
%TD*%
%TO.C,TP244*%
X185420000Y-96520000D03*
%TD*%
%TO.C,TP243*%
X185420000Y-93980000D03*
%TD*%
%TO.C,TP242*%
X193040000Y-96520000D03*
%TD*%
%TO.C,TP241*%
X193040000Y-93980000D03*
%TD*%
%TO.C,TP240*%
X193040000Y-91440000D03*
%TD*%
%TO.C,TP239*%
X193040000Y-88900000D03*
%TD*%
%TO.C,TP238*%
X193040000Y-86360000D03*
%TD*%
%TO.C,TP237*%
X193040000Y-83820000D03*
%TD*%
%TO.C,TP236*%
X193040000Y-71120000D03*
%TD*%
%TO.C,TP235*%
X193040000Y-68580000D03*
%TD*%
%TO.C,TP234*%
X193040000Y-66040000D03*
%TD*%
%TO.C,TP233*%
X193040000Y-63500000D03*
%TD*%
%TO.C,TP232*%
X193040000Y-60960000D03*
%TD*%
%TO.C,TP231*%
X193040000Y-58420000D03*
%TD*%
%TO.C,TP230*%
X193040000Y-55880000D03*
%TD*%
%TO.C,TP229*%
X193040000Y-53340000D03*
%TD*%
%TO.C,TP228*%
X147320000Y-101600000D03*
%TD*%
%TO.C,TP227*%
X147320000Y-99060000D03*
%TD*%
%TO.C,TP226*%
X147320000Y-96520000D03*
%TD*%
%TO.C,TP225*%
X147320000Y-93980000D03*
%TD*%
%TO.C,TP224*%
X147320000Y-91440000D03*
%TD*%
%TO.C,TP223*%
X147320000Y-88900000D03*
%TD*%
%TO.C,TP222*%
X147320000Y-86360000D03*
%TD*%
%TO.C,TP221*%
X147320000Y-83820000D03*
%TD*%
%TO.C,TP220*%
X147320000Y-71120000D03*
%TD*%
%TO.C,TP219*%
X147320000Y-68580000D03*
%TD*%
%TO.C,TP218*%
X147320000Y-66040000D03*
%TD*%
%TO.C,TP217*%
X195580000Y-101600000D03*
%TD*%
%TO.C,TP216*%
X195580000Y-99060000D03*
%TD*%
%TO.C,TP215*%
X195580000Y-96520000D03*
%TD*%
%TO.C,TP214*%
X195580000Y-93980000D03*
%TD*%
%TO.C,TP213*%
X195580000Y-91440000D03*
%TD*%
%TO.C,TP212*%
X195580000Y-88900000D03*
%TD*%
%TO.C,TP211*%
X195580000Y-86360000D03*
%TD*%
%TO.C,TP210*%
X195580000Y-83820000D03*
%TD*%
%TO.C,TP209*%
X195580000Y-78740000D03*
%TD*%
%TO.C,TP208*%
X195580000Y-76200000D03*
%TD*%
%TO.C,TP207*%
X195580000Y-71120000D03*
%TD*%
%TO.C,TP206*%
X195580000Y-68580000D03*
%TD*%
%TO.C,TP205*%
X195580000Y-66040000D03*
%TD*%
%TO.C,TP204*%
X195580000Y-63500000D03*
%TD*%
%TO.C,TP203*%
X195580000Y-60960000D03*
%TD*%
%TO.C,TP202*%
X195580000Y-58420000D03*
%TD*%
%TO.C,TP201*%
X195580000Y-55880000D03*
%TD*%
%TO.C,TP200*%
X195580000Y-53340000D03*
%TD*%
%TO.C,TP199*%
X198120000Y-101600000D03*
%TD*%
%TO.C,TP198*%
X198120000Y-99060000D03*
%TD*%
%TO.C,TP197*%
X198120000Y-96520000D03*
%TD*%
%TO.C,TP196*%
X198120000Y-93980000D03*
%TD*%
%TO.C,TP195*%
X198120000Y-91440000D03*
%TD*%
%TO.C,TP194*%
X198120000Y-88900000D03*
%TD*%
%TO.C,TP193*%
X198120000Y-86360000D03*
%TD*%
%TO.C,TP192*%
X198120000Y-83820000D03*
%TD*%
%TO.C,TP191*%
X198120000Y-78740000D03*
%TD*%
%TO.C,TP190*%
X198120000Y-76200000D03*
%TD*%
%TO.C,TP189*%
X198120000Y-71120000D03*
%TD*%
%TO.C,TP188*%
X198120000Y-68580000D03*
%TD*%
%TO.C,TP187*%
X198120000Y-66040000D03*
%TD*%
%TO.C,TP186*%
X198120000Y-63500000D03*
%TD*%
%TO.C,TP185*%
X198120000Y-60960000D03*
%TD*%
%TO.C,TP184*%
X198120000Y-58420000D03*
%TD*%
%TO.C,TP183*%
X198120000Y-55880000D03*
%TD*%
%TO.C,TP182*%
X198120000Y-53340000D03*
%TD*%
%TO.C,TP181*%
X200660000Y-101600000D03*
%TD*%
%TO.C,TP180*%
X200660000Y-99060000D03*
%TD*%
%TO.C,TP179*%
X200660000Y-96520000D03*
%TD*%
%TO.C,TP178*%
X200660000Y-93980000D03*
%TD*%
%TO.C,TP177*%
X200660000Y-91440000D03*
%TD*%
%TO.C,TP176*%
X200660000Y-88900000D03*
%TD*%
%TO.C,TP175*%
X200660000Y-86360000D03*
%TD*%
%TO.C,TP174*%
X200660000Y-83820000D03*
%TD*%
%TO.C,TP173*%
X200660000Y-78740000D03*
%TD*%
%TO.C,TP172*%
X200660000Y-76200000D03*
%TD*%
%TO.C,TP171*%
X200660000Y-73660000D03*
%TD*%
%TO.C,TP170*%
X200660000Y-71120000D03*
%TD*%
%TO.C,TP169*%
X200660000Y-68580000D03*
%TD*%
%TO.C,TP168*%
X200660000Y-66040000D03*
%TD*%
%TO.C,TP167*%
X200660000Y-63500000D03*
%TD*%
%TO.C,TP166*%
X200660000Y-60960000D03*
%TD*%
%TO.C,TP165*%
X200660000Y-58420000D03*
%TD*%
%TO.C,TP164*%
X200660000Y-55880000D03*
%TD*%
%TO.C,TP163*%
X200660000Y-53340000D03*
%TD*%
%TO.C,TP162*%
X203200000Y-101600000D03*
%TD*%
%TO.C,TP161*%
X203200000Y-99060000D03*
%TD*%
%TO.C,TP160*%
X203200000Y-96520000D03*
%TD*%
%TO.C,TP159*%
X203200000Y-93980000D03*
%TD*%
%TO.C,TP158*%
X203200000Y-91440000D03*
%TD*%
%TO.C,TP157*%
X203200000Y-88900000D03*
%TD*%
%TO.C,TP156*%
X203200000Y-86360000D03*
%TD*%
%TO.C,TP155*%
X203200000Y-83820000D03*
%TD*%
%TO.C,TP154*%
X203200000Y-81280000D03*
%TD*%
%TO.C,TP153*%
X203200000Y-78740000D03*
%TD*%
%TO.C,TP152*%
X203200000Y-76200000D03*
%TD*%
%TO.C,TP151*%
X203200000Y-73660000D03*
%TD*%
%TO.C,TP150*%
X203200000Y-71120000D03*
%TD*%
%TO.C,TP149*%
X203200000Y-68580000D03*
%TD*%
%TO.C,TP148*%
X203200000Y-66040000D03*
%TD*%
%TO.C,TP147*%
X203200000Y-63500000D03*
%TD*%
%TO.C,TP146*%
X203200000Y-60960000D03*
%TD*%
%TO.C,TP145*%
X203200000Y-58420000D03*
%TD*%
%TO.C,TP144*%
X203200000Y-55880000D03*
%TD*%
%TO.C,TP143*%
X203200000Y-53340000D03*
%TD*%
%TO.C,TP140*%
X144780000Y-101600000D03*
%TD*%
%TO.C,TP139*%
X144780000Y-99060000D03*
%TD*%
%TO.C,TP138*%
X144780000Y-96520000D03*
%TD*%
%TO.C,TP137*%
X144780000Y-93980000D03*
%TD*%
%TO.C,TP136*%
X144780000Y-91440000D03*
%TD*%
%TO.C,TP135*%
X144780000Y-88900000D03*
%TD*%
%TO.C,TP134*%
X144780000Y-86360000D03*
%TD*%
%TO.C,TP133*%
X144780000Y-83820000D03*
%TD*%
%TO.C,TP132*%
X147320000Y-63500000D03*
%TD*%
%TO.C,TP131*%
X144780000Y-78740000D03*
%TD*%
%TO.C,TP130*%
X144780000Y-76200000D03*
%TD*%
%TO.C,TP129*%
X147320000Y-60960000D03*
%TD*%
%TO.C,TP128*%
X144780000Y-71120000D03*
%TD*%
%TO.C,TP127*%
X144780000Y-68580000D03*
%TD*%
%TO.C,TP126*%
X144780000Y-66040000D03*
%TD*%
%TO.C,TP125*%
X144780000Y-63500000D03*
%TD*%
%TO.C,TP124*%
X144780000Y-60960000D03*
%TD*%
%TO.C,TP123*%
X144780000Y-58420000D03*
%TD*%
%TO.C,TP122*%
X144780000Y-55880000D03*
%TD*%
%TO.C,TP121*%
X144780000Y-53340000D03*
%TD*%
%TO.C,TP120*%
X142240000Y-101600000D03*
%TD*%
%TO.C,TP119*%
X142240000Y-99060000D03*
%TD*%
%TO.C,TP118*%
X142240000Y-96520000D03*
%TD*%
%TO.C,TP117*%
X142240000Y-93980000D03*
%TD*%
%TO.C,TP116*%
X142240000Y-91440000D03*
%TD*%
%TO.C,TP115*%
X142240000Y-88900000D03*
%TD*%
%TO.C,TP114*%
X142240000Y-86360000D03*
%TD*%
%TO.C,TP113*%
X142240000Y-83820000D03*
%TD*%
%TO.C,TP112*%
X147320000Y-58420000D03*
%TD*%
%TO.C,TP111*%
X142240000Y-78740000D03*
%TD*%
%TO.C,TP110*%
X142240000Y-76200000D03*
%TD*%
%TO.C,TP109*%
X147320000Y-55880000D03*
%TD*%
%TO.C,TP108*%
X142240000Y-71120000D03*
%TD*%
%TO.C,TP107*%
X142240000Y-68650000D03*
%TD*%
%TO.C,TP106*%
X142240000Y-66040000D03*
%TD*%
%TO.C,TP105*%
X142240000Y-63500000D03*
%TD*%
%TO.C,TP104*%
X142240000Y-60960000D03*
%TD*%
%TO.C,TP103*%
X142240000Y-58420000D03*
%TD*%
%TO.C,TP102*%
X142240000Y-55880000D03*
%TD*%
%TO.C,TP101*%
X142240000Y-53340000D03*
%TD*%
%TO.C,TP100*%
X139700000Y-101600000D03*
%TD*%
%TO.C,TP99*%
X139700000Y-99060000D03*
%TD*%
%TO.C,TP98*%
X139700000Y-96520000D03*
%TD*%
%TO.C,TP97*%
X139700000Y-93980000D03*
%TD*%
%TO.C,TP96*%
X139700000Y-91440000D03*
%TD*%
%TO.C,TP95*%
X139700000Y-88900000D03*
%TD*%
%TO.C,TP94*%
X139700000Y-86360000D03*
%TD*%
%TO.C,TP93*%
X139700000Y-83820000D03*
%TD*%
%TO.C,TP92*%
X147320000Y-53340000D03*
%TD*%
%TO.C,TP91*%
X139700000Y-78740000D03*
%TD*%
%TO.C,TP90*%
X139700000Y-76200000D03*
%TD*%
%TO.C,TP89*%
X139700000Y-73660000D03*
%TD*%
%TO.C,TP88*%
X139700000Y-71120000D03*
%TD*%
%TO.C,TP87*%
X139700000Y-68580000D03*
%TD*%
%TO.C,TP86*%
X139700000Y-66040000D03*
%TD*%
%TO.C,TP85*%
X139700000Y-63500000D03*
%TD*%
%TO.C,TP84*%
X139700000Y-60960000D03*
%TD*%
%TO.C,TP83*%
X139700000Y-58420000D03*
%TD*%
%TO.C,TP82*%
X139700000Y-55880000D03*
%TD*%
%TO.C,TP81*%
X139700000Y-53340000D03*
%TD*%
%TO.C,TP80*%
X137160000Y-101600000D03*
%TD*%
%TO.C,TP79*%
X137160000Y-99060000D03*
%TD*%
%TO.C,TP78*%
X137160000Y-96520000D03*
%TD*%
%TO.C,TP77*%
X137160000Y-93980000D03*
%TD*%
%TO.C,TP76*%
X137160000Y-91440000D03*
%TD*%
%TO.C,TP75*%
X137160000Y-88900000D03*
%TD*%
%TO.C,TP74*%
X137160000Y-86360000D03*
%TD*%
%TO.C,TP73*%
X137160000Y-83820000D03*
%TD*%
%TO.C,TP72*%
X137160000Y-81280000D03*
%TD*%
%TO.C,TP71*%
X137160000Y-78740000D03*
%TD*%
%TO.C,TP70*%
X137160000Y-76200000D03*
%TD*%
%TO.C,TP69*%
X137160000Y-73660000D03*
%TD*%
%TO.C,TP68*%
X137160000Y-71120000D03*
%TD*%
%TO.C,TP67*%
X137160000Y-68580000D03*
%TD*%
%TO.C,TP66*%
X137160000Y-66040000D03*
%TD*%
%TO.C,TP65*%
X137160000Y-63500000D03*
%TD*%
%TO.C,TP64*%
X137160000Y-60960000D03*
%TD*%
%TO.C,TP63*%
X137160000Y-58420000D03*
%TD*%
%TO.C,TP62*%
X137160000Y-55880000D03*
%TD*%
%TO.C,TP61*%
X137160000Y-53340000D03*
%TD*%
%TO.C,TP60*%
X205740000Y-99060000D03*
%TD*%
%TO.C,TP59*%
X205740000Y-93980000D03*
%TD*%
%TO.C,TP58*%
X205740000Y-88900000D03*
%TD*%
%TO.C,TP57*%
X205740000Y-83820000D03*
%TD*%
%TO.C,TP56*%
X205740000Y-78740000D03*
%TD*%
%TO.C,TP55*%
X205740000Y-73660000D03*
%TD*%
%TO.C,TP54*%
X205740000Y-68580000D03*
%TD*%
%TO.C,TP53*%
X205740000Y-63500000D03*
%TD*%
%TO.C,TP52*%
X205740000Y-58420000D03*
%TD*%
%TO.C,TP51*%
X205740000Y-53340000D03*
%TD*%
%TO.C,TP50*%
X134620000Y-99060000D03*
%TD*%
%TO.C,TP49*%
X134620000Y-93980000D03*
%TD*%
%TO.C,TP48*%
X134620000Y-88900000D03*
%TD*%
%TO.C,TP47*%
X134620000Y-83820000D03*
%TD*%
%TO.C,TP46*%
X134620000Y-78740000D03*
%TD*%
%TO.C,TP45*%
X134620000Y-73660000D03*
%TD*%
%TO.C,TP44*%
X134620000Y-68580000D03*
%TD*%
%TO.C,TP43*%
X134620000Y-63500000D03*
%TD*%
%TO.C,TP42*%
X134620000Y-58420000D03*
%TD*%
%TO.C,TP41*%
X134620000Y-53340000D03*
%TD*%
%TO.C,TP40*%
X205740000Y-101600000D03*
%TD*%
%TO.C,TP39*%
X205740000Y-96520000D03*
%TD*%
%TO.C,TP38*%
X205740000Y-91440000D03*
%TD*%
%TO.C,TP37*%
X205740000Y-86360000D03*
%TD*%
%TO.C,TP36*%
X205740000Y-81280000D03*
%TD*%
%TO.C,TP35*%
X205740000Y-76200000D03*
%TD*%
%TO.C,TP34*%
X205740000Y-71120000D03*
%TD*%
%TO.C,TP33*%
X205740000Y-66040000D03*
%TD*%
%TO.C,TP32*%
X205740000Y-60960000D03*
%TD*%
%TO.C,TP31*%
X205740000Y-55880000D03*
%TD*%
%TO.C,TP30*%
X134620000Y-101600000D03*
%TD*%
%TO.C,TP29*%
X134620000Y-96520000D03*
%TD*%
%TO.C,TP28*%
X134620000Y-91440000D03*
%TD*%
%TO.C,TP27*%
X134620000Y-86360000D03*
%TD*%
%TO.C,TP26*%
X134620000Y-81280000D03*
%TD*%
%TO.C,TP25*%
X134620000Y-76200000D03*
%TD*%
%TO.C,TP24*%
X134620000Y-71120000D03*
%TD*%
%TO.C,TP23*%
X134620000Y-66040000D03*
%TD*%
%TO.C,TP22*%
X134620000Y-60960000D03*
%TD*%
%TO.C,TP21*%
X134620000Y-55880000D03*
%TD*%
D15*
%TO.C,TP20*%
X210185000Y-100330000D03*
%TD*%
%TO.C,TP19*%
X210185000Y-95250000D03*
%TD*%
%TO.C,TP18*%
X210185000Y-90170000D03*
%TD*%
%TO.C,TP17*%
X210185000Y-85090000D03*
%TD*%
%TO.C,TP16*%
X210185000Y-80010000D03*
%TD*%
%TO.C,TP15*%
X210185000Y-74930000D03*
%TD*%
%TO.C,TP14*%
X210185000Y-69850000D03*
%TD*%
%TO.C,TP13*%
X210185000Y-64770000D03*
%TD*%
%TO.C,TP12*%
X210185000Y-59690000D03*
%TD*%
%TO.C,TP11*%
X210185000Y-54610000D03*
%TD*%
%TO.C,TP10*%
X129540000Y-100330000D03*
%TD*%
%TO.C,TP9*%
X129540000Y-95250000D03*
%TD*%
%TO.C,TP8*%
X129540000Y-90170000D03*
%TD*%
%TO.C,TP7*%
X129540000Y-85090000D03*
%TD*%
%TO.C,TP6*%
X129540000Y-80010000D03*
%TD*%
%TO.C,TP5*%
X129540000Y-74930000D03*
%TD*%
%TO.C,TP4*%
X129540000Y-69850000D03*
%TD*%
%TO.C,TP3*%
X129540000Y-64770000D03*
%TD*%
%TO.C,TP2*%
X129540000Y-59690000D03*
%TD*%
%TO.C,TP1*%
X129540000Y-54610000D03*
%TD*%
M02*
